<svg xmlns="http://www.w3.org/2000/svg" xmlns:xlink="http://www.w3.org/1999/xlink" xmlns:lucid="lucid" width="1332.48" height="2934.74"><g transform="translate(-560 324.2355464375113)" lucid:page-tab-id="0_0"><path d="M0-1258.83h3677.73V3840.5H0z" fill="#fff"/><path d="M1368.93-191.5c26.66 0 48.27 20.27 48.27 45.26 0 25-21.6 45.25-48.27 45.25h-144.8c-26.66 0-48.27-20.24-48.27-45.24 0-25 21.6-45.25 48.27-45.25z" stroke="#0c7cba" stroke-width="3" fill="#3aa6dd"/><use xlink:href="#a" transform="matrix(1,0,0,1,1180.8628750739617,-186.4855464375113) translate(36.943271604938325 49.236111111111086)"/><use xlink:href="#b" transform="matrix(1,0,0,1,1180.8628750739617,-186.4855464375113) translate(73.60993827160496 49.236111111111086)"/><use xlink:href="#c" transform="matrix(1,0,0,1,1180.8628750739617,-186.4855464375113) translate(101.99265432098767 49.236111111111086)"/><path d="M1295.54-98.5v16.58c0 .25.2.46.45.46h.44" stroke="#3aa6dd" stroke-width="2" fill="none"/><path d="M1296.54-98.46h-2v-1.03h2z" fill="#3aa6dd"/><path d="M1296.84-66.68l-5.02-14.14 9.27-.24z" stroke="#3aa6dd" stroke-width="2" fill="#3aa6dd"/><path d="M1177.2-298.24c0-3.3 2.68-6 6-6h228c3.3 0 6 2.7 6 6v83.34c0 3.3-2.7 6-6 6h-228c-3.32 0-6-2.7-6-6z" stroke="#000" stroke-opacity="0" stroke-width="3" fill="#fff" fill-opacity="0"/><use xlink:href="#d" transform="matrix(1,0,0,1,1182.1962084072952,-299.2355464375113) translate(-133.29012345679004 55.977777777777774)"/><path d="M1128.2-55.94c0-3.32 2.7-6 6-6h324c3.32 0 6 2.68 6 6v226.66c0 3.32-2.68 6-6 6h-324c-3.3 0-6-2.68-6-6z" stroke="#3aa6dd" stroke-width="3" fill="#3aa6dd"/><use xlink:href="#e" transform="matrix(1,0,0,1,1140.2039480701499,-49.9438797708446) translate(136.67006172839507 28.622222222222213)"/><use xlink:href="#f" transform="matrix(1,0,0,1,1140.2039480701499,-49.9438797708446) translate(163.50339506172838 28.622222222222213)"/><use xlink:href="#g" transform="matrix(1,0,0,1,1140.2039480701499,-49.9438797708446) translate(19.100308641975374 71.55555555555554)"/><use xlink:href="#h" transform="matrix(1,0,0,1,1140.2039480701499,-49.9438797708446) translate(36.49228395061732 114.48888888888885)"/><use xlink:href="#i" transform="matrix(1,0,0,1,1140.2039480701499,-49.9438797708446) translate(138.6577160493827 114.48888888888885)"/><use xlink:href="#j" transform="matrix(1,0,0,1,1140.2039480701499,-49.9438797708446) translate(237.74228395061726 114.48888888888885)"/><use xlink:href="#k" transform="matrix(1,0,0,1,1140.2039480701499,-49.9438797708446) translate(11.348456790123521 157.42222222222216)"/><use xlink:href="#l" transform="matrix(1,0,0,1,1140.2039480701499,-49.9438797708446) translate(99.69969135802472 157.42222222222216)"/><use xlink:href="#m" transform="matrix(1,0,0,1,1140.2039480701499,-49.9438797708446) translate(128.81882716049384 157.42222222222216)"/><use xlink:href="#n" transform="matrix(1,0,0,1,1140.2039480701499,-49.9438797708446) translate(164.5966049382716 157.42222222222216)"/><use xlink:href="#o" transform="matrix(1,0,0,1,1140.2039480701499,-49.9438797708446) translate(211.30648148148146 157.42222222222216)"/><use xlink:href="#l" transform="matrix(1,0,0,1,1140.2039480701499,-49.9438797708446) translate(126.58271604938273 200.3555555555555)"/><use xlink:href="#p" transform="matrix(1,0,0,1,1140.2039480701499,-49.9438797708446) translate(155.70185185185184 200.3555555555555)"/><path d="M1297.6 179.22v82.4" stroke="#3aa6dd" stroke-width="2" fill="none"/><path d="M1298.6 179.25h-2v-1.03h2z" fill="#3aa6dd"/><path d="M1297.6 276.87l-4.65-14.26h9.27z" stroke="#3aa6dd" stroke-width="2" fill="#3aa6dd"/><path d="M1290.7 281.64c3.2-.9 8.36-.9 11.55 0l228.46 64.72c3.2.9 3.2 2.37 0 3.28l-228.45 64.72c-3.2.9-8.36.9-11.54 0l-228.45-64.72c-3.2-.9-3.2-2.37 0-3.28z" stroke="#005c8e" stroke-width="2" fill="#3aa6dd"/><use xlink:href="#q" transform="matrix(1,0,0,1,1061.47861581471,285) translate(121.707366846655 74.15878192481648)"/><use xlink:href="#r" transform="matrix(1,0,0,1,1061.47861581471,285) translate(274.9856352305924 74.15878192481648)"/><use xlink:href="#s" transform="matrix(1,0,0,1,1061.47861581471,285) translate(320.39567834130384 74.15878192481648)"/><path d="M821.7 349h-67.57l-2.64.7-1.8 1.8-.7 2.63V420h-2v-66.13l.92-3.42 2.53-2.53 3.42-.92h67.83zm235.4 0H893.9v-2h163.2z" fill="#3aa6dd"/><path d="M1058.1 348l1.45 1h-2.5v-2h2.5zM748 435.26L743.36 421h9.28z" fill="#3aa6dd"/><path d="M748 438.5l-6-18.5h12zm-3.26-16.5l3.26 10.03 3.26-10.03z" fill="#3aa6dd"/><use xlink:href="#t" transform="matrix(1,0,0,1,821.6957321967385,326.6666666666666) translate(0 28.444444444444436)"/><path d="M1297.48 598v11.38h-2v-66.11h2zm0-97.4h-2V417h2z" fill="#3aa6dd"/><path d="M1296.9 416.05l.58-.08v1.06h-2v-1.13zM1296.48 624.64l-4.64-14.26h9.27z" fill="#3aa6dd"/><path d="M1296.48 627.88l-6-18.5h12zm-3.26-16.5l3.26 10.03 3.26-10.02z" fill="#3aa6dd"/><use xlink:href="#u" transform="matrix(1,0,0,1,1257.0712084073027,500.60785102613164) translate(0 28.444444444444436)"/><path d="M1370.26 2500c26.66 0 48.27 20.26 48.27 45.25 0 25-21.6 45.25-48.27 45.25h-144.8c-26.65 0-48.26-20.26-48.26-45.25 0-25 21.6-45.25 48.26-45.25z" stroke="#0c7cba" stroke-width="3" fill="#3aa6dd"/><use xlink:href="#v" transform="matrix(1,0,0,1,1182.1962084072952,2505) translate(43.66549382716054 49.236111111111086)"/><use xlink:href="#b" transform="matrix(1,0,0,1,1182.1962084072952,2505) translate(80.33216049382719 49.236111111111086)"/><use xlink:href="#w" transform="matrix(1,0,0,1,1182.1962084072952,2505) translate(108.71487654320988 49.236111111111086)"/><path d="M580 446c0-3.3 2.7-6 6-6h324c3.3 0 6 2.7 6 6v122.6c0 3.33-2.7 6-6 6H586c-3.3 0-6-2.67-6-6z" stroke="#3aa6dd" stroke-width="3" fill="#3aa6dd"/><use xlink:href="#x" transform="matrix(1,0,0,1,592,452) translate(49.035646906960736 36.87101578790582)"/><use xlink:href="#y" transform="matrix(1,0,0,1,592,452) translate(83.60222420812244 36.87101578790582)"/><use xlink:href="#z" transform="matrix(1,0,0,1,592,452) translate(110.35931552642909 36.87101578790582)"/><use xlink:href="#A" transform="matrix(1,0,0,1,592,452) translate(236.97540793698067 36.87101578790582)"/><use xlink:href="#B" transform="matrix(1,0,0,1,592,452) translate(3.330950253202502 92.17753946976455)"/><use xlink:href="#C" transform="matrix(1,0,0,1,592,452) translate(261.3000364081685 92.17753946976455)"/><use xlink:href="#D" transform="matrix(1,0,0,1,592,452) translate(285.6246648793564 92.17753946976455)"/><path d="M748 577.1V682c0 3.3 2.7 6 6 6h285.18" stroke="#3aa6dd" stroke-width="2" fill="none"/><path d="M749 577.14h-2v-1.03h2z" fill="#3aa6dd"/><path d="M1054.44 688l-14.26 4.64v-9.28z" stroke="#3aa6dd" stroke-width="2" fill="#3aa6dd"/><path d="M1290.38 629.46c3.22-.8 8.43-.8 11.64 0l228.36 57.08c3.22.8 3.22 2.1 0 2.92l-228.36 57.08c-3.2.8-8.42.8-11.64 0l-228.36-57.08c-3.2-.8-3.2-2.1 0-2.92z" stroke="#005c8e" stroke-width="2" fill="#3aa6dd"/><use xlink:href="#E" transform="matrix(1,0,0,1,1061.2039480701499,632.9999999999999) translate(124.86296296296312 66.64444444444442)"/><use xlink:href="#F" transform="matrix(1,0,0,1,1061.2039480701499,632.9999999999999) translate(268.63950617283945 66.64444444444442)"/><use xlink:href="#G" transform="matrix(1,0,0,1,1061.2039480701499,632.9999999999999) translate(316.02592592592583 66.64444444444442)"/><path d="M1705.48 840h-2V709.7h2zm-169.75-151v-2h132.65v2z" fill="#3aa6dd"/><path d="M1535.76 689h-2.7l1.67-1-1.66-1h2.7zM1704.48 855.26l-4.64-14.26h9.27z" fill="#3aa6dd"/><path d="M1704.48 858.5l-6-18.5h12zm-3.26-16.5l3.26 10.03 3.26-10.03z" fill="#3aa6dd"/><use xlink:href="#t" transform="matrix(1,0,0,1,1668.379850382611,667.0420652164709) translate(0 28.444444444444436)"/><path d="M1536.48 866c0-3.3 2.68-6 6-6h324c3.3 0 6 2.7 6 6v108c0 3.3-2.7 6-6 6h-324c-3.32 0-6-2.7-6-6z" stroke="#3aa6dd" stroke-width="3" fill="#3aa6dd"/><g><use xlink:href="#H" transform="matrix(1,0,0,1,1548.4786158147099,872) translate(22.802375133170415 59.67399887196842)"/><use xlink:href="#I" transform="matrix(1,0,0,1,1548.4786158147099,872) translate(61.8717490756408 59.67399887196842)"/><use xlink:href="#J" transform="matrix(1,0,0,1,1548.4786158147099,872) translate(92.11433853481232 59.67399887196842)"/><use xlink:href="#K" transform="matrix(1,0,0,1,1548.4786158147099,872) translate(220.75386977502035 59.67399887196842)"/><use xlink:href="#L" transform="matrix(1,0,0,1,1548.4786158147099,872) translate(263.1513755718493 59.67399887196842)"/></g><path d="M1296.9 1077h-2V943.27h2zm.3-176.4h-2V749.1h2z" fill="#3aa6dd"/><path d="M1297.2 749.12h-2v-1.02l.44.05 1.56-.15zM1295.9 1092.25l-4.64-14.26h9.27z" fill="#3aa6dd"/><path d="M1295.9 1095.5l-6-18.5h12zm-3.26-16.5l3.26 10.02 3.26-10.03z" fill="#3aa6dd"/><g><use xlink:href="#u" transform="matrix(1,0,0,1,1256.7965406627425,900.6124579888843) translate(0 28.444444444444436)"/></g><path d="M1100 1103c0-3.32 2.7-6 6-6h379.8c3.3 0 6 2.68 6 6v349.8c0 3.3-2.7 6-6 6H1106c-3.3 0-6-2.7-6-6z" stroke="#3aa6dd" stroke-width="3" fill="#3aa6dd"/><g><use xlink:href="#M" transform="matrix(1,0,0,1,1107,1103.9905646406921) translate(43.3452200678322 38.64447408610255)"/><use xlink:href="#N" transform="matrix(1,0,0,1,1107,1103.9905646406921) translate(79.57441452355334 38.64447408610255)"/><use xlink:href="#O" transform="matrix(1,0,0,1,1107,1103.9905646406921) translate(107.61849467631527 38.64447408610255)"/><use xlink:href="#P" transform="matrix(1,0,0,1,1107,1103.9905646406921) translate(194.8369257734217 38.64447408610255)"/><use xlink:href="#Q" transform="matrix(1,0,0,1,1107,1103.9905646406921) translate(271.18659853381183 38.64447408610255)"/><use xlink:href="#R" transform="matrix(1,0,0,1,1107,1103.9905646406921) translate(310.5019836283537 38.64447408610255)"/><use xlink:href="#S" transform="matrix(1,0,0,1,1107,1103.9905646406921) translate(79.57441452355337 96.61118521525637)"/><use xlink:href="#T" transform="matrix(1,0,0,1,1107,1103.9905646406921) translate(166.79284562065982 96.61118521525637)"/><use xlink:href="#Q" transform="matrix(1,0,0,1,1107,1103.9905646406921) translate(234.95740407809072 96.61118521525637)"/><use xlink:href="#U" transform="matrix(1,0,0,1,1107,1103.9905646406921) translate(274.27278917263254 96.61118521525637)"/><use xlink:href="#V" transform="matrix(1,0,0,1,1107,1103.9905646406921) translate(92.45590588558755 154.5778963444102)"/><use xlink:href="#W" transform="matrix(1,0,0,1,1107,1103.9905646406921) translate(165.98775241053266 154.5778963444102)"/><use xlink:href="#X" transform="matrix(1,0,0,1,1107,1103.9905646406921) translate(258.30510717177765 154.5778963444102)"/><use xlink:href="#Y" transform="matrix(1,0,0,1,1107,1103.9905646406921) translate(69.30947609443238 212.544607473564)"/><use xlink:href="#Z" transform="matrix(1,0,0,1,1107,1103.9905646406921) translate(12.617495881313232 270.51131860271784)"/><use xlink:href="#aa" transform="matrix(1,0,0,1,1107,1103.9905646406921) translate(91.85208597799222 328.4780297318717)"/></g><path d="M1704.48 982.5v289.4c0 3.3-2.7 6-6 6H1511.8" stroke="#3aa6dd" stroke-width="2" fill="none"/><path d="M1705.48 982.53h-2v-1.03h2z" fill="#3aa6dd"/><path d="M1496.53 1277.9l14.27-4.64v9.27z" stroke="#3aa6dd" stroke-width="2" fill="#3aa6dd"/><path d="M1100 1600.92c0-3.3 2.7-6 6-6h379.8c3.3 0 6 2.7 6 6v359.96c0 3.3-2.7 6-6 6H1106c-3.3 0-6-2.7-6-6z" stroke="#3aa6dd" stroke-width="3" fill="#3aa6dd"/><g><use xlink:href="#ab" transform="matrix(1,0,0,1,1107,1601.9191337467034) translate(31.770163510028823 29.83016660679295)"/><use xlink:href="#ac" transform="matrix(1,0,0,1,1107,1601.9191337467034) translate(59.73594470389721 29.83016660679295)"/><use xlink:href="#ad" transform="matrix(1,0,0,1,1107,1601.9191337467034) translate(81.38353088729903 29.83016660679295)"/><use xlink:href="#ae" transform="matrix(1,0,0,1,1107,1601.9191337467034) translate(134.00063031872548 29.83016660679295)"/><use xlink:href="#af" transform="matrix(1,0,0,1,1107,1601.9191337467034) translate(203.0864675643189 29.83016660679295)"/><use xlink:href="#ag" transform="matrix(1,0,0,1,1107,1601.9191337467034) translate(222.76609136741146 29.83016660679295)"/><use xlink:href="#ah" transform="matrix(1,0,0,1,1107,1601.9191337467034) translate(253.1141428111279 29.83016660679295)"/><use xlink:href="#ai" transform="matrix(1,0,0,1,1107,1601.9191337467034) translate(2.872189609698154 74.57541651698239)"/><use xlink:href="#aj" transform="matrix(1,0,0,1,1107,1601.9191337467034) translate(105.30981035316422 74.57541651698239)"/><use xlink:href="#ak" transform="matrix(1,0,0,1,1107,1601.9191337467034) translate(135.65786179688067 74.57541651698239)"/><use xlink:href="#al" transform="matrix(1,0,0,1,1107,1601.9191337467034) translate(173.98133972921883 74.57541651698239)"/><use xlink:href="#am" transform="matrix(1,0,0,1,1107,1601.9191337467034) translate(245.0351393551215 74.57541651698239)"/><use xlink:href="#an" transform="matrix(1,0,0,1,1107,1601.9191337467034) translate(0 119.3206664271718)"/><use xlink:href="#ao" transform="matrix(1,0,0,1,1107,1601.9191337467034) translate(0 164.06591633736122)"/><use xlink:href="#ag" transform="matrix(1,0,0,1,1107,1601.9191337467034) translate(58.935294441893014 164.06591633736122)"/><use xlink:href="#ap" transform="matrix(1,0,0,1,1107,1601.9191337467034) translate(89.28334588560945 164.06591633736122)"/><use xlink:href="#aq" transform="matrix(1,0,0,1,1107,1601.9191337467034) translate(160.5442994462815 164.06591633736122)"/><use xlink:href="#ar" transform="matrix(1,0,0,1,1107,1601.9191337467034) translate(190.89235088999794 164.06591633736122)"/><use xlink:href="#as" transform="matrix(1,0,0,1,1107,1601.9191337467034) translate(309.48797854547684 164.06591633736122)"/><use xlink:href="#at" transform="matrix(1,0,0,1,1107,1601.9191337467034) translate(0 208.81116624755066)"/><use xlink:href="#au" transform="matrix(1,0,0,1,1107,1601.9191337467034) translate(0 253.5564161577401)"/><use xlink:href="#ag" transform="matrix(1,0,0,1,1107,1601.9191337467034) translate(52.61709943142645 253.5564161577401)"/><use xlink:href="#av" transform="matrix(1,0,0,1,1107,1601.9191337467034) translate(82.96515087514288 253.5564161577401)"/><use xlink:href="#aq" transform="matrix(1,0,0,1,1107,1601.9191337467034) translate(147.90790942534835 253.5564161577401)"/><use xlink:href="#aw" transform="matrix(1,0,0,1,1107,1601.9191337467034) translate(178.25596086906478 253.5564161577401)"/><use xlink:href="#as" transform="matrix(1,0,0,1,1107,1601.9191337467034) translate(249.5169144297368 253.5564161577401)"/><use xlink:href="#at" transform="matrix(1,0,0,1,1107,1601.9191337467034) translate(0 298.30166606792955)"/><use xlink:href="#ax" transform="matrix(1,0,0,1,1107,1601.9191337467034) translate(0 343.046915978119)"/></g><path d="M1295.9 1461.3v113.62" stroke="#3aa6dd" stroke-width="2" fill="none"/><path d="M1296.9 1461.32h-2v-1.03h2z" fill="#3aa6dd"/><path d="M1295.9 1590.18l-4.64-14.26h9.27z" stroke="#3aa6dd" stroke-width="2" fill="#3aa6dd"/><path d="M1040 2079.64c0-3.3 2.7-6 6-6h506.7c3.32 0 6 2.7 6 6v307.6c0 3.3-2.68 6-6 6H1046c-3.3 0-6-2.7-6-6z" stroke="#3aa6dd" stroke-width="3" fill="#3aa6dd"/><g><use xlink:href="#ay" transform="matrix(1,0,0,1,1047,2080.6405665141097) translate(39.511419753086614 86.54930555555552)"/><use xlink:href="#az" transform="matrix(1,0,0,1,1047,2080.6405665141097) translate(71.34475308641993 86.54930555555552)"/><use xlink:href="#aA" transform="matrix(1,0,0,1,1047,2080.6405665141097) translate(95.98611111111126 86.54930555555552)"/><use xlink:href="#aB" transform="matrix(1,0,0,1,1047,2080.6405665141097) translate(155.87993827160503 86.54930555555552)"/><use xlink:href="#aC" transform="matrix(1,0,0,1,1047,2080.6405665141097) translate(190.42500000000007 86.54930555555552)"/><use xlink:href="#aD" transform="matrix(1,0,0,1,1047,2080.6405665141097) translate(264.3490740740741 86.54930555555552)"/><use xlink:href="#aE" transform="matrix(1,0,0,1,1047,2080.6405665141097) translate(322.82808641975305 86.54930555555552)"/><use xlink:href="#aF" transform="matrix(1,0,0,1,1047,2080.6405665141097) translate(389.9138888888888 86.54930555555552)"/><use xlink:href="#aG" transform="matrix(1,0,0,1,1047,2080.6405665141097) translate(409.01388888888874 86.54930555555552)"/><use xlink:href="#aH" transform="matrix(1,0,0,1,1047,2080.6405665141097) translate(8.090740740740841 137.48263888888883)"/><use xlink:href="#aI" transform="matrix(1,0,0,1,1047,2080.6405665141097) translate(119.74320987654322 137.48263888888883)"/><use xlink:href="#aJ" transform="matrix(1,0,0,1,1047,2080.6405665141097) translate(0.9577160493828387 188.4159722222221)"/><use xlink:href="#aK" transform="matrix(1,0,0,1,1047,2080.6405665141097) translate(123.57500000000007 239.34930555555542)"/></g><path d="M1295.9 1969.38v84.26" stroke="#3aa6dd" stroke-width="2" fill="none"/><path d="M1296.9 1969.4h-2v-1.02h2z" fill="#3aa6dd"/><path d="M1295.9 2068.9l-4.64-14.26h9.27z" stroke="#3aa6dd" stroke-width="2" fill="#3aa6dd"/><path d="M1299.35 2395.74V2480" stroke="#3aa6dd" stroke-width="2" fill="none"/><path d="M1300.35 2395.77h-2v-1.03h2z" fill="#3aa6dd"/><path d="M1299.35 2495.26l-4.63-14.26h9.27z" stroke="#3aa6dd" stroke-width="2" fill="#3aa6dd"/><defs><path fill="#fff" d="M113-239c43 0 61 26 61 72C174-84 154 4 72 4 31 4 12-24 12-70c0-81 18-169 101-169zm-21 26C66-175 31-51 76-16c51-17 46-93 54-155 4-33-13-62-38-42" id="aL"/><g id="a"><use transform="matrix(0.13580246913580238,0,0,0.13580246913580238,0,0)" xlink:href="#aL"/><path fill="#fff" d="M-2.44 3H26.9v4.66H-2.45z"/></g><path fill="#fff" d="M13-71v-27h94v27H13" id="aM"/><use transform="matrix(0.13580246913580238,0,0,0.13580246913580238,0,0)" xlink:href="#aM" id="b"/><path fill="#fff" d="M178-68c0 79-95 82-154 59v-54h12c1 35 22 52 60 52 50 0 69-58 33-82-39-24-105-21-105-85 0-67 86-66 142-53v49h-12l-6-29c-31-27-121-7-89 42 28 43 119 24 119 101" id="aN"/><path fill="#fff" d="M54-38c-1 25 24 26 44 20v12C71 10 25 9 25-35v-115H4c-2-14 14-10 21-15l18-38h11v38h38v15H54v112" id="aO"/><path fill="#fff" d="M32-163c41-10 102-14 102 39v112c8 3 24-2 21 12h-45l-4-17C83 13 3 13 13-46c-2-50 45-50 92-51 4-36-5-70-42-56-6 2-12 4-16 6-4 7 0 23-15 20v-36zM42-47c0 41 41 33 63 22v-59c-34 1-63-1-63 37" id="aP"/><path fill="#fff" d="M57-145c16-10 35-24 60-25v45c-19 1-8-30-40-17l-20 6v124l29 4v8H7v-8l21-4v-141c-8-3-24 2-21-12h48" id="aQ"/><g id="c"><use transform="matrix(0.13580246913580238,0,0,0.13580246913580238,0,0)" xlink:href="#aN"/><use transform="matrix(0.13580246913580238,0,0,0.13580246913580238,27.160493827160476,0)" xlink:href="#aO"/><use transform="matrix(0.13580246913580238,0,0,0.13580246913580238,40.74074074074071,0)" xlink:href="#aP"/><use transform="matrix(0.13580246913580238,0,0,0.13580246913580238,62.333333333333286,0)" xlink:href="#aQ"/><use transform="matrix(0.13580246913580238,0,0,0.13580246913580238,78.49382716049377,0)" xlink:href="#aO"/></g><path d="M81-9v9H4v-9l26-5 81-224h33l83 224 30 5v9h-99v-9l31-5-23-68H73L49-14zm38-203L78-98h82" id="aR"/><path d="M13-81c0-71 46-101 114-85l-1-72-28-4v-8h57v238c8 3 24-2 21 12h-47l-2-12C80 23 13-1 13-81zm77-74c-37 1-44 33-45 74 0 38 9 66 45 66 14 0 27-3 36-7v-130c-10-1-24-3-36-3" id="aS"/><path d="M65-12l28 4v8H7v-8l28-4v-226l-28-4v-8h58v238" id="aT"/><path d="M84-170c49 0 66 33 63 87H46c-8 60 38 80 95 63v10C128-2 108 4 88 4 34 4 14-29 14-84c-1-54 22-86 70-86zm33 73c12-57-57-82-69-24-1 7-2 15-2 24h71" id="aU"/><path d="M57-145c16-10 35-24 60-25v45c-19 1-8-30-40-17l-20 6v124l29 4v8H7v-8l21-4v-141c-8-3-24 2-21-12h48" id="aV"/><path d="M104-123c39 3 61 21 62 59C167 7 83 12 19-4l-2-50h12c2 29 16 43 51 43 38 0 54-19 54-55 2-43-34-49-75-50v-14c37 0 64-7 64-48 0-47-47-56-81-36l-6 29H24v-46c51-13 135-13 131 51-2 34-20 52-51 57" id="aW"/><path d="M24-231c66-21 156 2 128 81C132-92 78-66 39-27h121V0H16v-26l59-54c26-25 47-47 47-97 0-48-47-57-81-37l-6 29H24v-46" id="aX"/><path d="M52-115c0 93 80 130 150 87l7-35h11l-1 55c-23 7-52 12-83 12C60 4 19-37 15-115c-5-113 97-141 201-114l1 51h-12l-5-30c-15-9-39-16-62-16-66 0-86 41-86 109" id="aY"/><path d="M126-119c3-38-42-31-69-25v132l23 4v8H7v-8l21-4v-226l-24-4v-8h53l-1 98c31-22 99-31 99 31v109c7 3 23-1 20 12h-71v-8l22-4v-107" id="aZ"/><path d="M45-84c0 64 52 80 104 63 1 25-30 25-55 25-56 0-80-32-80-88 0-76 62-98 131-80v46h-10c-5-15-4-31-23-35-47-10-67 21-67 69" id="ba"/><path d="M60-80l68-73c-7-3-20 0-17-12h58c3 13-13 9-20 12l-47 48 60 93c7 3 21-1 18 12h-68c-3-12 9-9 15-12L82-83 60-60v48c7 3 21-1 18 12H10v-8l21-4v-226l-24-4v-8h53v170" id="bb"/><path d="M178-68c0 79-95 82-154 59v-54h12c1 35 22 52 60 52 50 0 69-58 33-82-39-24-105-21-105-85 0-67 86-66 142-53v49h-12l-6-29c-31-27-121-7-89 42 28 43 119 24 119 101" id="bc"/><path d="M124-13C89 8 26 15 26-45v-108c-8-3-24 2-21-12h50v118c-3 37 42 32 69 25v-131l-25-4v-8h54v153c8 3 24-2 21 12h-48" id="bd"/><path d="M126-118c4-37-42-32-68-25v131l24 4v8H8C5-13 21-9 28-12v-141c-7-3-23 1-20-12h48l1 13c22-15 77-30 92 2 32-22 104-36 104 29v109c8 3 24-2 21 12h-75v-8l25-4v-106c3-39-45-31-72-24 7 37 1 88 3 130l25 4v8h-78v-8l24-4v-106" id="be"/><g id="d"><use transform="matrix(0.18024691358024683,0,0,0.18024691358024683,0,0)" xlink:href="#aR"/><use transform="matrix(0.18024691358024683,0,0,0.18024691358024683,46.68395061728393,0)" xlink:href="#aS"/><use transform="matrix(0.18024691358024683,0,0,0.18024691358024683,79.12839506172836,0)" xlink:href="#aT"/><use transform="matrix(0.18024691358024683,0,0,0.18024691358024683,97.15308641975304,0)" xlink:href="#aU"/><use transform="matrix(0.18024691358024683,0,0,0.18024691358024683,125.81234567901228,0)" xlink:href="#aV"/><use transform="matrix(0.18024691358024683,0,0,0.18024691358024683,147.26172839506165,0)" xlink:href="#aW"/><use transform="matrix(0.18024691358024683,0,0,0.18024691358024683,179.70617283950608,0)" xlink:href="#aX"/><use transform="matrix(0.18024691358024683,0,0,0.18024691358024683,212.1506172839505,0)" xlink:href="#aY"/><use transform="matrix(0.18024691358024683,0,0,0.18024691358024683,255.40987654320975,0)" xlink:href="#aZ"/><use transform="matrix(0.18024691358024683,0,0,0.18024691358024683,287.8543209876542,0)" xlink:href="#aU"/><use transform="matrix(0.18024691358024683,0,0,0.18024691358024683,316.5135802469135,0)" xlink:href="#ba"/><use transform="matrix(0.18024691358024683,0,0,0.18024691358024683,345.17283950617275,0)" xlink:href="#bb"/><use transform="matrix(0.18024691358024683,0,0,0.18024691358024683,377.6172839506172,0)" xlink:href="#bc"/><use transform="matrix(0.18024691358024683,0,0,0.18024691358024683,413.6666666666666,0)" xlink:href="#bd"/><use transform="matrix(0.18024691358024683,0,0,0.18024691358024683,446.111111111111,0)" xlink:href="#be"/></g><path fill="#fff" d="M102-19l42 4-3 15H8l3-15 43-4 31-177-44 12 3-15 73-39h23" id="bf"/><g id="e"><use transform="matrix(0.09938271604938267,0,0,0.09938271604938267,0,0)" xlink:href="#bf"/><path fill="#fff" d="M-1.8 2.2H19.7v3.4H-1.8z"/></g><use transform="matrix(0.09938271604938267,0,0,0.09938271604938267,0,0)" xlink:href="#aM" id="f"/><path fill="#fff" d="M81-9v9H4v-9l26-5 81-224h33l83 224 30 5v9h-99v-9l31-5-23-68H73L49-14zm38-203L78-98h82" id="bg"/><path fill="#fff" d="M13-81c0-71 46-101 114-85l-1-72-28-4v-8h57v238c8 3 24-2 21 12h-47l-2-12C80 23 13-1 13-81zm77-74c-37 1-44 33-45 74 0 38 9 66 45 66 14 0 27-3 36-7v-130c-10-1-24-3-36-3" id="bh"/><path fill="#fff" d="M65-12l28 4v8H7v-8l28-4v-226l-28-4v-8h58v238" id="bi"/><path fill="#fff" d="M84-170c49 0 66 33 63 87H46c-8 60 38 80 95 63v10C128-2 108 4 88 4 34 4 14-29 14-84c-1-54 22-86 70-86zm33 73c12-57-57-82-69-24-1 7-2 15-2 24h71" id="bj"/><path fill="#fff" d="M104-123c39 3 61 21 62 59C167 7 83 12 19-4l-2-50h12c2 29 16 43 51 43 38 0 54-19 54-55 2-43-34-49-75-50v-14c37 0 64-7 64-48 0-47-47-56-81-36l-6 29H24v-46c51-13 135-13 131 51-2 34-20 52-51 57" id="bk"/><path fill="#fff" d="M24-231c66-21 156 2 128 81C132-92 78-66 39-27h121V0H16v-26l59-54c26-25 47-47 47-97 0-48-47-57-81-37l-6 29H24v-46" id="bl"/><path fill="#fff" d="M52-115c0 93 80 130 150 87l7-35h11l-1 55c-23 7-52 12-83 12C60 4 19-37 15-115c-5-113 97-141 201-114l1 51h-12l-5-30c-15-9-39-16-62-16-66 0-86 41-86 109" id="bm"/><path fill="#fff" d="M126-119c3-38-42-31-69-25v132l23 4v8H7v-8l21-4v-226l-24-4v-8h53l-1 98c31-22 99-31 99 31v109c7 3 23-1 20 12h-71v-8l22-4v-107" id="bn"/><path fill="#fff" d="M45-84c0 64 52 80 104 63 1 25-30 25-55 25-56 0-80-32-80-88 0-76 62-98 131-80v46h-10c-5-15-4-31-23-35-47-10-67 21-67 69" id="bo"/><path fill="#fff" d="M60-80l68-73c-7-3-20 0-17-12h58c3 13-13 9-20 12l-47 48 60 93c7 3 21-1 18 12h-68c-3-12 9-9 15-12L82-83 60-60v48c7 3 21-1 18 12H10v-8l21-4v-226l-24-4v-8h53v170" id="bp"/><path fill="#fff" d="M124-13C89 8 26 15 26-45v-108c-8-3-24 2-21-12h50v118c-3 37 42 32 69 25v-131l-25-4v-8h54v153c8 3 24-2 21 12h-48" id="bq"/><path fill="#fff" d="M126-118c4-37-42-32-68-25v131l24 4v8H8C5-13 21-9 28-12v-141c-7-3-23 1-20-12h48l1 13c22-15 77-30 92 2 32-22 104-36 104 29v109c8 3 24-2 21 12h-75v-8l25-4v-106c3-39-45-31-72-24 7 37 1 88 3 130l25 4v8h-78v-8l24-4v-106" id="br"/><g id="g"><use transform="matrix(0.09938271604938267,0,0,0.09938271604938267,0,0)" xlink:href="#bg"/><use transform="matrix(0.09938271604938267,0,0,0.09938271604938267,25.740123456790112,0)" xlink:href="#bh"/><use transform="matrix(0.09938271604938267,0,0,0.09938271604938267,43.629012345678994,0)" xlink:href="#bi"/><use transform="matrix(0.09938271604938267,0,0,0.09938271604938267,53.56728395061726,0)" xlink:href="#bj"/><use transform="matrix(0.09938271604938267,0,0,0.09938271604938267,69.3691358024691,0)" xlink:href="#aQ"/><use transform="matrix(0.09938271604938267,0,0,0.09938271604938267,81.19567901234564,0)" xlink:href="#bk"/><use transform="matrix(0.09938271604938267,0,0,0.09938271604938267,99.08456790123452,0)" xlink:href="#bl"/><use transform="matrix(0.09938271604938267,0,0,0.09938271604938267,116.97345679012341,0)" xlink:href="#bm"/><use transform="matrix(0.09938271604938267,0,0,0.09938271604938267,140.82530864197525,0)" xlink:href="#bn"/><use transform="matrix(0.09938271604938267,0,0,0.09938271604938267,158.71419753086414,0)" xlink:href="#bj"/><use transform="matrix(0.09938271604938267,0,0,0.09938271604938267,174.51604938271598,0)" xlink:href="#bo"/><use transform="matrix(0.09938271604938267,0,0,0.09938271604938267,190.3179012345678,0)" xlink:href="#bp"/><use transform="matrix(0.09938271604938267,0,0,0.09938271604938267,208.2067901234567,0)" xlink:href="#aN"/><use transform="matrix(0.09938271604938267,0,0,0.09938271604938267,228.08333333333323,0)" xlink:href="#bq"/><use transform="matrix(0.09938271604938267,0,0,0.09938271604938267,245.97222222222211,0)" xlink:href="#br"/></g><path fill="#fff" d="M108-235c-52 28-62 95-58 178 3 56 21 97 58 119v15C7 49-17-153 67-223c12-10 25-19 41-27v15" id="bs"/><path fill="#fff" d="M41-130c7 48 86 23 86 84 0 56-69 57-112 41v-40c20 0 9 29 31 31 35 19 77-26 41-50-27-18-72-13-72-59 0-50 58-52 100-41v36c-19 1-8-25-28-25-21-7-50-1-46 23" id="bt"/><path fill="#fff" d="M47-200c-23 0-25-39 0-38 13 0 18 7 20 19-1 11-8 19-20 19zM65-12l28 4v8H8v-8l28-4v-141l-24-4v-8h53v153" id="bu"/><path fill="#fff" d="M125-118c4-37-41-34-68-26v132l23 4v8H8C5-13 21-9 28-12v-141c-7-3-23 1-20-12h47l2 13c31-23 98-29 98 31v109c7 3 23-1 20 12h-72v-8l22-4v-106" id="bv"/><path fill="#fff" d="M141-152c28 39 5 97-54 97-9 0-20-2-27-3L49-35c29 22 130-14 124 52-4 45-38 57-88 61C21 83-8 26 45-2 33-6 22-15 21-31l28-31c-19-9-28-26-28-51-2-51 53-65 100-52l38-20 7 8zM85 64c35 0 61-11 61-42 0-35-57-17-89-21-9 8-16 19-17 34 0 25 19 29 45 29zM52-113c1 26 7 46 35 44 28-1 34-16 35-44 0-26-6-43-34-43s-36 17-36 43" id="bw"/><g id="h"><use transform="matrix(0.09938271604938267,0,0,0.09938271604938267,0,0)" xlink:href="#bs"/><use transform="matrix(0.09938271604938267,0,0,0.09938271604938267,11.826543209876538,0)" xlink:href="#bt"/><use transform="matrix(0.09938271604938267,0,0,0.09938271604938267,25.740123456790112,0)" xlink:href="#aO"/><use transform="matrix(0.09938271604938267,0,0,0.09938271604938267,35.67839506172838,0)" xlink:href="#aQ"/><use transform="matrix(0.09938271604938267,0,0,0.09938271604938267,47.50493827160492,0)" xlink:href="#bu"/><use transform="matrix(0.09938271604938267,0,0,0.09938271604938267,57.443209876543186,0)" xlink:href="#bv"/><use transform="matrix(0.09938271604938267,0,0,0.09938271604938267,75.33209876543206,0)" xlink:href="#bw"/></g><path fill="#fff" d="M75-17c87 13 134-18 134-103 0-78-51-106-134-100v203zm171-102C246 5 139 7 10 0v-9l31-5v-208l-31-4v-10h107c82 0 129 35 129 117" id="bx"/><path fill="#fff" d="M42-37c43 0 23 74-4 81-7 4-14 8-24 11V42c17-5 29-14 31-30C42-2 20 1 21-18c0-12 9-19 21-19" id="by"/><g id="i"><use transform="matrix(0.09938271604938267,0,0,0.09938271604938267,0,0)" xlink:href="#bt"/><use transform="matrix(0.09938271604938267,0,0,0.09938271604938267,13.913580246913574,0)" xlink:href="#bx"/><use transform="matrix(0.09938271604938267,0,0,0.09938271604938267,39.653703703703684,0)" xlink:href="#aP"/><use transform="matrix(0.09938271604938267,0,0,0.09938271604938267,55.455555555555534,0)" xlink:href="#aO"/><use transform="matrix(0.09938271604938267,0,0,0.09938271604938267,65.3938271604938,0)" xlink:href="#aP"/><use transform="matrix(0.09938271604938267,0,0,0.09938271604938267,81.19567901234565,0)" xlink:href="#by"/></g><g id="j"><use transform="matrix(0.09938271604938267,0,0,0.09938271604938267,0,0)" xlink:href="#bu"/><use transform="matrix(0.09938271604938267,0,0,0.09938271604938267,9.938271604938267,0)" xlink:href="#bv"/><use transform="matrix(0.09938271604938267,0,0,0.09938271604938267,27.827160493827147,0)" xlink:href="#aO"/></g><path fill="#fff" d="M156-12c7 3 23-1 20 12h-75v-8l22-4-38-58-45 58 23 4v8H3v-8l19-3 55-71-48-71c-7-3-23 1-20-12h75v8l-22 4 32 48 37-48-23-4v-8h59v8l-19 3-46 60" id="bz"/><g id="k"><use transform="matrix(0.09938271604938267,0,0,0.09938271604938267,0,0)" xlink:href="#bu"/><use transform="matrix(0.09938271604938267,0,0,0.09938271604938267,9.938271604938267,0)" xlink:href="#bv"/><use transform="matrix(0.09938271604938267,0,0,0.09938271604938267,27.827160493827147,0)" xlink:href="#bh"/><use transform="matrix(0.09938271604938267,0,0,0.09938271604938267,45.71604938271604,0)" xlink:href="#bj"/><use transform="matrix(0.09938271604938267,0,0,0.09938271604938267,61.51790123456787,0)" xlink:href="#bz"/></g><path fill="#fff" d="M185-92v17H18v-17h167zm0-73v18H18v-18h167" id="bA"/><use transform="matrix(0.09938271604938267,0,0,0.09938271604938267,0,0)" xlink:href="#bA" id="l"/><path fill="#fff" d="M90-239c59 0 76 52 76 120S152 4 89 4C31 4 14-51 14-119c0-67 17-120 76-120zM89-10c45-6 45-58 45-109 0-50 0-101-45-106-45 4-43 57-43 106 0 50-2 104 43 109" id="bB"/><g id="m"><use transform="matrix(0.09938271604938267,0,0,0.09938271604938267,0,0)" xlink:href="#bB"/><use transform="matrix(0.09938271604938267,0,0,0.09938271604938267,17.888888888888882,0)" xlink:href="#by"/></g><g id="n"><use transform="matrix(0.09938271604938267,0,0,0.09938271604938267,0,0)" xlink:href="#bu"/><use transform="matrix(0.09938271604938267,0,0,0.09938271604938267,9.938271604938267,0)" xlink:href="#bv"/><use transform="matrix(0.09938271604938267,0,0,0.09938271604938267,27.827160493827147,0)" xlink:href="#aO"/></g><g id="o"><use transform="matrix(0.09938271604938267,0,0,0.09938271604938267,0,0)" xlink:href="#bi"/><use transform="matrix(0.09938271604938267,0,0,0.09938271604938267,9.938271604938267,0)" xlink:href="#bj"/><use transform="matrix(0.09938271604938267,0,0,0.09938271604938267,25.740123456790112,0)" xlink:href="#bv"/><use transform="matrix(0.09938271604938267,0,0,0.09938271604938267,43.629012345678994,0)" xlink:href="#bw"/><use transform="matrix(0.09938271604938267,0,0,0.09938271604938267,61.51790123456787,0)" xlink:href="#aO"/><use transform="matrix(0.09938271604938267,0,0,0.09938271604938267,71.45617283950614,0)" xlink:href="#bn"/></g><path fill="#fff" d="M12-250C113-222 137-19 52 49 40 59 28 69 12 77V62C56 37 70-16 70-87c0-70-13-123-58-148v-15" id="bC"/><g id="p"><use transform="matrix(0.09938271604938267,0,0,0.09938271604938267,0,0)" xlink:href="#bB"/><use transform="matrix(0.09938271604938267,0,0,0.09938271604938267,17.888888888888882,0)" xlink:href="#bC"/></g><g id="q"><use transform="matrix(0.15498308228911764,0,0,0.15498308228911764,0,0)" xlink:href="#bi"/><use transform="matrix(0.15498308228911764,0,0,0.15498308228911764,15.498308228911764,0)" xlink:href="#bj"/><use transform="matrix(0.15498308228911764,0,0,0.15498308228911764,40.14061831288147,0)" xlink:href="#bv"/><use transform="matrix(0.15498308228911764,0,0,0.15498308228911764,68.03757312492264,0)" xlink:href="#bw"/><use transform="matrix(0.15498308228911764,0,0,0.15498308228911764,95.93452793696382,0)" xlink:href="#aO"/><use transform="matrix(0.15498308228911764,0,0,0.15498308228911764,111.43283616587559,0)" xlink:href="#bn"/></g><path fill="#fff" d="M18-115v-9l167-82v18L43-120l142 69v18" id="bD"/><use transform="matrix(0.15498308228911764,0,0,0.15498308228911764,0,0)" xlink:href="#bD" id="r"/><path fill="#fff" d="M110-14l48 5v9H32v-9l48-5v-192l-48 17v-10l69-39h9v224" id="bE"/><use transform="matrix(0.15498308228911764,0,0,0.15498308228911764,0,0)" xlink:href="#bE" id="s"/><path fill="#333" d="M54 0v-13l38-5v-199l-66 3-4 44H6v-66h229v66h-17l-4-44c-17-2-44-3-67-3v199l38 5V0H54" id="bF"/><path fill="#333" d="M132-132c-21 0-37 9-50 16v100l26 4V0H10v-12l21-4v-133l-21-5v-11h69l2 34c17-18 35-41 71-40v61c-17 3-14-14-20-22" id="bG"/><path fill="#333" d="M73-51c-3 31 27 38 51 25v-123l-16-5v-11h66v149l17 4V0h-65l-2-14C94 9 22 18 22-44v-105l-17-5v-11h68v114" id="bH"/><path fill="#333" d="M12-83c0-55 22-85 75-86 52-1 66 33 63 88H64c-1 37 6 64 44 63 14 0 28-4 39-6 3 28-28 25-55 27-57 4-80-31-80-86zm90-17c2-26 0-63-27-48-10 9-11 28-11 48h38" id="bI"/><g id="t"><use transform="matrix(0.0987654320987654,0,0,0.0987654320987654,0,0)" xlink:href="#bF"/><use transform="matrix(0.0987654320987654,0,0,0.0987654320987654,21.03703703703703,0)" xlink:href="#bG"/><use transform="matrix(0.0987654320987654,0,0,0.0987654320987654,36.74074074074073,0)" xlink:href="#bH"/><use transform="matrix(0.0987654320987654,0,0,0.0987654320987654,56.49382716049381,0)" xlink:href="#bI"/></g><path fill="#333" d="M92-101v83l39 5V0H8v-13l28-5v-200l-30-5v-13h197v64h-17l-5-42c-27-3-59-2-89-2v96h57l6-30h15v80h-15l-6-31H92" id="bJ"/><path fill="#333" d="M31-163c51-5 127-20 127 40v107l17 4V0h-61l-4-13C82 13 12 12 12-46c0-51 46-52 95-53 9-45-22-69-57-44l-7 20H31v-40zM62-47c0 30 26 34 45 23v-59c-28 0-45 6-45 36" id="bK"/><path fill="#333" d="M76-16l18 4V0H7v-12l18-4v-218l-17-4v-12h68v234" id="bL"/><path fill="#333" d="M102-142c-14-17-68-15-54 18 24 26 83 17 83 72 0 62-72 62-120 47v-45h12c4 23 16 37 43 37 35 0 39-37 9-46-31-9-65-19-64-61 0-52 59-55 108-45v43h-11" id="bM"/><g id="u"><use transform="matrix(0.0987654320987654,0,0,0.0987654320987654,0,0)" xlink:href="#bJ"/><use transform="matrix(0.0987654320987654,0,0,0.0987654320987654,21.629629629629623,0)" xlink:href="#bK"/><use transform="matrix(0.0987654320987654,0,0,0.0987654320987654,39.40740740740739,0)" xlink:href="#bL"/><use transform="matrix(0.0987654320987654,0,0,0.0987654320987654,49.28395061728393,0)" xlink:href="#bM"/><use transform="matrix(0.0987654320987654,0,0,0.0987654320987654,63.11111111111109,0)" xlink:href="#bI"/></g><path fill="#fff" d="M45-168H29l12-68h151l-3 14L61 0H15l136-200H58" id="bN"/><g id="v"><use transform="matrix(0.13580246913580238,0,0,0.13580246913580238,0,0)" xlink:href="#bN"/><path fill="#fff" d="M-2.44 3H26.9v4.66H-2.45z"/></g><path fill="#fff" d="M10-9l31-5v-208l-31-4v-10h177v57h-11l-6-38c-28-4-63-3-95-3v92h63l6-28h11v73h-11l-6-29H75v96l105-3 10-43h12l-3 62H10v-9" id="bO"/><g id="w"><use transform="matrix(0.13580246913580238,0,0,0.13580246913580238,0,0)" xlink:href="#bO"/><use transform="matrix(0.13580246913580238,0,0,0.13580246913580238,29.74074074074072,0)" xlink:href="#bv"/><use transform="matrix(0.13580246913580238,0,0,0.13580246913580238,54.18518518518515,0)" xlink:href="#bh"/></g><path fill="#fff" d="M172-188c0 86-82 110-138 152h118l-7 36H-4l5-33c49-43 111-74 122-151 5-36-37-45-60-27l-13 34H35l9-54c50-12 128-14 128 43" id="bP"/><g id="x"><use transform="matrix(0.12802436037467296,0,0,0.12802436037467296,0,0)" xlink:href="#bP"/><path fill="#fff" d="M-2.3 2.84h27.65v4.4H-2.3z"/></g><use transform="matrix(0.12802436037467296,0,0,0.12802436037467296,0,0)" xlink:href="#aM" id="y"/><g id="z"><use transform="matrix(0.12802436037467296,0,0,0.12802436037467296,0,0)" xlink:href="#bi"/><use transform="matrix(0.12802436037467296,0,0,0.12802436037467296,12.802436037467297,0)" xlink:href="#bj"/><use transform="matrix(0.12802436037467296,0,0,0.12802436037467296,33.1583093370403,0)" xlink:href="#bv"/><use transform="matrix(0.12802436037467296,0,0,0.12802436037467296,56.20269420448143,0)" xlink:href="#bw"/><use transform="matrix(0.12802436037467296,0,0,0.12802436037467296,79.24707907192257,0)" xlink:href="#aO"/><use transform="matrix(0.12802436037467296,0,0,0.12802436037467296,92.04951510938987,0)" xlink:href="#bn"/></g><use transform="matrix(0.12802436037467296,0,0,0.12802436037467296,0,0)" xlink:href="#bA" id="A"/><path fill="#fff" d="M45-37c13 0 21 8 21 21C67-2 57 4 45 5 33 4 23-2 24-16c0-13 8-21 21-21" id="bQ"/><path fill="#fff" d="M111-226l-36 4v207c33-1 73 2 101-4l11-49h11l-3 68H10v-9l31-5v-208l-31-4v-10h101v10" id="bR"/><g id="B"><use transform="matrix(0.12802436037467296,0,0,0.12802436037467296,0,0)" xlink:href="#bt"/><use transform="matrix(0.12802436037467296,0,0,0.12802436037467296,17.923410452454213,0)" xlink:href="#bx"/><use transform="matrix(0.12802436037467296,0,0,0.12802436037467296,51.081719789494514,0)" xlink:href="#aP"/><use transform="matrix(0.12802436037467296,0,0,0.12802436037467296,71.43759308906752,0)" xlink:href="#aO"/><use transform="matrix(0.12802436037467296,0,0,0.12802436037467296,84.24002912653482,0)" xlink:href="#aP"/><use transform="matrix(0.12802436037467296,0,0,0.12802436037467296,104.59590242610783,0)" xlink:href="#bQ"/><use transform="matrix(0.12802436037467296,0,0,0.12802436037467296,116.11809485982839,0)" xlink:href="#bR"/><use transform="matrix(0.12802436037467296,0,0,0.12802436037467296,144.15542978188176,0)" xlink:href="#bj"/><use transform="matrix(0.12802436037467296,0,0,0.12802436037467296,164.51130308145477,0)" xlink:href="#bv"/><use transform="matrix(0.12802436037467296,0,0,0.12802436037467296,187.5556879488959,0)" xlink:href="#bw"/><use transform="matrix(0.12802436037467296,0,0,0.12802436037467296,210.60007281633702,0)" xlink:href="#aO"/><use transform="matrix(0.12802436037467296,0,0,0.12802436037467296,223.4025088538043,0)" xlink:href="#bn"/></g><path fill="#fff" d="M18 4H0l83-241h17" id="bS"/><use transform="matrix(0.12802436037467296,0,0,0.12802436037467296,0,0)" xlink:href="#bS" id="C"/><use transform="matrix(0.12802436037467296,0,0,0.12802436037467296,0,0)" xlink:href="#bl" id="D"/><g id="E"><use transform="matrix(0.16172839506172815,0,0,0.16172839506172815,0,0)" xlink:href="#bu"/><use transform="matrix(0.16172839506172815,0,0,0.16172839506172815,16.172839506172814,0)" xlink:href="#bv"/><use transform="matrix(0.16172839506172815,0,0,0.16172839506172815,45.28395061728388,0)" xlink:href="#bh"/><use transform="matrix(0.16172839506172815,0,0,0.16172839506172815,74.39506172839495,0)" xlink:href="#bj"/><use transform="matrix(0.16172839506172815,0,0,0.16172839506172815,100.10987654320972,0)" xlink:href="#bz"/></g><use transform="matrix(0.16172839506172815,0,0,0.16172839506172815,0,0)" xlink:href="#bD" id="F"/><use transform="matrix(0.16172839506172815,0,0,0.16172839506172815,0,0)" xlink:href="#bB" id="G"/><path fill="#fff" d="M159-70C162 6 60 13-3-4l8-57h16c0 27 2 50 38 47 45 5 65-51 43-85-8-12-27-13-46-13l4-22c39 1 61-12 61-51 0-35-38-44-59-26l-13 34H33l10-54c48-11 127-16 127 44 0 41-24 57-59 64 28 5 47 21 48 53" id="bT"/><g id="H"><use transform="matrix(0.14470138497211255,0,0,0.14470138497211255,0,0)" xlink:href="#bT"/><path fill="#fff" d="M-2.6 3.2h31.26v4.96H-2.6z"/></g><use transform="matrix(0.14470138497211255,0,0,0.14470138497211255,0,0)" xlink:href="#aM" id="I"/><g id="J"><use transform="matrix(0.14470138497211255,0,0,0.14470138497211255,0,0)" xlink:href="#bu"/><use transform="matrix(0.14470138497211255,0,0,0.14470138497211255,14.470138497211254,0)" xlink:href="#bv"/><use transform="matrix(0.14470138497211255,0,0,0.14470138497211255,40.516387792191516,0)" xlink:href="#bh"/><use transform="matrix(0.14470138497211255,0,0,0.14470138497211255,66.56263708717177,0)" xlink:href="#bj"/><use transform="matrix(0.14470138497211255,0,0,0.14470138497211255,89.57015729773767,0)" xlink:href="#bz"/></g><use transform="matrix(0.14470138497211255,0,0,0.14470138497211255,0,0)" xlink:href="#bA" id="K"/><use transform="matrix(0.14470138497211255,0,0,0.14470138497211255,0,0)" xlink:href="#bB" id="L"/><path fill="#fff" d="M136-48l-9 48H84l8-48H-6l5-27 134-162h36L142-81h27l-6 33h-27zM98-81l22-108L30-81h68" id="bU"/><g id="M"><use transform="matrix(0.13418220168785608,0,0,0.13418220168785608,0,0)" xlink:href="#bU"/><path fill="#fff" d="M-2.42 2.97h28.98v4.6H-2.42z"/></g><use transform="matrix(0.13418220168785608,0,0,0.13418220168785608,0,0)" xlink:href="#aM" id="N"/><g id="O"><use transform="matrix(0.13418220168785608,0,0,0.13418220168785608,0,0)" xlink:href="#bq"/><use transform="matrix(0.13418220168785608,0,0,0.13418220168785608,24.152796303814092,0)" xlink:href="#bu"/><use transform="matrix(0.13418220168785608,0,0,0.13418220168785608,37.5710164725997,0)" xlink:href="#bv"/><use transform="matrix(0.13418220168785608,0,0,0.13418220168785608,61.723812776413794,0)" xlink:href="#aO"/></g><path fill="#fff" d="M53-14c58 12 82-15 82-73 0-52-35-77-82-58v131zM89 4C64 4 42-2 24-9v-229l-24-4v-8h53l-1 94c48-33 114-4 114 69 0 57-23 91-77 91" id="bV"/><path fill="#fff" d="M103-236c-39-15-35 32-34 71h44v15H69v136l35 6v8H15v-8l25-6v-136H11v-9l29-7c-6-59 23-100 80-84v36c-15 2-12-14-17-22" id="bW"/><g id="P"><use transform="matrix(0.13418220168785608,0,0,0.13418220168785608,0,0)" xlink:href="#bV"/><use transform="matrix(0.13418220168785608,0,0,0.13418220168785608,24.152796303814092,0)" xlink:href="#bq"/><use transform="matrix(0.13418220168785608,0,0,0.13418220168785608,48.305592607628185,0)" xlink:href="#bW"/></g><use transform="matrix(0.13418220168785608,0,0,0.13418220168785608,0,0)" xlink:href="#bA" id="Q"/><use transform="matrix(0.13418220168785608,0,0,0.13418220168785608,0,0)" xlink:href="#bE" id="R"/><g id="S"><use transform="matrix(0.13418220168785608,0,0,0.13418220168785608,0,0)" xlink:href="#bq"/><use transform="matrix(0.13418220168785608,0,0,0.13418220168785608,24.152796303814092,0)" xlink:href="#bu"/><use transform="matrix(0.13418220168785608,0,0,0.13418220168785608,37.5710164725997,0)" xlink:href="#bv"/><use transform="matrix(0.13418220168785608,0,0,0.13418220168785608,61.723812776413794,0)" xlink:href="#aO"/></g><g id="T"><use transform="matrix(0.13418220168785608,0,0,0.13418220168785608,0,0)" xlink:href="#aQ"/><use transform="matrix(0.13418220168785608,0,0,0.13418220168785608,15.967682000854873,0)" xlink:href="#bj"/><use transform="matrix(0.13418220168785608,0,0,0.13418220168785608,37.30265206922399,0)" xlink:href="#bt"/></g><use transform="matrix(0.13418220168785608,0,0,0.13418220168785608,0,0)" xlink:href="#bB" id="U"/><path fill="#fff" d="M164-154L98 4H85L17-153c-7-3-20 0-17-12h77v8l-26 4L99-38l46-115-26-4v-8h61v8" id="bX"/><g id="V"><use transform="matrix(0.13418220168785608,0,0,0.13418220168785608,0,0)" xlink:href="#bX"/><use transform="matrix(0.13418220168785608,0,0,0.13418220168785608,24.152796303814092,0)" xlink:href="#aP"/><use transform="matrix(0.13418220168785608,0,0,0.13418220168785608,45.48776637218321,0)" xlink:href="#aQ"/></g><g id="W"><use transform="matrix(0.13418220168785608,0,0,0.13418220168785608,0,0)" xlink:href="#bh"/><use transform="matrix(0.13418220168785608,0,0,0.13418220168785608,24.152796303814092,0)" xlink:href="#aP"/><use transform="matrix(0.13418220168785608,0,0,0.13418220168785608,45.48776637218321,0)" xlink:href="#aO"/><use transform="matrix(0.13418220168785608,0,0,0.13418220168785608,58.90598654096882,0)" xlink:href="#aP"/></g><use transform="matrix(0.13418220168785608,0,0,0.13418220168785608,0,0)" xlink:href="#bA" id="X"/><g id="Y"><use transform="matrix(0.13418220168785608,0,0,0.13418220168785608,0,0)" xlink:href="#bt"/><use transform="matrix(0.13418220168785608,0,0,0.13418220168785608,18.78550823629985,0)" xlink:href="#bx"/><use transform="matrix(0.13418220168785608,0,0,0.13418220168785608,53.53869847345457,0)" xlink:href="#aP"/><use transform="matrix(0.13418220168785608,0,0,0.13418220168785608,74.87366854182369,0)" xlink:href="#aO"/><use transform="matrix(0.13418220168785608,0,0,0.13418220168785608,88.2918887106093,0)" xlink:href="#aP"/><use transform="matrix(0.13418220168785608,0,0,0.13418220168785608,109.62685877897842,0)" xlink:href="#bQ"/><use transform="matrix(0.13418220168785608,0,0,0.13418220168785608,121.70325693088546,0)" xlink:href="#aN"/><use transform="matrix(0.13418220168785608,0,0,0.13418220168785608,148.53969726845668,0)" xlink:href="#bj"/><use transform="matrix(0.13418220168785608,0,0,0.13418220168785608,169.87466733682575,0)" xlink:href="#bi"/><use transform="matrix(0.13418220168785608,0,0,0.13418220168785608,183.2928875056114,0)" xlink:href="#bj"/><use transform="matrix(0.13418220168785608,0,0,0.13418220168785608,204.62785757398052,0)" xlink:href="#bo"/><use transform="matrix(0.13418220168785608,0,0,0.13418220168785608,225.96282764234962,0)" xlink:href="#aO"/></g><path fill="#fff" d="M90-170c52 0 76 32 76 87 0 54-24 87-77 87-51 0-75-34-75-87 0-54 24-87 76-87zM89-10c39 0 46-35 46-73 0-39-7-73-46-73-39 1-44 34-44 73s6 72 44 73" id="bY"/><path fill="#fff" d="M55 0v-9l38-5v-207c-22 1-53 0-70 4l-5 37H7v-56h207v56h-12l-5-37-70-3v206l37 5v9H55" id="bZ"/><path fill="#fff" d="M75-131c50 2 93 3 93-48 0-46-48-41-93-41v89zm0 115c55 4 111 6 111-51 0-53-58-48-111-48v99zm148-52C223 24 102-3 10 0v-9l31-5v-208l-31-4v-10c77 6 193-24 194 56 0 33-20 48-48 54 36 5 67 20 67 58" id="ca"/><path fill="#fff" d="M161-154L85 37C75 66 49 86 8 75V39c18-2 6 24 29 21 30-4 38-32 47-58L21-153c-7-3-20 0-17-12h77v8l-26 4 45 116 43-116-26-4v-8h62v8" id="cb"/><g id="Z"><use transform="matrix(0.13418220168785608,0,0,0.13418220168785608,0,0)" xlink:href="#bs"/><use transform="matrix(0.13418220168785608,0,0,0.13418220168785608,15.967682000854873,0)" xlink:href="#bm"/><use transform="matrix(0.13418220168785608,0,0,0.13418220168785608,48.17141040594032,0)" xlink:href="#bY"/><use transform="matrix(0.13418220168785608,0,0,0.13418220168785608,72.32420670975442,0)" xlink:href="#bv"/><use transform="matrix(0.13418220168785608,0,0,0.13418220168785608,96.47700301356852,0)" xlink:href="#bX"/><use transform="matrix(0.13418220168785608,0,0,0.13418220168785608,120.6297993173826,0)" xlink:href="#bj"/><use transform="matrix(0.13418220168785608,0,0,0.13418220168785608,141.9647693857517,0)" xlink:href="#aQ"/><use transform="matrix(0.13418220168785608,0,0,0.13418220168785608,157.93245138660657,0)" xlink:href="#aO"/><use transform="matrix(0.13418220168785608,0,0,0.13418220168785608,171.35067155539218,0)" xlink:href="#bQ"/><use transform="matrix(0.13418220168785608,0,0,0.13418220168785608,183.42706970729924,0)" xlink:href="#bZ"/><use transform="matrix(0.13418220168785608,0,0,0.13418220168785608,209.4584168347433,0)" xlink:href="#bY"/><use transform="matrix(0.13418220168785608,0,0,0.13418220168785608,233.6112131385574,0)" xlink:href="#ca"/><use transform="matrix(0.13418220168785608,0,0,0.13418220168785608,265.8149415436428,0)" xlink:href="#cb"/><use transform="matrix(0.13418220168785608,0,0,0.13418220168785608,289.96773784745693,0)" xlink:href="#aO"/><use transform="matrix(0.13418220168785608,0,0,0.13418220168785608,303.3859580162425,0)" xlink:href="#bj"/><use transform="matrix(0.13418220168785608,0,0,0.13418220168785608,324.7209280846116,0)" xlink:href="#bC"/><use transform="matrix(0.13418220168785608,0,0,0.13418220168785608,340.6886100854665,0)" xlink:href="#bQ"/></g><g id="aa"><use transform="matrix(0.13418220168785608,0,0,0.13418220168785608,0,0)" xlink:href="#bZ"/><use transform="matrix(0.13418220168785608,0,0,0.13418220168785608,26.03134712744408,0)" xlink:href="#bY"/><use transform="matrix(0.13418220168785608,0,0,0.13418220168785608,50.18414343125817,0)" xlink:href="#bg"/><use transform="matrix(0.13418220168785608,0,0,0.13418220168785608,84.93733366841288,0)" xlink:href="#aQ"/><use transform="matrix(0.13418220168785608,0,0,0.13418220168785608,100.90501566926777,0)" xlink:href="#aQ"/><use transform="matrix(0.13418220168785608,0,0,0.13418220168785608,116.87269767012265,0)" xlink:href="#aP"/><use transform="matrix(0.13418220168785608,0,0,0.13418220168785608,138.20766773849175,0)" xlink:href="#cb"/><use transform="matrix(0.13418220168785608,0,0,0.13418220168785608,162.36046404230584,0)" xlink:href="#bs"/><use transform="matrix(0.13418220168785608,0,0,0.13418220168785608,178.3281460431607,0)" xlink:href="#bC"/></g><path fill="#fff" d="M54-136c50-13 106 1 106 57C160 0 75 15 4-4l8-57h16c3 17-4 43 16 44 43 12 68-18 68-61s-34-50-68-36H28l21-122h122l-7 36H65" id="cc"/><g id="ab"><use transform="matrix(0.10357696738469774,0,0,0.10357696738469774,0,0)" xlink:href="#cc"/><path fill="#fff" d="M-1.86 2.3H20.5v3.54H-1.85z"/></g><use transform="matrix(0.10357696738469774,0,0,0.10357696738469774,0,0)" xlink:href="#aM" id="ac"/><g id="ad"><use transform="matrix(0.10357696738469774,0,0,0.10357696738469774,0,0)" xlink:href="#bW"/><use transform="matrix(0.10357696738469774,0,0,0.10357696738469774,12.325659118779031,0)" xlink:href="#bY"/><use transform="matrix(0.10357696738469774,0,0,0.10357696738469774,30.969513248024622,0)" xlink:href="#aQ"/></g><g id="ae"><use transform="matrix(0.10357696738469774,0,0,0.10357696738469774,0,0)" xlink:href="#bs"/><use transform="matrix(0.10357696738469774,0,0,0.10357696738469774,12.325659118779031,0)" xlink:href="#bX"/><use transform="matrix(0.10357696738469774,0,0,0.10357696738469774,30.969513248024622,0)" xlink:href="#aP"/><use transform="matrix(0.10357696738469774,0,0,0.10357696738469774,47.43825106219157,0)" xlink:href="#aQ"/></g><use transform="matrix(0.10357696738469774,0,0,0.10357696738469774,0,0)" xlink:href="#bu" id="af"/><use transform="matrix(0.10357696738469774,0,0,0.10357696738469774,0,0)" xlink:href="#bA" id="ag"/><path fill="#fff" d="M50-169c12 0 21 9 21 21 0 13-9 22-21 22-13 0-22-9-22-22 0-12 9-21 22-21zM47-37c42 4 24 74-3 81-7 4-15 8-25 11V42c22-4 44-32 19-42-18-7-14-39 9-37" id="cd"/><g id="ah"><use transform="matrix(0.10357696738469774,0,0,0.10357696738469774,0,0)" xlink:href="#bu"/><use transform="matrix(0.10357696738469774,0,0,0.10357696738469774,10.357696738469773,0)" xlink:href="#bv"/><use transform="matrix(0.10357696738469774,0,0,0.10357696738469774,29.001550867715366,0)" xlink:href="#bh"/><use transform="matrix(0.10357696738469774,0,0,0.10357696738469774,47.64540499696096,0)" xlink:href="#bj"/><use transform="matrix(0.10357696738469774,0,0,0.10357696738469774,64.1141428111279,0)" xlink:href="#bz"/><use transform="matrix(0.10357696738469774,0,0,0.10357696738469774,82.7579969403735,0)" xlink:href="#cd"/></g><g id="ai"><use transform="matrix(0.10357696738469774,0,0,0.10357696738469774,0,0)" xlink:href="#bi"/><use transform="matrix(0.10357696738469774,0,0,0.10357696738469774,10.357696738469773,0)" xlink:href="#bj"/><use transform="matrix(0.10357696738469774,0,0,0.10357696738469774,26.826434552636716,0)" xlink:href="#bv"/><use transform="matrix(0.10357696738469774,0,0,0.10357696738469774,45.47028868188231,0)" xlink:href="#bw"/><use transform="matrix(0.10357696738469774,0,0,0.10357696738469774,64.1141428111279,0)" xlink:href="#aO"/><use transform="matrix(0.10357696738469774,0,0,0.10357696738469774,74.47183954959768,0)" xlink:href="#bn"/></g><path fill="#fff" d="M18-33v-18l142-69-142-68v-18l168 82v9" id="ce"/><use transform="matrix(0.10357696738469774,0,0,0.10357696738469774,0,0)" xlink:href="#ce" id="aj"/><g id="ak"><use transform="matrix(0.10357696738469774,0,0,0.10357696738469774,0,0)" xlink:href="#bB"/><use transform="matrix(0.10357696738469774,0,0,0.10357696738469774,18.643854129245593,0)" xlink:href="#cd"/></g><path fill="#fff" d="M111-111v75H92v-75H18v-17h74v-75h19v75h74v17h-74" id="cf"/><g id="al"><use transform="matrix(0.10357696738469774,0,0,0.10357696738469774,0,0)" xlink:href="#bu"/><use transform="matrix(0.10357696738469774,0,0,0.10357696738469774,10.357696738469773,0)" xlink:href="#cf"/><use transform="matrix(0.10357696738469774,0,0,0.10357696738469774,31.383821117563414,0)" xlink:href="#cf"/><use transform="matrix(0.10357696738469774,0,0,0.10357696738469774,52.40994549665706,0)" xlink:href="#by"/></g><g id="am"><use transform="matrix(0.10357696738469774,0,0,0.10357696738469774,0,0)" xlink:href="#bi"/><use transform="matrix(0.10357696738469774,0,0,0.10357696738469774,10.357696738469773,0)" xlink:href="#bj"/><use transform="matrix(0.10357696738469774,0,0,0.10357696738469774,26.826434552636716,0)" xlink:href="#bv"/><use transform="matrix(0.10357696738469774,0,0,0.10357696738469774,45.47028868188231,0)" xlink:href="#bw"/><use transform="matrix(0.10357696738469774,0,0,0.10357696738469774,64.1141428111279,0)" xlink:href="#aO"/><use transform="matrix(0.10357696738469774,0,0,0.10357696738469774,74.47183954959768,0)" xlink:href="#bn"/><use transform="matrix(0.10357696738469774,0,0,0.10357696738469774,93.11569367884327,0)" xlink:href="#aM"/><use transform="matrix(0.10357696738469774,0,0,0.10357696738469774,105.4413527976223,0)" xlink:href="#aM"/><use transform="matrix(0.10357696738469774,0,0,0.10357696738469774,117.76701191640133,0)" xlink:href="#bC"/></g><path fill="#fff" d="M66-102c72 12-10 150 74 142v8C95 52 70 37 70-4c0-44 8-96-37-93v-8c76 4-3-150 83-145h24v8c-80-15-2 128-74 140" id="cg"/><use transform="matrix(0.10357696738469774,0,0,0.10357696738469774,0,0)" xlink:href="#cg" id="an"/><g id="ao"><use transform="matrix(0.10357696738469774,0,0,0.10357696738469774,0,0)" xlink:href="#bV"/><use transform="matrix(0.10357696738469774,0,0,0.10357696738469774,18.643854129245593,0)" xlink:href="#bq"/><use transform="matrix(0.10357696738469774,0,0,0.10357696738469774,37.287708258491186,0)" xlink:href="#bW"/></g><g id="ap"><use transform="matrix(0.10357696738469774,0,0,0.10357696738469774,0,0)" xlink:href="#bs"/><use transform="matrix(0.10357696738469774,0,0,0.10357696738469774,12.325659118779031,0)" xlink:href="#bV"/><use transform="matrix(0.10357696738469774,0,0,0.10357696738469774,30.969513248024622,0)" xlink:href="#bq"/><use transform="matrix(0.10357696738469774,0,0,0.10357696738469774,49.61336737727022,0)" xlink:href="#bW"/></g><use transform="matrix(0.10357696738469774,0,0,0.10357696738469774,0,0)" xlink:href="#cf" id="aq"/><path fill="#fff" d="M27 48v-298h80v8l-52 8V33l52 7v8H27" id="ch"/><path fill="#fff" d="M13 48v-8l52-7v-267l-52-8v-8h80V48H13" id="ci"/><g id="ar"><use transform="matrix(0.10357696738469774,0,0,0.10357696738469774,0,0)" xlink:href="#bh"/><use transform="matrix(0.10357696738469774,0,0,0.10357696738469774,18.643854129245593,0)" xlink:href="#aP"/><use transform="matrix(0.10357696738469774,0,0,0.10357696738469774,35.11259194341253,0)" xlink:href="#aO"/><use transform="matrix(0.10357696738469774,0,0,0.10357696738469774,45.47028868188231,0)" xlink:href="#aP"/><use transform="matrix(0.10357696738469774,0,0,0.10357696738469774,61.939026496049244,0)" xlink:href="#ch"/><use transform="matrix(0.10357696738469774,0,0,0.10357696738469774,74.26468561482828,0)" xlink:href="#bu"/><use transform="matrix(0.10357696738469774,0,0,0.10357696738469774,84.62238235329805,0)" xlink:href="#ci"/><use transform="matrix(0.10357696738469774,0,0,0.10357696738469774,96.94804147207708,0)" xlink:href="#bC"/></g><path fill="#fff" d="M77 4H58l167-243h19zm-7-243c39 0 57 24 57 64 0 41-16 65-58 65-41 0-57-24-57-65s17-64 58-64zm-1 117c26 0 30-24 30-53 0-28-3-51-30-51s-29 24-29 51c0 28 2 53 29 53zm162-3c39 0 57 24 57 64 0 42-17 66-58 66-40 0-57-25-57-66s17-64 58-64zM230-8c26 0 30-24 30-53 0-28-3-51-30-51s-29 24-29 51c0 28 3 53 29 53" id="cj"/><use transform="matrix(0.10357696738469774,0,0,0.10357696738469774,0,0)" xlink:href="#cj" id="as"/><path fill="#fff" d="M-3 46V28h186v18H-3" id="ck"/><g id="at"><use transform="matrix(0.10357696738469774,0,0,0.10357696738469774,0,0)" xlink:href="#ck"/><use transform="matrix(0.10357696738469774,0,0,0.10357696738469774,18.643854129245593,0)" xlink:href="#br"/><use transform="matrix(0.10357696738469774,0,0,0.10357696738469774,47.64540499696096,0)" xlink:href="#bY"/><use transform="matrix(0.10357696738469774,0,0,0.10357696738469774,66.28925912620656,0)" xlink:href="#bh"/><use transform="matrix(0.10357696738469774,0,0,0.10357696738469774,84.93311325545216,0)" xlink:href="#bg"/><use transform="matrix(0.10357696738469774,0,0,0.10357696738469774,111.75954780808885,0)" xlink:href="#bh"/><use transform="matrix(0.10357696738469774,0,0,0.10357696738469774,130.40340193733445,0)" xlink:href="#bi"/><use transform="matrix(0.10357696738469774,0,0,0.10357696738469774,140.76109867580422,0)" xlink:href="#bj"/><use transform="matrix(0.10357696738469774,0,0,0.10357696738469774,157.22983648997115,0)" xlink:href="#aQ"/><use transform="matrix(0.10357696738469774,0,0,0.10357696738469774,169.5554956087502,0)" xlink:href="#bk"/><use transform="matrix(0.10357696738469774,0,0,0.10357696738469774,188.1993497379958,0)" xlink:href="#bl"/></g><g id="au"><use transform="matrix(0.10357696738469774,0,0,0.10357696738469774,0,0)" xlink:href="#aQ"/><use transform="matrix(0.10357696738469774,0,0,0.10357696738469774,12.325659118779031,0)" xlink:href="#bj"/><use transform="matrix(0.10357696738469774,0,0,0.10357696738469774,28.794396932945972,0)" xlink:href="#bt"/></g><g id="av"><use transform="matrix(0.10357696738469774,0,0,0.10357696738469774,0,0)" xlink:href="#bs"/><use transform="matrix(0.10357696738469774,0,0,0.10357696738469774,12.325659118779031,0)" xlink:href="#aQ"/><use transform="matrix(0.10357696738469774,0,0,0.10357696738469774,24.651318237558062,0)" xlink:href="#bj"/><use transform="matrix(0.10357696738469774,0,0,0.10357696738469774,41.120056051725,0)" xlink:href="#bt"/></g><g id="aw"><use transform="matrix(0.10357696738469774,0,0,0.10357696738469774,0,0)" xlink:href="#bV"/><use transform="matrix(0.10357696738469774,0,0,0.10357696738469774,18.643854129245593,0)" xlink:href="#bq"/><use transform="matrix(0.10357696738469774,0,0,0.10357696738469774,37.287708258491186,0)" xlink:href="#bW"/><use transform="matrix(0.10357696738469774,0,0,0.10357696738469774,49.613367377270215,0)" xlink:href="#bC"/></g><path fill="#fff" d="M102-55c0 60 3 115-69 103v-8c79 12 4-128 74-142-40-5-34-57-34-102 0-27-11-41-40-38v-8c44-4 69 10 69 52 0 43-7 95 38 93v8c-26 1-38 15-38 42" id="cl"/><use transform="matrix(0.10357696738469774,0,0,0.10357696738469774,0,0)" xlink:href="#cl" id="ax"/><path fill="#fff" d="M166-85c-4 54-31 89-85 89-48 0-69-34-69-82 0-100 58-183 168-153l-9 54h-16l-1-34c-51-29-84 31-91 81 37-24 108-15 103 45zm-47 4c2-39-29-48-59-33-2 37-10 95 25 100 28-4 32-34 34-67" id="cm"/><g id="ay"><use transform="matrix(0.11790123456790114,0,0,0.11790123456790114,0,0)" xlink:href="#cm"/><path fill="#fff" d="M-2.12 2.6h25.47v4.05H-2.12z"/></g><use transform="matrix(0.11790123456790114,0,0,0.11790123456790114,0,0)" xlink:href="#aM" id="az"/><g id="aA"><use transform="matrix(0.11790123456790114,0,0,0.11790123456790114,0,0)" xlink:href="#aQ"/><use transform="matrix(0.11790123456790114,0,0,0.11790123456790114,14.030246913580235,0)" xlink:href="#bj"/><use transform="matrix(0.11790123456790114,0,0,0.11790123456790114,32.776543209876515,0)" xlink:href="#bt"/></g><use transform="matrix(0.11790123456790114,0,0,0.11790123456790114,0,0)" xlink:href="#bA" id="aB"/><g id="aC"><use transform="matrix(0.11790123456790114,0,0,0.11790123456790114,0,0)" xlink:href="#bs"/><use transform="matrix(0.11790123456790114,0,0,0.11790123456790114,14.030246913580235,0)" xlink:href="#aQ"/><use transform="matrix(0.11790123456790114,0,0,0.11790123456790114,28.06049382716047,0)" xlink:href="#bj"/><use transform="matrix(0.11790123456790114,0,0,0.11790123456790114,46.80679012345675,0)" xlink:href="#bt"/></g><g id="aD"><use transform="matrix(0.11790123456790114,0,0,0.11790123456790114,0,0)" xlink:href="#bD"/><use transform="matrix(0.11790123456790114,0,0,0.11790123456790114,23.93395061728393,0)" xlink:href="#bD"/></g><path fill="#fff" d="M48-126c45-28 121-18 121 53 0 50-25 77-72 77-63 0-80-54-82-120-3-88 52-142 140-116v40h-12c2-42-66-39-79-8-8 20-16 43-16 74zm0 11c2 50 2 105 49 105 33 0 37-26 40-60 5-60-49-61-89-45" id="cn"/><g id="aE"><use transform="matrix(0.11790123456790114,0,0,0.11790123456790114,0,0)" xlink:href="#bE"/><use transform="matrix(0.11790123456790114,0,0,0.11790123456790114,21.222222222222204,0)" xlink:href="#cn"/><use transform="matrix(0.11790123456790114,0,0,0.11790123456790114,42.44444444444441,0)" xlink:href="#bC"/></g><path fill="#fff" d="M27 78v-328h18V78H27" id="co"/><use transform="matrix(0.11790123456790114,0,0,0.11790123456790114,0,0)" xlink:href="#co" id="aF"/><g id="aG"><use transform="matrix(0.11790123456790114,0,0,0.11790123456790114,0,0)" xlink:href="#bV"/><use transform="matrix(0.11790123456790114,0,0,0.11790123456790114,21.222222222222204,0)" xlink:href="#bq"/><use transform="matrix(0.11790123456790114,0,0,0.11790123456790114,42.44444444444441,0)" xlink:href="#bW"/></g><g id="aH"><use transform="matrix(0.11790123456790114,0,0,0.11790123456790114,0,0)" xlink:href="#aQ"/><use transform="matrix(0.11790123456790114,0,0,0.11790123456790114,14.030246913580235,0)" xlink:href="#bj"/><use transform="matrix(0.11790123456790114,0,0,0.11790123456790114,32.776543209876515,0)" xlink:href="#aO"/><use transform="matrix(0.11790123456790114,0,0,0.11790123456790114,44.56666666666663,0)" xlink:href="#bq"/><use transform="matrix(0.11790123456790114,0,0,0.11790123456790114,65.78888888888883,0)" xlink:href="#aQ"/><use transform="matrix(0.11790123456790114,0,0,0.11790123456790114,79.81913580246908,0)" xlink:href="#bv"/></g><g id="aI"><use transform="matrix(0.11790123456790114,0,0,0.11790123456790114,0,0)" xlink:href="#ca"/><use transform="matrix(0.11790123456790114,0,0,0.11790123456790114,28.296296296296273,0)" xlink:href="#bu"/><use transform="matrix(0.11790123456790114,0,0,0.11790123456790114,40.08641975308639,0)" xlink:href="#aO"/><use transform="matrix(0.11790123456790114,0,0,0.11790123456790114,51.8765432098765,0)" xlink:href="#bm"/><use transform="matrix(0.11790123456790114,0,0,0.11790123456790114,80.17283950617278,0)" xlink:href="#bY"/><use transform="matrix(0.11790123456790114,0,0,0.11790123456790114,101.39506172839498,0)" xlink:href="#bv"/><use transform="matrix(0.11790123456790114,0,0,0.11790123456790114,122.61728395061718,0)" xlink:href="#bX"/><use transform="matrix(0.11790123456790114,0,0,0.11790123456790114,143.83950617283938,0)" xlink:href="#bj"/><use transform="matrix(0.11790123456790114,0,0,0.11790123456790114,162.58580246913567,0)" xlink:href="#aQ"/><use transform="matrix(0.11790123456790114,0,0,0.11790123456790114,176.61604938271591,0)" xlink:href="#aO"/><use transform="matrix(0.11790123456790114,0,0,0.11790123456790114,188.40617283950604,0)" xlink:href="#bj"/><use transform="matrix(0.11790123456790114,0,0,0.11790123456790114,207.15246913580233,0)" xlink:href="#aQ"/><use transform="matrix(0.11790123456790114,0,0,0.11790123456790114,218.82469135802455,0)" xlink:href="#bQ"/><use transform="matrix(0.11790123456790114,0,0,0.11790123456790114,229.43580246913567,0)" xlink:href="#bZ"/><use transform="matrix(0.11790123456790114,0,0,0.11790123456790114,252.3086419753085,0)" xlink:href="#bY"/><use transform="matrix(0.11790123456790114,0,0,0.11790123456790114,273.5308641975307,0)" xlink:href="#aN"/><use transform="matrix(0.11790123456790114,0,0,0.11790123456790114,297.111111111111,0)" xlink:href="#aO"/><use transform="matrix(0.11790123456790114,0,0,0.11790123456790114,308.9012345679011,0)" xlink:href="#aQ"/><use transform="matrix(0.11790123456790114,0,0,0.11790123456790114,322.93148148148134,0)" xlink:href="#bu"/><use transform="matrix(0.11790123456790114,0,0,0.11790123456790114,334.72160493827147,0)" xlink:href="#bv"/><use transform="matrix(0.11790123456790114,0,0,0.11790123456790114,355.9438271604937,0)" xlink:href="#bw"/></g><path fill="#fff" d="M52-115c0 90 69 126 140 93v-67l-30-5v-9h87v9l-23 5v77c-27 8-56 16-90 16C59 2 15-37 15-115c-1-82 41-123 122-123 31 0 59 4 83 10v51h-12l-5-29c-15-12-38-18-65-18-66-1-86 42-86 109" id="cp"/><g id="aJ"><use transform="matrix(0.11790123456790114,0,0,0.11790123456790114,0,0)" xlink:href="#bs"/><use transform="matrix(0.11790123456790114,0,0,0.11790123456790114,14.030246913580235,0)" xlink:href="#ca"/><use transform="matrix(0.11790123456790114,0,0,0.11790123456790114,42.326543209876505,0)" xlink:href="#bu"/><use transform="matrix(0.11790123456790114,0,0,0.11790123456790114,54.11666666666662,0)" xlink:href="#aO"/><use transform="matrix(0.11790123456790114,0,0,0.11790123456790114,65.90679012345673,0)" xlink:href="#bm"/><use transform="matrix(0.11790123456790114,0,0,0.11790123456790114,94.203086419753,0)" xlink:href="#bY"/><use transform="matrix(0.11790123456790114,0,0,0.11790123456790114,115.4253086419752,0)" xlink:href="#bv"/><use transform="matrix(0.11790123456790114,0,0,0.11790123456790114,136.64753086419742,0)" xlink:href="#bX"/><use transform="matrix(0.11790123456790114,0,0,0.11790123456790114,157.86975308641962,0)" xlink:href="#bj"/><use transform="matrix(0.11790123456790114,0,0,0.11790123456790114,176.61604938271591,0)" xlink:href="#aQ"/><use transform="matrix(0.11790123456790114,0,0,0.11790123456790114,190.64629629629616,0)" xlink:href="#aO"/><use transform="matrix(0.11790123456790114,0,0,0.11790123456790114,202.43641975308628,0)" xlink:href="#bj"/><use transform="matrix(0.11790123456790114,0,0,0.11790123456790114,221.18271604938258,0)" xlink:href="#aQ"/><use transform="matrix(0.11790123456790114,0,0,0.11790123456790114,232.8549382716048,0)" xlink:href="#bQ"/><use transform="matrix(0.11790123456790114,0,0,0.11790123456790114,243.4660493827159,0)" xlink:href="#cp"/><use transform="matrix(0.11790123456790114,0,0,0.11790123456790114,274.0024691358023,0)" xlink:href="#bj"/><use transform="matrix(0.11790123456790114,0,0,0.11790123456790114,292.7487654320986,0)" xlink:href="#aO"/><use transform="matrix(0.11790123456790114,0,0,0.11790123456790114,304.5388888888887,0)" xlink:href="#ca"/><use transform="matrix(0.11790123456790114,0,0,0.11790123456790114,332.83518518518497,0)" xlink:href="#cb"/><use transform="matrix(0.11790123456790114,0,0,0.11790123456790114,354.0574074074072,0)" xlink:href="#aO"/><use transform="matrix(0.11790123456790114,0,0,0.11790123456790114,365.8475308641973,0)" xlink:href="#bj"/><use transform="matrix(0.11790123456790114,0,0,0.11790123456790114,384.5938271604936,0)" xlink:href="#bt"/><use transform="matrix(0.11790123456790114,0,0,0.11790123456790114,401.0999999999998,0)" xlink:href="#bs"/><use transform="matrix(0.11790123456790114,0,0,0.11790123456790114,415.13024691358004,0)" xlink:href="#aQ"/><use transform="matrix(0.11790123456790114,0,0,0.11790123456790114,429.1604938271603,0)" xlink:href="#bj"/><use transform="matrix(0.11790123456790114,0,0,0.11790123456790114,447.9067901234566,0)" xlink:href="#bt"/><use transform="matrix(0.11790123456790114,0,0,0.11790123456790114,464.41296296296275,0)" xlink:href="#bC"/><use transform="matrix(0.11790123456790114,0,0,0.11790123456790114,478.443209876543,0)" xlink:href="#bC"/><use transform="matrix(0.11790123456790114,0,0,0.11790123456790114,492.47345679012324,0)" xlink:href="#bQ"/></g><path fill="#fff" d="M199-173c-1 36-21 56-49 65l64 94 26 5v9h-57l-66-103H75v89l35 5v9H13v-9l28-5v-208l-31-4v-10c80 4 190-20 189 63zM75-119c50 2 89-1 89-51 0-49-39-52-89-50v101" id="cq"/><path fill="#fff" d="M166-85c3 67-44 102-111 85l1 64 29 4v9H6v-9l21-4v-217c-7-3-22 1-19-12h46l1 9c11-8 26-14 45-14 47 2 64 36 66 85zM56-13c53 14 83-14 78-72 7-53-33-79-78-60v132" id="cr"/><path fill="#fff" d="M90-236h35l-11 85h-13zm-68 0h35l-11 85H33" id="cs"/><g id="aK"><use transform="matrix(0.11790123456790114,0,0,0.11790123456790114,0,0)" xlink:href="#cq"/><use transform="matrix(0.11790123456790114,0,0,0.11790123456790114,28.296296296296273,0)" xlink:href="#bj"/><use transform="matrix(0.11790123456790114,0,0,0.11790123456790114,47.042592592592555,0)" xlink:href="#cr"/><use transform="matrix(0.11790123456790114,0,0,0.11790123456790114,68.26481481481476,0)" xlink:href="#bi"/><use transform="matrix(0.11790123456790114,0,0,0.11790123456790114,80.05493827160487,0)" xlink:href="#aP"/><use transform="matrix(0.11790123456790114,0,0,0.11790123456790114,98.80123456790115,0)" xlink:href="#bo"/><use transform="matrix(0.11790123456790114,0,0,0.11790123456790114,117.54753086419743,0)" xlink:href="#bj"/><use transform="matrix(0.11790123456790114,0,0,0.11790123456790114,136.29382716049372,0)" xlink:href="#bs"/><use transform="matrix(0.11790123456790114,0,0,0.11790123456790114,150.32407407407396,0)" xlink:href="#cs"/><use transform="matrix(0.11790123456790114,0,0,0.11790123456790114,167.53765432098754,0)" xlink:href="#aM"/><use transform="matrix(0.11790123456790114,0,0,0.11790123456790114,181.56790123456778,0)" xlink:href="#cs"/><use transform="matrix(0.11790123456790114,0,0,0.11790123456790114,198.78148148148136,0)" xlink:href="#by"/><use transform="matrix(0.11790123456790114,0,0,0.11790123456790114,209.39259259259248,0)" xlink:href="#cs"/><use transform="matrix(0.11790123456790114,0,0,0.11790123456790114,226.60617283950603,0)" xlink:href="#cs"/><use transform="matrix(0.11790123456790114,0,0,0.11790123456790114,243.8197530864196,0)" xlink:href="#bC"/></g></defs></g></svg>