<svg xmlns="http://www.w3.org/2000/svg" xmlns:xlink="http://www.w3.org/1999/xlink" xmlns:lucid="lucid" width="973.78" height="2242.52"><g transform="translate(-80 1200)" lucid:page-tab-id="0_0"><path d="M0-1258.83h1870.87v2581.66H0z" fill="#fff"/><path d="M866.23-1067.25c26.66 0 48.27 20.26 48.27 45.25 0 25-21.6 45.25-48.27 45.25h-144.8c-26.66 0-48.27-20.26-48.27-45.25 0-25 21.6-45.25 48.27-45.25z" stroke="#0c7cba" stroke-width="3" fill="#3aa6dd"/><use xlink:href="#a" transform="matrix(1,0,0,1,678.1620370370326,-1062.25) translate(36.943271604938325 49.236111111111086)"/><use xlink:href="#b" transform="matrix(1,0,0,1,678.1620370370326,-1062.25) translate(73.60993827160496 49.236111111111086)"/><use xlink:href="#c" transform="matrix(1,0,0,1,678.1620370370326,-1062.25) translate(101.99265432098767 49.236111111111086)"/><path d="M792.84-974.25v20.67" stroke="#3aa6dd" stroke-width="2" fill="none"/><path d="M793.84-974.22h-2v-1.03h2z" fill="#3aa6dd"/><path d="M792.84-938.3l-4.64-14.28h9.27z" stroke="#3aa6dd" stroke-width="2" fill="#3aa6dd"/><path d="M674.5-1174c0-3.3 2.68-6 6-6h228c3.3 0 6 2.7 6 6v83.33c0 3.32-2.7 6-6 6h-228c-3.32 0-6-2.68-6-6z" stroke="#000" stroke-opacity="0" stroke-width="3" fill="#fff" fill-opacity="0"/><use xlink:href="#d" transform="matrix(1,0,0,1,679.495370370366,-1175) translate(1.8049382716049962 57.28611111111109)"/><path d="M624.12-927.58c0-3.3 2.68-6 6-6h324c3.3 0 6 2.7 6 6v193.34c0 3.3-2.7 6-6 6h-324c-3.32 0-6-2.7-6-6z" stroke="#3aa6dd" stroke-width="3" fill="#3aa6dd"/><use xlink:href="#e" transform="matrix(1,0,0,1,636.1173007250169,-921.575) translate(15.75 30.222222222222225)"/><use xlink:href="#f" transform="matrix(1,0,0,1,636.1173007250169,-921.575) translate(44.083333333333336 30.222222222222225)"/><use xlink:href="#g" transform="matrix(1,0,0,1,636.1173007250169,-921.575) translate(66.01543209876544 30.222222222222225)"/><use xlink:href="#h" transform="matrix(1,0,0,1,636.1173007250169,-921.575) translate(1.4783950617283779 75.55555555555556)"/><use xlink:href="#i" transform="matrix(1,0,0,1,636.1173007250169,-921.575) translate(162.76851851851853 75.55555555555556)"/><use xlink:href="#j" transform="matrix(1,0,0,1,636.1173007250169,-921.575) translate(258.1574074074074 75.55555555555556)"/><use xlink:href="#k" transform="matrix(1,0,0,1,636.1173007250169,-921.575) translate(64.07407407407408 120.8888888888889)"/><use xlink:href="#l" transform="matrix(1,0,0,1,636.1173007250169,-921.575) translate(94.82098765432099 120.8888888888889)"/><use xlink:href="#m" transform="matrix(1,0,0,1,636.1173007250169,-921.575) translate(172.47530864197532 120.8888888888889)"/><use xlink:href="#n" transform="matrix(1,0,0,1,636.1173007250169,-921.575) translate(8.089506172839492 166.22222222222223)"/><use xlink:href="#k" transform="matrix(1,0,0,1,636.1173007250169,-921.575) translate(201.91049382716048 166.22222222222223)"/><use xlink:href="#o" transform="matrix(1,0,0,1,636.1173007250169,-921.575) translate(232.6574074074074 166.22222222222223)"/><path d="M793.5-725.74V-680" stroke="#3aa6dd" stroke-width="2" fill="none"/><path d="M794.5-725.72h-2v-1.02h2z" fill="#3aa6dd"/><path d="M793.5-664.74L788.87-679h9.27z" stroke="#3aa6dd" stroke-width="2" fill="#3aa6dd"/><path d="M625.5-654c0-3.3 2.7-6 6-6h324c3.32 0 6 2.7 6 6v111.95c0 3.3-2.68 6-6 6h-324c-3.3 0-6-2.7-6-6z" stroke="#3aa6dd" stroke-width="3" fill="#3aa6dd"/><use xlink:href="#p" transform="matrix(1,0,0,1,637.5031100332208,-648) translate(63.686575315261706 31.537682454572515)"/><use xlink:href="#q" transform="matrix(1,0,0,1,637.5031100332208,-648) translate(93.25315261642344 31.537682454572515)"/><use xlink:href="#r" transform="matrix(1,0,0,1,637.5031100332208,-648) translate(116.13987356435973 31.537682454572515)"/><use xlink:href="#s" transform="matrix(1,0,0,1,637.5031100332208,-648) translate(16.16103994969066 78.84420613643128)"/><use xlink:href="#t" transform="matrix(1,0,0,1,637.5031100332208,-648) translate(218.41832985800806 78.84420613643128)"/><use xlink:href="#u" transform="matrix(1,0,0,1,637.5031100332208,-648) translate(263.0967133353191 78.84420613643128)"/><path d="M788-478.36c3.2-.9 8.36-.9 11.55 0L1028-413.64c3.2.9 3.2 2.37 0 3.28l-228.45 64.72c-3.2.9-8.36.9-11.54 0l-228.45-64.72c-3.2-.9-3.2-2.37 0-3.28z" stroke="#005c8e" stroke-width="2" fill="#3aa6dd"/><use xlink:href="#v" transform="matrix(1,0,0,1,558.777777777781,-475) translate(94.40438271604943 71.73055555555555)"/><use xlink:href="#w" transform="matrix(1,0,0,1,558.777777777781,-475) translate(256.9685802469136 71.73055555555555)"/><use xlink:href="#x" transform="matrix(1,0,0,1,558.777777777781,-475) translate(312.69203703703704 71.73055555555555)"/><path d="M793.5-533.55v26.13c0 .08.06.14.14.14.08 0 .14.06.14.14v8.64" stroke="#3aa6dd" stroke-width="2" fill="none"/><path d="M794.5-533.53h-2v-1.02h2z" fill="#3aa6dd"/><path d="M793.78-483.24l-4.64-14.26h9.27z" stroke="#3aa6dd" stroke-width="2" fill="#3aa6dd"/><path d="M269 200h-2v-419.1h2zm285.4-611H274.12l-2.64.7-1.8 1.8-.7 2.63v144.1h-2v-144.36l.92-3.42 2.53-2.53 3.42-.92H554.4z" fill="#3aa6dd"/><path d="M555.4-412l1.45 1h-2.5v-2h2.5zM268 215.26L263.36 201h9.28z" fill="#3aa6dd"/><path d="M268 218.5l-6-18.5h12zm-3.26-16.5l3.26 10.03 3.26-10.03z" fill="#3aa6dd"/><use xlink:href="#y" transform="matrix(1,0,0,1,231.90123456790124,-261.7774119437062) translate(0 28.444444444444436)"/><path d="M624.12-250.08c0-3.3 2.68-6 6-6h324c3.3 0 6 2.7 6 6v144.1c0 3.32-2.7 6-6 6h-324c-3.32 0-6-2.68-6-6z" stroke="#3aa6dd" stroke-width="3" fill="#3aa6dd"/><use xlink:href="#z" transform="matrix(1,0,0,1,636.1173007250169,-244.078983564518) translate(7.076811594202837 29.35652173913044)"/><use xlink:href="#A" transform="matrix(1,0,0,1,636.1173007250169,-244.078983564518) translate(34.59855072463762 29.35652173913044)"/><use xlink:href="#B" transform="matrix(1,0,0,1,636.1173007250169,-244.078983564518) translate(55.90241545893714 29.35652173913044)"/><use xlink:href="#C" transform="matrix(1,0,0,1,636.1173007250169,-244.078983564518) translate(92.39420289855073 73.3913043478261)"/><use xlink:href="#D" transform="matrix(1,0,0,1,636.1173007250169,-244.078983564518) translate(17.881642512077292 117.42608695652176)"/><path d="M794.77-276.08h-2v-3.37h2zm0-46.04h-2V-343h2z" fill="#3aa6dd"/><path d="M794.2-343.95l.58-.08v1.06h-2v-1.13zM793.77-260.82l-4.64-14.26h9.27z" fill="#3aa6dd"/><path d="M793.77-257.58l-6-18.5h12zm-3.26-16.5l3.27 10.03 3.26-10.03z" fill="#3aa6dd"/><use xlink:href="#E" transform="matrix(1,0,0,1,754.3663285463443,-322.1215088656524) translate(0 28.444444444444436)"/><path d="M786.34-38.36c3.2-.9 8.36-.9 11.55 0l228.44 64.72c3.2.9 3.2 2.37 0 3.28L797.9 94.36c-3.2.9-8.37.9-11.56 0L557.9 29.64c-3.2-.9-3.2-2.37 0-3.28z" stroke="#005c8e" stroke-width="2" fill="#3aa6dd"/><use xlink:href="#F" transform="matrix(1,0,0,1,557.1173007250169,-35) translate(75.91851851851854 71.08888888888889)"/><path d="M791.5-97.47v38.95" stroke="#3aa6dd" stroke-width="2" fill="none"/><path d="M792.5-97.45h-2v-1.02h2z" fill="#3aa6dd"/><path d="M791.5-43.26l-4.63-14.26h9.27z" stroke="#3aa6dd" stroke-width="2" fill="#3aa6dd"/><path d="M795.5 160h-2v-4.9h2zm-2.38-47.55h-2V97h2z" fill="#3aa6dd"/><path d="M792.54 96.05l.58-.08v1.06h-2V95.9zM794.5 175.26L789.86 161h9.27z" fill="#3aa6dd"/><path d="M794.5 178.5l-6.02-18.5h12.03zm-3.26-16.5l3.26 10.03 3.25-10.03z" fill="#3aa6dd"/><g><use xlink:href="#y" transform="matrix(1,0,0,1,756.018535292918,112.44592450231245) translate(0 28.444444444444436)"/></g><path d="M626.5 186c0-3.3 2.68-6 6-6h324c3.3 0 6 2.7 6 6v226.53c0 3.3-2.7 6-6 6h-324c-3.32 0-6-2.7-6-6z" stroke="#3aa6dd" stroke-width="3" fill="#3aa6dd"/><g><use xlink:href="#G" transform="matrix(1,0,0,1,638.495370370366,192) translate(50.27556376288045 28.60369904771294)"/><use xlink:href="#H" transform="matrix(1,0,0,1,638.495370370366,192) translate(77.09153162011134 28.60369904771294)"/><use xlink:href="#I" transform="matrix(1,0,0,1,638.495370370366,192) translate(97.84907710959746 28.60369904771294)"/><use xlink:href="#J" transform="matrix(1,0,0,1,638.495370370366,192) translate(241.56280114446076 28.60369904771294)"/><use xlink:href="#K" transform="matrix(1,0,0,1,638.495370370366,192) translate(32.100296659646204 71.50924761928235)"/><use xlink:href="#L" transform="matrix(1,0,0,1,638.495370370366,192) translate(7.816947988931588 114.41479619085176)"/><use xlink:href="#M" transform="matrix(1,0,0,1,638.495370370366,192) translate(24.70107589903992 157.3203447624212)"/><use xlink:href="#N" transform="matrix(1,0,0,1,638.495370370366,192) translate(70.88413165315978 200.2258933339906)"/></g><path d="M624.12 526c0-3.3 2.68-6 6-6h324c3.3 0 6 2.7 6 6v298.54c0 3.32-2.7 6-6 6h-324c-3.32 0-6-2.68-6-6z" stroke="#3aa6dd" stroke-width="3" fill="#3aa6dd"/><g><use xlink:href="#O" transform="matrix(1,0,0,1,636.1173007250169,532) translate(82.15283571955536 32.06595569657455)"/><use xlink:href="#P" transform="matrix(1,0,0,1,636.1173007250169,532) translate(112.00124044368718 32.06595569657455)"/><use xlink:href="#Q" transform="matrix(1,0,0,1,636.1173007250169,532) translate(135.10611669310774 32.06595569657455)"/><use xlink:href="#R" transform="matrix(1,0,0,1,636.1173007250169,532) translate(75.4645820684073 79.82340325518545)"/><use xlink:href="#S" transform="matrix(1,0,0,1,636.1173007250169,532) translate(74.85655900921202 127.58085081379637)"/><use xlink:href="#T" transform="matrix(1,0,0,1,636.1173007250169,532) translate(-5.789408569507117 175.33829837240728)"/><use xlink:href="#U" transform="matrix(1,0,0,1,636.1173007250169,532) translate(58.329386763813105 223.0957459310182)"/><use xlink:href="#V" transform="matrix(1,0,0,1,636.1173007250169,532) translate(47.32969687473489 270.8531934896291)"/></g><path d="M794.5 421.03V500" stroke="#3aa6dd" stroke-width="2" fill="none"/><path d="M795.5 421.05h-2v-1.02h2z" fill="#3aa6dd"/><path d="M794.5 515.26L789.86 501h9.27z" stroke="#3aa6dd" stroke-width="2" fill="#3aa6dd"/><path d="M867.56 932.02c26.66 0 48.27 20.26 48.27 45.25 0 25-21.6 45.25-48.27 45.25h-144.8c-26.65 0-48.26-20.26-48.26-45.25 0-25 21.6-45.25 48.26-45.25z" stroke="#0c7cba" stroke-width="3" fill="#3aa6dd"/><g><use xlink:href="#W" transform="matrix(1,0,0,1,679.495370370366,937.0169424938184) translate(43.66549382716054 49.236111111111086)"/><use xlink:href="#b" transform="matrix(1,0,0,1,679.495370370366,937.0169424938184) translate(80.33216049382719 49.236111111111086)"/><use xlink:href="#X" transform="matrix(1,0,0,1,679.495370370366,937.0169424938184) translate(108.71487654320988 49.236111111111086)"/></g><path d="M795.16 833.04v78.98" stroke="#3aa6dd" stroke-width="2" fill="none"/><path d="M796.16 833.07h-2v-1.03h2z" fill="#3aa6dd"/><path d="M795.16 927.28l-4.63-14.26h9.27z" stroke="#3aa6dd" stroke-width="2" fill="#3aa6dd"/><path d="M100 226c0-3.3 2.7-6 6-6h324c3.3 0 6 2.7 6 6v108c0 3.3-2.7 6-6 6H106c-3.3 0-6-2.7-6-6z" stroke="#3aa6dd" stroke-width="3" fill="#3aa6dd"/><g><use xlink:href="#Y" transform="matrix(1,0,0,1,112,232) translate(24.75051701447641 56.48279751833052)"/><use xlink:href="#Z" transform="matrix(1,0,0,1,112,232) translate(60.48655762361347 56.48279751833052)"/><use xlink:href="#aa" transform="matrix(1,0,0,1,112,232) translate(88.14890016920474 56.48279751833052)"/><use xlink:href="#ab" transform="matrix(1,0,0,1,112,232) translate(213.489753713104 56.48279751833052)"/></g><path d="M268 342.5v628.77c0 3.3 2.7 6 6 6h380.5" stroke="#3aa6dd" stroke-width="2" fill="none"/><path d="M269 342.53h-2v-1.03h2z" fill="#3aa6dd"/><path d="M669.76 977.27l-14.27 4.63v-9.27z" stroke="#3aa6dd" stroke-width="2" fill="#3aa6dd"/><defs><path fill="#fff" d="M113-239c43 0 61 26 61 72C174-84 154 4 72 4 31 4 12-24 12-70c0-81 18-169 101-169zm-21 26C66-175 31-51 76-16c51-17 46-93 54-155 4-33-13-62-38-42" id="ac"/><g id="a"><use transform="matrix(0.13580246913580238,0,0,0.13580246913580238,0,0)" xlink:href="#ac"/><path fill="#fff" d="M-2.44 3H26.9v4.66H-2.45z"/></g><path fill="#fff" d="M13-71v-27h94v27H13" id="ad"/><use transform="matrix(0.13580246913580238,0,0,0.13580246913580238,0,0)" xlink:href="#ad" id="b"/><path fill="#fff" d="M178-68c0 79-95 82-154 59v-54h12c1 35 22 52 60 52 50 0 69-58 33-82-39-24-105-21-105-85 0-67 86-66 142-53v49h-12l-6-29c-31-27-121-7-89 42 28 43 119 24 119 101" id="ae"/><path fill="#fff" d="M54-38c-1 25 24 26 44 20v12C71 10 25 9 25-35v-115H4c-2-14 14-10 21-15l18-38h11v38h38v15H54v112" id="af"/><path fill="#fff" d="M32-163c41-10 102-14 102 39v112c8 3 24-2 21 12h-45l-4-17C83 13 3 13 13-46c-2-50 45-50 92-51 4-36-5-70-42-56-6 2-12 4-16 6-4 7 0 23-15 20v-36zM42-47c0 41 41 33 63 22v-59c-34 1-63-1-63 37" id="ag"/><path fill="#fff" d="M57-145c16-10 35-24 60-25v45c-19 1-8-30-40-17l-20 6v124l29 4v8H7v-8l21-4v-141c-8-3-24 2-21-12h48" id="ah"/><g id="c"><use transform="matrix(0.13580246913580238,0,0,0.13580246913580238,0,0)" xlink:href="#ae"/><use transform="matrix(0.13580246913580238,0,0,0.13580246913580238,27.160493827160476,0)" xlink:href="#af"/><use transform="matrix(0.13580246913580238,0,0,0.13580246913580238,40.74074074074071,0)" xlink:href="#ag"/><use transform="matrix(0.13580246913580238,0,0,0.13580246913580238,62.333333333333286,0)" xlink:href="#ah"/><use transform="matrix(0.13580246913580238,0,0,0.13580246913580238,78.49382716049377,0)" xlink:href="#af"/></g><path d="M52-115c0 90 69 126 140 93v-67l-30-5v-9h87v9l-23 5v77c-27 8-56 16-90 16C59 2 15-37 15-115c-1-82 41-123 122-123 31 0 59 4 83 10v51h-12l-5-29c-15-12-38-18-65-18-66-1-86 42-86 109" id="ai"/><path d="M84-170c49 0 66 33 63 87H46c-8 60 38 80 95 63v10C128-2 108 4 88 4 34 4 14-29 14-84c-1-54 22-86 70-86zm33 73c12-57-57-82-69-24-1 7-2 15-2 24h71" id="aj"/><path d="M54-38c-1 25 24 26 44 20v12C71 10 25 9 25-35v-115H4c-2-14 14-10 21-15l18-38h11v38h38v15H54v112" id="ak"/><path d="M10 0v-9l31-5v-208l-31-4v-10h95v10l-30 4v93h110v-93l-30-4v-10h94v10l-30 4v208l30 5v9h-94v-9l30-5v-99H75v99l30 5v9H10" id="al"/><path d="M32-163c41-10 102-14 102 39v112c8 3 24-2 21 12h-45l-4-17C83 13 3 13 13-46c-2-50 45-50 92-51 4-36-5-70-42-56-6 2-12 4-16 6-4 7 0 23-15 20v-36zM42-47c0 41 41 33 63 22v-59c-34 1-63-1-63 37" id="am"/><path d="M41-130c7 48 86 23 86 84 0 56-69 57-112 41v-40c20 0 9 29 31 31 35 19 77-26 41-50-27-18-72-13-72-59 0-50 58-52 100-41v36c-19 1-8-25-28-25-21-7-50-1-46 23" id="an"/><path d="M126-119c3-38-42-31-69-25v132l23 4v8H7v-8l21-4v-226l-24-4v-8h53l-1 98c31-22 99-31 99 31v109c7 3 23-1 20 12h-71v-8l22-4v-107" id="ao"/><g id="d"><use transform="matrix(0.18024691358024683,0,0,0.18024691358024683,0,0)" xlink:href="#ai"/><use transform="matrix(0.18024691358024683,0,0,0.18024691358024683,46.68395061728393,0)" xlink:href="#aj"/><use transform="matrix(0.18024691358024683,0,0,0.18024691358024683,75.34320987654317,0)" xlink:href="#ak"/><use transform="matrix(0.18024691358024683,0,0,0.18024691358024683,93.36790123456785,0)" xlink:href="#al"/><use transform="matrix(0.18024691358024683,0,0,0.18024691358024683,140.05185185185178,0)" xlink:href="#am"/><use transform="matrix(0.18024691358024683,0,0,0.18024691358024683,168.71111111111102,0)" xlink:href="#an"/><use transform="matrix(0.18024691358024683,0,0,0.18024691358024683,193.94567901234558,0)" xlink:href="#ao"/></g><path fill="#fff" d="M102-19l42 4-3 15H8l3-15 43-4 31-177-44 12 3-15 73-39h23" id="ap"/><g id="e"><use transform="matrix(0.10493827160493828,0,0,0.10493827160493828,0,0)" xlink:href="#ap"/><path fill="#fff" d="M-1.9 2.32H20.8v3.6H-1.9z"/></g><use transform="matrix(0.10493827160493828,0,0,0.10493827160493828,0,0)" xlink:href="#ad" id="f"/><path fill="#fff" d="M52-115c0 90 69 126 140 93v-67l-30-5v-9h87v9l-23 5v77c-27 8-56 16-90 16C59 2 15-37 15-115c-1-82 41-123 122-123 31 0 59 4 83 10v51h-12l-5-29c-15-12-38-18-65-18-66-1-86 42-86 109" id="aq"/><path fill="#fff" d="M84-170c49 0 66 33 63 87H46c-8 60 38 80 95 63v10C128-2 108 4 88 4 34 4 14-29 14-84c-1-54 22-86 70-86zm33 73c12-57-57-82-69-24-1 7-2 15-2 24h71" id="ar"/><path fill="#fff" d="M10 0v-9l31-5v-208l-31-4v-10h95v10l-30 4v93h110v-93l-30-4v-10h94v10l-30 4v208l30 5v9h-94v-9l30-5v-99H75v99l30 5v9H10" id="as"/><path fill="#fff" d="M41-130c7 48 86 23 86 84 0 56-69 57-112 41v-40c20 0 9 29 31 31 35 19 77-26 41-50-27-18-72-13-72-59 0-50 58-52 100-41v36c-19 1-8-25-28-25-21-7-50-1-46 23" id="at"/><path fill="#fff" d="M126-119c3-38-42-31-69-25v132l23 4v8H7v-8l21-4v-226l-24-4v-8h53l-1 98c31-22 99-31 99 31v109c7 3 23-1 20 12h-71v-8l22-4v-107" id="au"/><path fill="#fff" d="M108-235c-52 28-62 95-58 178 3 56 21 97 58 119v15C7 49-17-153 67-223c12-10 25-19 41-27v15" id="av"/><path fill="#fff" d="M47-200c-23 0-25-39 0-38 13 0 18 7 20 19-1 11-8 19-20 19zM65-12l28 4v8H8v-8l28-4v-141l-24-4v-8h53v153" id="aw"/><path fill="#fff" d="M125-118c4-37-41-34-68-26v132l23 4v8H8C5-13 21-9 28-12v-141c-7-3-23 1-20-12h47l2 13c31-23 98-29 98 31v109c7 3 23-1 20 12h-72v-8l22-4v-106" id="ax"/><path fill="#fff" d="M141-152c28 39 5 97-54 97-9 0-20-2-27-3L49-35c29 22 130-14 124 52-4 45-38 57-88 61C21 83-8 26 45-2 33-6 22-15 21-31l28-31c-19-9-28-26-28-51-2-51 53-65 100-52l38-20 7 8zM85 64c35 0 61-11 61-42 0-35-57-17-89-21-9 8-16 19-17 34 0 25 19 29 45 29zM52-113c1 26 7 46 35 44 28-1 34-16 35-44 0-26-6-43-34-43s-36 17-36 43" id="ay"/><g id="g"><use transform="matrix(0.10493827160493828,0,0,0.10493827160493828,0,0)" xlink:href="#aq"/><use transform="matrix(0.10493827160493828,0,0,0.10493827160493828,27.179012345679013,0)" xlink:href="#ar"/><use transform="matrix(0.10493827160493828,0,0,0.10493827160493828,43.8641975308642,0)" xlink:href="#af"/><use transform="matrix(0.10493827160493828,0,0,0.10493827160493828,54.358024691358025,0)" xlink:href="#as"/><use transform="matrix(0.10493827160493828,0,0,0.10493827160493828,81.53703703703704,0)" xlink:href="#ag"/><use transform="matrix(0.10493827160493828,0,0,0.10493827160493828,98.22222222222223,0)" xlink:href="#at"/><use transform="matrix(0.10493827160493828,0,0,0.10493827160493828,112.91358024691358,0)" xlink:href="#au"/><use transform="matrix(0.10493827160493828,0,0,0.10493827160493828,131.80246913580248,0)" xlink:href="#av"/><use transform="matrix(0.10493827160493828,0,0,0.10493827160493828,144.29012345679013,0)" xlink:href="#at"/><use transform="matrix(0.10493827160493828,0,0,0.10493827160493828,158.9814814814815,0)" xlink:href="#af"/><use transform="matrix(0.10493827160493828,0,0,0.10493827160493828,169.47530864197532,0)" xlink:href="#ah"/><use transform="matrix(0.10493827160493828,0,0,0.10493827160493828,181.96296296296296,0)" xlink:href="#aw"/><use transform="matrix(0.10493827160493828,0,0,0.10493827160493828,192.45679012345678,0)" xlink:href="#ax"/><use transform="matrix(0.10493827160493828,0,0,0.10493827160493828,211.34567901234567,0)" xlink:href="#ay"/></g><path fill="#fff" d="M166-85c3 67-44 102-111 85l1 64 29 4v9H6v-9l21-4v-217c-7-3-22 1-19-12h46l1 9c11-8 26-14 45-14 47 2 64 36 66 85zM56-13c53 14 83-14 78-72 7-53-33-79-78-60v132" id="az"/><path fill="#fff" d="M240-154L185 4h-14l-41-109L90 4H77L20-153c-7-3-23 1-20-12h79v8l-27 4L91-41l40-108h14l40 109 38-113-28-4v-8h63v8" id="aA"/><path fill="#fff" d="M90-170c52 0 76 32 76 87 0 54-24 87-77 87-51 0-75-34-75-87 0-54 24-87 76-87zM89-10c39 0 46-35 46-73 0-39-7-73-46-73-39 1-44 34-44 73s6 72 44 73" id="aB"/><path fill="#fff" d="M13-81c0-71 46-101 114-85l-1-72-28-4v-8h57v238c8 3 24-2 21 12h-47l-2-12C80 23 13-1 13-81zm77-74c-37 1-44 33-45 74 0 38 9 66 45 66 14 0 27-3 36-7v-130c-10-1-24-3-36-3" id="aC"/><path fill="#fff" d="M42-37c43 0 23 74-4 81-7 4-14 8-24 11V42c17-5 29-14 31-30C42-2 20 1 21-18c0-12 9-19 21-19" id="aD"/><g id="h"><use transform="matrix(0.10493827160493828,0,0,0.10493827160493828,0,0)" xlink:href="#az"/><use transform="matrix(0.10493827160493828,0,0,0.10493827160493828,18.88888888888889,0)" xlink:href="#ag"/><use transform="matrix(0.10493827160493828,0,0,0.10493827160493828,35.574074074074076,0)" xlink:href="#at"/><use transform="matrix(0.10493827160493828,0,0,0.10493827160493828,50.26543209876544,0)" xlink:href="#at"/><use transform="matrix(0.10493827160493828,0,0,0.10493827160493828,64.9567901234568,0)" xlink:href="#aA"/><use transform="matrix(0.10493827160493828,0,0,0.10493827160493828,92.13580246913581,0)" xlink:href="#aB"/><use transform="matrix(0.10493827160493828,0,0,0.10493827160493828,111.0246913580247,0)" xlink:href="#ah"/><use transform="matrix(0.10493827160493828,0,0,0.10493827160493828,123.51234567901236,0)" xlink:href="#aC"/><use transform="matrix(0.10493827160493828,0,0,0.10493827160493828,142.40123456790124,0)" xlink:href="#aD"/></g><g id="i"><use transform="matrix(0.10493827160493828,0,0,0.10493827160493828,0,0)" xlink:href="#at"/><use transform="matrix(0.10493827160493828,0,0,0.10493827160493828,14.69135802469136,0)" xlink:href="#af"/><use transform="matrix(0.10493827160493828,0,0,0.10493827160493828,25.185185185185187,0)" xlink:href="#ah"/><use transform="matrix(0.10493827160493828,0,0,0.10493827160493828,37.67283950617284,0)" xlink:href="#aw"/><use transform="matrix(0.10493827160493828,0,0,0.10493827160493828,48.16666666666667,0)" xlink:href="#ax"/><use transform="matrix(0.10493827160493828,0,0,0.10493827160493828,67.05555555555556,0)" xlink:href="#ay"/></g><path fill="#fff" d="M65-12l28 4v8H7v-8l28-4v-226l-28-4v-8h58v238" id="aE"/><g id="j"><use transform="matrix(0.10493827160493828,0,0,0.10493827160493828,0,0)" xlink:href="#at"/><use transform="matrix(0.10493827160493828,0,0,0.10493827160493828,14.69135802469136,0)" xlink:href="#ag"/><use transform="matrix(0.10493827160493828,0,0,0.10493827160493828,31.376543209876544,0)" xlink:href="#aE"/><use transform="matrix(0.10493827160493828,0,0,0.10493827160493828,41.870370370370374,0)" xlink:href="#af"/></g><path fill="#fff" d="M185-92v17H18v-17h167zm0-73v18H18v-18h167" id="aF"/><use transform="matrix(0.10493827160493828,0,0,0.10493827160493828,0,0)" xlink:href="#aF" id="k"/><path fill="#fff" d="M124-13C89 8 26 15 26-45v-108c-8-3-24 2-21-12h50v118c-3 37 42 32 69 25v-131l-25-4v-8h54v153c8 3 24-2 21 12h-48" id="aG"/><g id="l"><use transform="matrix(0.10493827160493828,0,0,0.10493827160493828,0,0)" xlink:href="#ax"/><use transform="matrix(0.10493827160493828,0,0,0.10493827160493828,18.88888888888889,0)" xlink:href="#aG"/><use transform="matrix(0.10493827160493828,0,0,0.10493827160493828,37.77777777777778,0)" xlink:href="#aE"/><use transform="matrix(0.10493827160493828,0,0,0.10493827160493828,48.27160493827161,0)" xlink:href="#aE"/><use transform="matrix(0.10493827160493828,0,0,0.10493827160493828,58.76543209876544,0)" xlink:href="#aD"/></g><path fill="#fff" d="M19-231c61-19 146-3 123 76-8 29-32 42-62 48l-3 45H63l-4-58c33-4 57-15 54-56 6-47-42-58-77-39l-6 29H19v-45zM72-37c14 0 21 9 21 21S84 5 72 5 50-2 51-16c0-13 8-21 21-21" id="aH"/><g id="m"><use transform="matrix(0.10493827160493828,0,0,0.10493827160493828,0,0)" xlink:href="#aG"/><use transform="matrix(0.10493827160493828,0,0,0.10493827160493828,18.88888888888889,0)" xlink:href="#aw"/><use transform="matrix(0.10493827160493828,0,0,0.10493827160493828,29.38271604938271,0)" xlink:href="#ax"/><use transform="matrix(0.10493827160493828,0,0,0.10493827160493828,48.27160493827161,0)" xlink:href="#af"/><use transform="matrix(0.10493827160493828,0,0,0.10493827160493828,58.76543209876544,0)" xlink:href="#aH"/></g><path fill="#fff" d="M152 0h-7L59-203v189l32 5v9H10v-9l31-5v-208l-31-4v-10h72l76 180 84-180h68v10l-31 4v208l31 5v9h-96v-9l32-5v-189" id="aI"/><path fill="#fff" d="M104-123c39 3 61 21 62 59C167 7 83 12 19-4l-2-50h12c2 29 16 43 51 43 38 0 54-19 54-55 2-43-34-49-75-50v-14c37 0 64-7 64-48 0-47-47-56-81-36l-6 29H24v-46c51-13 135-13 131 51-2 34-20 52-51 57" id="aJ"/><path fill="#fff" d="M24-231c66-21 156 2 128 81C132-92 78-66 39-27h121V0H16v-26l59-54c26-25 47-47 47-97 0-48-47-57-81-37l-6 29H24v-46" id="aK"/><g id="n"><use transform="matrix(0.10493827160493828,0,0,0.10493827160493828,0,0)" xlink:href="#ag"/><use transform="matrix(0.10493827160493828,0,0,0.10493827160493828,16.685185185185187,0)" xlink:href="#aC"/><use transform="matrix(0.10493827160493828,0,0,0.10493827160493828,35.574074074074076,0)" xlink:href="#aE"/><use transform="matrix(0.10493827160493828,0,0,0.10493827160493828,46.067901234567906,0)" xlink:href="#ar"/><use transform="matrix(0.10493827160493828,0,0,0.10493827160493828,62.75308641975309,0)" xlink:href="#ah"/><use transform="matrix(0.10493827160493828,0,0,0.10493827160493828,75.24074074074075,0)" xlink:href="#aI"/><use transform="matrix(0.10493827160493828,0,0,0.10493827160493828,108.820987654321,0)" xlink:href="#aB"/><use transform="matrix(0.10493827160493828,0,0,0.10493827160493828,127.70987654320986,0)" xlink:href="#aC"/><use transform="matrix(0.10493827160493828,0,0,0.10493827160493828,146.59876543209876,0)" xlink:href="#aJ"/><use transform="matrix(0.10493827160493828,0,0,0.10493827160493828,165.48765432098764,0)" xlink:href="#aK"/></g><path fill="#fff" d="M12-250C113-222 137-19 52 49 40 59 28 69 12 77V62C56 37 70-16 70-87c0-70-13-123-58-148v-15" id="aL"/><g id="o"><use transform="matrix(0.10493827160493828,0,0,0.10493827160493828,0,0)" xlink:href="#ax"/><use transform="matrix(0.10493827160493828,0,0,0.10493827160493828,18.88888888888889,0)" xlink:href="#aG"/><use transform="matrix(0.10493827160493828,0,0,0.10493827160493828,37.77777777777778,0)" xlink:href="#aE"/><use transform="matrix(0.10493827160493828,0,0,0.10493827160493828,48.27160493827161,0)" xlink:href="#aE"/><use transform="matrix(0.10493827160493828,0,0,0.10493827160493828,58.76543209876544,0)" xlink:href="#aL"/></g><path fill="#fff" d="M172-188c0 86-82 110-138 152h118l-7 36H-4l5-33c49-43 111-74 122-151 5-36-37-45-60-27l-13 34H35l9-54c50-12 128-14 128 43" id="aM"/><g id="p"><use transform="matrix(0.10950584185615456,0,0,0.10950584185615456,0,0)" xlink:href="#aM"/><path fill="#fff" d="M-1.97 2.43h23.65v3.75H-1.97z"/></g><use transform="matrix(0.10950584185615456,0,0,0.10950584185615456,0,0)" xlink:href="#ad" id="q"/><path fill="#fff" d="M77-14l30 5v9H13v-9l30-5v-208l-30-4v-10h94v10l-30 4v208" id="aN"/><g id="r"><use transform="matrix(0.10950584185615456,0,0,0.10950584185615456,0,0)" xlink:href="#aN"/><use transform="matrix(0.10950584185615456,0,0,0.10950584185615456,13.031195180882392,0)" xlink:href="#ax"/><use transform="matrix(0.10950584185615456,0,0,0.10950584185615456,32.742246714990216,0)" xlink:href="#aw"/><use transform="matrix(0.10950584185615456,0,0,0.10950584185615456,43.69283090060567,0)" xlink:href="#af"/><use transform="matrix(0.10950584185615456,0,0,0.10950584185615456,54.643415086221125,0)" xlink:href="#av"/><use transform="matrix(0.10950584185615456,0,0,0.10950584185615456,67.67461026710352,0)" xlink:href="#at"/><use transform="matrix(0.10950584185615456,0,0,0.10950584185615456,83.00542812696516,0)" xlink:href="#ag"/><use transform="matrix(0.10950584185615456,0,0,0.10950584185615456,100.41685698209373,0)" xlink:href="#aE"/><use transform="matrix(0.10950584185615456,0,0,0.10950584185615456,111.36744116770919,0)" xlink:href="#af"/><use transform="matrix(0.10950584185615456,0,0,0.10950584185615456,122.31802535332464,0)" xlink:href="#aD"/></g><g id="s"><use transform="matrix(0.10950584185615456,0,0,0.10950584185615456,0,0)" xlink:href="#ag"/><use transform="matrix(0.10950584185615456,0,0,0.10950584185615456,17.411428855128573,0)" xlink:href="#aC"/><use transform="matrix(0.10950584185615456,0,0,0.10950584185615456,37.122480389236394,0)" xlink:href="#aE"/><use transform="matrix(0.10950584185615456,0,0,0.10950584185615456,48.07306457485185,0)" xlink:href="#ar"/><use transform="matrix(0.10950584185615456,0,0,0.10950584185615456,65.48449342998042,0)" xlink:href="#ah"/><use transform="matrix(0.10950584185615456,0,0,0.10950584185615456,78.51568861086281,0)" xlink:href="#aI"/><use transform="matrix(0.10950584185615456,0,0,0.10950584185615456,113.55755800483225,0)" xlink:href="#aB"/><use transform="matrix(0.10950584185615456,0,0,0.10950584185615456,133.26860953894007,0)" xlink:href="#aC"/><use transform="matrix(0.10950584185615456,0,0,0.10950584185615456,152.97966107304788,0)" xlink:href="#aJ"/><use transform="matrix(0.10950584185615456,0,0,0.10950584185615456,172.6907126071557,0)" xlink:href="#aK"/></g><g id="t"><use transform="matrix(0.10950584185615456,0,0,0.10950584185615456,0,0)" xlink:href="#aH"/><use transform="matrix(0.10950584185615456,0,0,0.10950584185615456,17.411428855128573,0)" xlink:href="#aH"/></g><path fill="#fff" d="M90-239c59 0 76 52 76 120S152 4 89 4C31 4 14-51 14-119c0-67 17-120 76-120zM89-10c45-6 45-58 45-109 0-50 0-101-45-106-45 4-43 57-43 106 0 50-2 104 43 109" id="aO"/><g id="u"><use transform="matrix(0.10950584185615456,0,0,0.10950584185615456,0,0)" xlink:href="#aO"/><use transform="matrix(0.10950584185615456,0,0,0.10950584185615456,19.71105153410782,0)" xlink:href="#aL"/></g><g id="v"><use transform="matrix(0.11234567901234563,0,0,0.11234567901234563,0,0)" xlink:href="#az"/><use transform="matrix(0.11234567901234563,0,0,0.11234567901234563,20.222222222222214,0)" xlink:href="#ag"/><use transform="matrix(0.11234567901234563,0,0,0.11234567901234563,38.08518518518517,0)" xlink:href="#at"/><use transform="matrix(0.11234567901234563,0,0,0.11234567901234563,53.81358024691356,0)" xlink:href="#at"/><use transform="matrix(0.11234567901234563,0,0,0.11234567901234563,69.54197530864195,0)" xlink:href="#aA"/><use transform="matrix(0.11234567901234563,0,0,0.11234567901234563,98.63950617283948,0)" xlink:href="#aB"/><use transform="matrix(0.11234567901234563,0,0,0.11234567901234563,118.8617283950617,0)" xlink:href="#ah"/><use transform="matrix(0.11234567901234563,0,0,0.11234567901234563,132.23086419753082,0)" xlink:href="#aC"/></g><g id="w"><use transform="matrix(0.11234567901234563,0,0,0.11234567901234563,0,0)" xlink:href="#aF"/><use transform="matrix(0.11234567901234563,0,0,0.11234567901234563,22.806172839506164,0)" xlink:href="#aF"/></g><g id="x"><use transform="matrix(0.11234567901234563,0,0,0.11234567901234563,0,0)" xlink:href="#ax"/><use transform="matrix(0.11234567901234563,0,0,0.11234567901234563,20.222222222222214,0)" xlink:href="#aG"/><use transform="matrix(0.11234567901234563,0,0,0.11234567901234563,40.44444444444443,0)" xlink:href="#aE"/><use transform="matrix(0.11234567901234563,0,0,0.11234567901234563,51.67901234567899,0)" xlink:href="#aE"/></g><path fill="#333" d="M54 0v-13l38-5v-199l-66 3-4 44H6v-66h229v66h-17l-4-44c-17-2-44-3-67-3v199l38 5V0H54" id="aP"/><path fill="#333" d="M132-132c-21 0-37 9-50 16v100l26 4V0H10v-12l21-4v-133l-21-5v-11h69l2 34c17-18 35-41 71-40v61c-17 3-14-14-20-22" id="aQ"/><path fill="#333" d="M73-51c-3 31 27 38 51 25v-123l-16-5v-11h66v149l17 4V0h-65l-2-14C94 9 22 18 22-44v-105l-17-5v-11h68v114" id="aR"/><path fill="#333" d="M12-83c0-55 22-85 75-86 52-1 66 33 63 88H64c-1 37 6 64 44 63 14 0 28-4 39-6 3 28-28 25-55 27-57 4-80-31-80-86zm90-17c2-26 0-63-27-48-10 9-11 28-11 48h38" id="aS"/><g id="y"><use transform="matrix(0.0987654320987654,0,0,0.0987654320987654,0,0)" xlink:href="#aP"/><use transform="matrix(0.0987654320987654,0,0,0.0987654320987654,21.03703703703703,0)" xlink:href="#aQ"/><use transform="matrix(0.0987654320987654,0,0,0.0987654320987654,36.74074074074073,0)" xlink:href="#aR"/><use transform="matrix(0.0987654320987654,0,0,0.0987654320987654,56.49382716049381,0)" xlink:href="#aS"/></g><path fill="#fff" d="M159-70C162 6 60 13-3-4l8-57h16c0 27 2 50 38 47 45 5 65-51 43-85-8-12-27-13-46-13l4-22c39 1 61-12 61-51 0-35-38-44-59-26l-13 34H33l10-54c48-11 127-16 127 44 0 41-24 57-59 64 28 5 47 21 48 53" id="aT"/><g id="z"><use transform="matrix(0.10193236714975847,0,0,0.10193236714975847,0,0)" xlink:href="#aT"/><path fill="#fff" d="M-1.83 2.26H20.2v3.5H-1.84z"/></g><use transform="matrix(0.10193236714975847,0,0,0.10193236714975847,0,0)" xlink:href="#ad" id="A"/><path fill="#fff" d="M45-37c13 0 21 8 21 21C67-2 57 4 45 5 33 4 23-2 24-16c0-13 8-21 21-21" id="aU"/><path fill="#fff" d="M45-84c0 64 52 80 104 63 1 25-30 25-55 25-56 0-80-32-80-88 0-76 62-98 131-80v46h-10c-5-15-4-31-23-35-47-10-67 21-67 69" id="aV"/><g id="B"><use transform="matrix(0.10193236714975847,0,0,0.10193236714975847,0,0)" xlink:href="#az"/><use transform="matrix(0.10193236714975847,0,0,0.10193236714975847,18.347826086956523,0)" xlink:href="#ag"/><use transform="matrix(0.10193236714975847,0,0,0.10193236714975847,34.55507246376812,0)" xlink:href="#at"/><use transform="matrix(0.10193236714975847,0,0,0.10193236714975847,48.825603864734305,0)" xlink:href="#at"/><use transform="matrix(0.10193236714975847,0,0,0.10193236714975847,63.09613526570049,0)" xlink:href="#aA"/><use transform="matrix(0.10193236714975847,0,0,0.10193236714975847,89.49661835748793,0)" xlink:href="#aB"/><use transform="matrix(0.10193236714975847,0,0,0.10193236714975847,107.84444444444446,0)" xlink:href="#ah"/><use transform="matrix(0.10193236714975847,0,0,0.10193236714975847,119.97439613526572,0)" xlink:href="#aC"/><use transform="matrix(0.10193236714975847,0,0,0.10193236714975847,138.32222222222225,0)" xlink:href="#aU"/><use transform="matrix(0.10193236714975847,0,0,0.10193236714975847,147.4961352657005,0)" xlink:href="#ae"/><use transform="matrix(0.10193236714975847,0,0,0.10193236714975847,167.8826086956522,0)" xlink:href="#ar"/><use transform="matrix(0.10193236714975847,0,0,0.10193236714975847,184.08985507246382,0)" xlink:href="#aE"/><use transform="matrix(0.10193236714975847,0,0,0.10193236714975847,194.28309178743967,0)" xlink:href="#ar"/><use transform="matrix(0.10193236714975847,0,0,0.10193236714975847,210.49033816425128,0)" xlink:href="#aV"/><use transform="matrix(0.10193236714975847,0,0,0.10193236714975847,226.69758454106287,0)" xlink:href="#af"/><use transform="matrix(0.10193236714975847,0,0,0.10193236714975847,236.89082125603878,0)" xlink:href="#av"/></g><path fill="#fff" d="M52-115c0 93 80 130 150 87l7-35h11l-1 55c-23 7-52 12-83 12C60 4 19-37 15-115c-5-113 97-141 201-114l1 51h-12l-5-30c-15-9-39-16-62-16-66 0-86 41-86 109" id="aW"/><path fill="#fff" d="M164-154L98 4H85L17-153c-7-3-20 0-17-12h77v8l-26 4L99-38l46-115-26-4v-8h61v8" id="aX"/><g id="C"><use transform="matrix(0.10193236714975847,0,0,0.10193236714975847,0,0)" xlink:href="#aW"/><use transform="matrix(0.10193236714975847,0,0,0.10193236714975847,24.46376811594203,0)" xlink:href="#aB"/><use transform="matrix(0.10193236714975847,0,0,0.10193236714975847,42.811594202898554,0)" xlink:href="#ax"/><use transform="matrix(0.10193236714975847,0,0,0.10193236714975847,61.15942028985508,0)" xlink:href="#aX"/><use transform="matrix(0.10193236714975847,0,0,0.10193236714975847,79.5072463768116,0)" xlink:href="#ar"/><use transform="matrix(0.10193236714975847,0,0,0.10193236714975847,95.71449275362319,0)" xlink:href="#ah"/><use transform="matrix(0.10193236714975847,0,0,0.10193236714975847,107.84444444444446,0)" xlink:href="#af"/><use transform="matrix(0.10193236714975847,0,0,0.10193236714975847,118.03768115942027,0)" xlink:href="#aU"/></g><path fill="#fff" d="M55 0v-9l38-5v-207c-22 1-53 0-70 4l-5 37H7v-56h207v56h-12l-5-37-70-3v206l37 5v9H55" id="aY"/><path fill="#fff" d="M75-131c50 2 93 3 93-48 0-46-48-41-93-41v89zm0 115c55 4 111 6 111-51 0-53-58-48-111-48v99zm148-52C223 24 102-3 10 0v-9l31-5v-208l-31-4v-10c77 6 193-24 194 56 0 33-20 48-48 54 36 5 67 20 67 58" id="aZ"/><path fill="#fff" d="M161-154L85 37C75 66 49 86 8 75V39c18-2 6 24 29 21 30-4 38-32 47-58L21-153c-7-3-20 0-17-12h77v8l-26 4 45 116 43-116-26-4v-8h62v8" id="ba"/><path fill="#fff" d="M81-9v9H4v-9l26-5 81-224h33l83 224 30 5v9h-99v-9l31-5-23-68H73L49-14zm38-203L78-98h82" id="bb"/><g id="D"><use transform="matrix(0.10193236714975847,0,0,0.10193236714975847,0,0)" xlink:href="#aY"/><use transform="matrix(0.10193236714975847,0,0,0.10193236714975847,19.77487922705314,0)" xlink:href="#aB"/><use transform="matrix(0.10193236714975847,0,0,0.10193236714975847,38.122705314009664,0)" xlink:href="#aZ"/><use transform="matrix(0.10193236714975847,0,0,0.10193236714975847,62.586473429951695,0)" xlink:href="#ba"/><use transform="matrix(0.10193236714975847,0,0,0.10193236714975847,80.93429951690823,0)" xlink:href="#af"/><use transform="matrix(0.10193236714975847,0,0,0.10193236714975847,91.12753623188408,0)" xlink:href="#ar"/><use transform="matrix(0.10193236714975847,0,0,0.10193236714975847,107.33478260869569,0)" xlink:href="#aL"/><use transform="matrix(0.10193236714975847,0,0,0.10193236714975847,119.46473429951695,0)" xlink:href="#aU"/><use transform="matrix(0.10193236714975847,0,0,0.10193236714975847,128.6386473429952,0)" xlink:href="#aY"/><use transform="matrix(0.10193236714975847,0,0,0.10193236714975847,148.41352657004833,0)" xlink:href="#aB"/><use transform="matrix(0.10193236714975847,0,0,0.10193236714975847,166.76135265700486,0)" xlink:href="#bb"/><use transform="matrix(0.10193236714975847,0,0,0.10193236714975847,193.1618357487923,0)" xlink:href="#ah"/><use transform="matrix(0.10193236714975847,0,0,0.10193236714975847,205.29178743961356,0)" xlink:href="#ah"/><use transform="matrix(0.10193236714975847,0,0,0.10193236714975847,217.42173913043482,0)" xlink:href="#ag"/><use transform="matrix(0.10193236714975847,0,0,0.10193236714975847,233.6289855072464,0)" xlink:href="#ba"/><use transform="matrix(0.10193236714975847,0,0,0.10193236714975847,251.97681159420293,0)" xlink:href="#av"/><use transform="matrix(0.10193236714975847,0,0,0.10193236714975847,264.10676328502416,0)" xlink:href="#aL"/></g><path fill="#333" d="M92-101v83l39 5V0H8v-13l28-5v-200l-30-5v-13h197v64h-17l-5-42c-27-3-59-2-89-2v96h57l6-30h15v80h-15l-6-31H92" id="bc"/><path fill="#333" d="M31-163c51-5 127-20 127 40v107l17 4V0h-61l-4-13C82 13 12 12 12-46c0-51 46-52 95-53 9-45-22-69-57-44l-7 20H31v-40zM62-47c0 30 26 34 45 23v-59c-28 0-45 6-45 36" id="bd"/><path fill="#333" d="M76-16l18 4V0H7v-12l18-4v-218l-17-4v-12h68v234" id="be"/><path fill="#333" d="M102-142c-14-17-68-15-54 18 24 26 83 17 83 72 0 62-72 62-120 47v-45h12c4 23 16 37 43 37 35 0 39-37 9-46-31-9-65-19-64-61 0-52 59-55 108-45v43h-11" id="bf"/><g id="E"><use transform="matrix(0.0987654320987654,0,0,0.0987654320987654,0,0)" xlink:href="#bc"/><use transform="matrix(0.0987654320987654,0,0,0.0987654320987654,21.629629629629623,0)" xlink:href="#bd"/><use transform="matrix(0.0987654320987654,0,0,0.0987654320987654,39.40740740740739,0)" xlink:href="#be"/><use transform="matrix(0.0987654320987654,0,0,0.0987654320987654,49.28395061728393,0)" xlink:href="#bf"/><use transform="matrix(0.0987654320987654,0,0,0.0987654320987654,63.11111111111109,0)" xlink:href="#aS"/></g><path fill="#fff" d="M130-224c-62 0-78 43-78 106 0 64 16 108 78 108s78-45 78-108-16-106-78-106zm0 228C53 4 15-39 15-118c-1-80 37-120 115-120s115 42 115 120C245-39 207 4 130 4" id="bg"/><path fill="#fff" d="M103-236c-39-15-35 32-34 71h44v15H69v136l35 6v8H15v-8l25-6v-136H11v-9l29-7c-6-59 23-100 80-84v36c-15 2-12-14-17-22" id="bh"/><path fill="#fff" d="M10-9l31-5v-208l-31-4v-10h177v57h-11l-6-38c-28-4-63-3-95-3v92h63l6-28h11v73h-11l-6-29H75v96l105-3 10-43h12l-3 62H10v-9" id="bi"/><path fill="#fff" d="M156-12c7 3 23-1 20 12h-75v-8l22-4-38-58-45 58 23 4v8H3v-8l19-3 55-71-48-71c-7-3-23 1-20-12h75v8l-22 4 32 48 37-48-23-4v-8h59v8l-19 3-46 60" id="bj"/><g id="F"><use transform="matrix(0.11234567901234563,0,0,0.11234567901234563,0,0)" xlink:href="#bg"/><use transform="matrix(0.11234567901234563,0,0,0.11234567901234563,29.097530864197516,0)" xlink:href="#aX"/><use transform="matrix(0.11234567901234563,0,0,0.11234567901234563,49.31975308641973,0)" xlink:href="#ar"/><use transform="matrix(0.11234567901234563,0,0,0.11234567901234563,67.18271604938269,0)" xlink:href="#ah"/><use transform="matrix(0.11234567901234563,0,0,0.11234567901234563,80.55185185185182,0)" xlink:href="#bh"/><use transform="matrix(0.11234567901234563,0,0,0.11234567901234563,93.92098765432095,0)" xlink:href="#aE"/><use transform="matrix(0.11234567901234563,0,0,0.11234567901234563,105.15555555555551,0)" xlink:href="#aB"/><use transform="matrix(0.11234567901234563,0,0,0.11234567901234563,125.37777777777772,0)" xlink:href="#aA"/><use transform="matrix(0.11234567901234563,0,0,0.11234567901234563,154.47530864197523,0)" xlink:href="#bi"/><use transform="matrix(0.11234567901234563,0,0,0.11234567901234563,179.07901234567893,0)" xlink:href="#bj"/><use transform="matrix(0.11234567901234563,0,0,0.11234567901234563,199.30123456790113,0)" xlink:href="#aV"/><use transform="matrix(0.11234567901234563,0,0,0.11234567901234563,217.1641975308641,0)" xlink:href="#ar"/><use transform="matrix(0.11234567901234563,0,0,0.11234567901234563,235.02716049382707,0)" xlink:href="#az"/><use transform="matrix(0.11234567901234563,0,0,0.11234567901234563,255.24938271604933,0)" xlink:href="#af"/><use transform="matrix(0.11234567901234563,0,0,0.11234567901234563,266.4839506172839,0)" xlink:href="#aw"/><use transform="matrix(0.11234567901234563,0,0,0.11234567901234563,277.71851851851847,0)" xlink:href="#aB"/><use transform="matrix(0.11234567901234563,0,0,0.11234567901234563,297.9407407407407,0)" xlink:href="#ax"/></g><path fill="#fff" d="M54-136c50-13 106 1 106 57C160 0 75 15 4-4l8-57h16c3 17-4 43 16 44 43 12 68-18 68-61s-34-50-68-36H28l21-122h122l-7 36H65" id="bk"/><g id="G"><use transform="matrix(0.09931839947122548,0,0,0.09931839947122548,0,0)" xlink:href="#bk"/><path fill="#fff" d="M-1.8 2.2h21.46v3.4H-1.8z"/></g><use transform="matrix(0.09931839947122548,0,0,0.09931839947122548,0,0)" xlink:href="#ad" id="H"/><g id="I"><use transform="matrix(0.09931839947122548,0,0,0.09931839947122548,0,0)" xlink:href="#az"/><use transform="matrix(0.09931839947122548,0,0,0.09931839947122548,17.877311904820587,0)" xlink:href="#ag"/><use transform="matrix(0.09931839947122548,0,0,0.09931839947122548,33.668937420745436,0)" xlink:href="#at"/><use transform="matrix(0.09931839947122548,0,0,0.09931839947122548,47.57351334671701,0)" xlink:href="#at"/><use transform="matrix(0.09931839947122548,0,0,0.09931839947122548,61.47808927268858,0)" xlink:href="#aA"/><use transform="matrix(0.09931839947122548,0,0,0.09931839947122548,87.20155473573598,0)" xlink:href="#aB"/><use transform="matrix(0.09931839947122548,0,0,0.09931839947122548,105.07886664055658,0)" xlink:href="#ah"/><use transform="matrix(0.09931839947122548,0,0,0.09931839947122548,116.8977561776324,0)" xlink:href="#aC"/></g><use transform="matrix(0.09931839947122548,0,0,0.09931839947122548,0,0)" xlink:href="#aF" id="J"/><g id="K"><use transform="matrix(0.09931839947122548,0,0,0.09931839947122548,0,0)" xlink:href="#bi"/><use transform="matrix(0.09931839947122548,0,0,0.09931839947122548,21.75072948419838,0)" xlink:href="#ax"/><use transform="matrix(0.09931839947122548,0,0,0.09931839947122548,39.62804138901897,0)" xlink:href="#aV"/><use transform="matrix(0.09931839947122548,0,0,0.09931839947122548,55.41966690494382,0)" xlink:href="#aB"/><use transform="matrix(0.09931839947122548,0,0,0.09931839947122548,73.2969788097644,0)" xlink:href="#aC"/><use transform="matrix(0.09931839947122548,0,0,0.09931839947122548,91.17429071458498,0)" xlink:href="#aw"/><use transform="matrix(0.09931839947122548,0,0,0.09931839947122548,101.10613066170754,0)" xlink:href="#ax"/><use transform="matrix(0.09931839947122548,0,0,0.09931839947122548,118.98344256652813,0)" xlink:href="#ay"/><use transform="matrix(0.09931839947122548,0,0,0.09931839947122548,136.8607544713487,0)" xlink:href="#aU"/><use transform="matrix(0.09931839947122548,0,0,0.09931839947122548,145.799410423759,0)" xlink:href="#bb"/><use transform="matrix(0.09931839947122548,0,0,0.09931839947122548,171.52287588680642,0)" xlink:href="#ae"/><use transform="matrix(0.09931839947122548,0,0,0.09931839947122548,191.38655578105153,0)" xlink:href="#aW"/><use transform="matrix(0.09931839947122548,0,0,0.09931839947122548,215.22297165414565,0)" xlink:href="#aN"/><use transform="matrix(0.09931839947122548,0,0,0.09931839947122548,227.04186119122147,0)" xlink:href="#aN"/><use transform="matrix(0.09931839947122548,0,0,0.09931839947122548,238.86075072829726,0)" xlink:href="#aU"/></g><g id="L"><use transform="matrix(0.09931839947122548,0,0,0.09931839947122548,0,0)" xlink:href="#aq"/><use transform="matrix(0.09931839947122548,0,0,0.09931839947122548,25.723465463047397,0)" xlink:href="#ar"/><use transform="matrix(0.09931839947122548,0,0,0.09931839947122548,41.515090978972246,0)" xlink:href="#af"/><use transform="matrix(0.09931839947122548,0,0,0.09931839947122548,51.446930926094794,0)" xlink:href="#ae"/><use transform="matrix(0.09931839947122548,0,0,0.09931839947122548,71.31061082033989,0)" xlink:href="#af"/><use transform="matrix(0.09931839947122548,0,0,0.09931839947122548,81.24245076746243,0)" xlink:href="#ah"/><use transform="matrix(0.09931839947122548,0,0,0.09931839947122548,93.06134030453826,0)" xlink:href="#aw"/><use transform="matrix(0.09931839947122548,0,0,0.09931839947122548,102.99318025166082,0)" xlink:href="#ax"/><use transform="matrix(0.09931839947122548,0,0,0.09931839947122548,120.8704921564814,0)" xlink:href="#ay"/><use transform="matrix(0.09931839947122548,0,0,0.09931839947122548,138.747804061302,0)" xlink:href="#av"/><use transform="matrix(0.09931839947122548,0,0,0.09931839947122548,150.5666935983778,0)" xlink:href="#bi"/><use transform="matrix(0.09931839947122548,0,0,0.09931839947122548,172.3174230825762,0)" xlink:href="#ax"/><use transform="matrix(0.09931839947122548,0,0,0.09931839947122548,190.19473498739677,0)" xlink:href="#aV"/><use transform="matrix(0.09931839947122548,0,0,0.09931839947122548,205.98636050332163,0)" xlink:href="#aB"/><use transform="matrix(0.09931839947122548,0,0,0.09931839947122548,223.86367240814224,0)" xlink:href="#aC"/><use transform="matrix(0.09931839947122548,0,0,0.09931839947122548,241.74098431296287,0)" xlink:href="#aw"/><use transform="matrix(0.09931839947122548,0,0,0.09931839947122548,251.67282426008535,0)" xlink:href="#ax"/><use transform="matrix(0.09931839947122548,0,0,0.09931839947122548,269.55013616490595,0)" xlink:href="#ay"/><use transform="matrix(0.09931839947122548,0,0,0.09931839947122548,287.42744806972655,0)" xlink:href="#aU"/></g><path fill="#fff" d="M134-16c44-1 70-21 70-64v-142l-32-4v-10h80v10l-30 4v141c0 57-33 84-91 85-58 0-93-26-93-82v-144l-30-4v-10h94v10l-30 4c7 82-31 209 62 206" id="bl"/><g id="M"><use transform="matrix(0.09931839947122548,0,0,0.09931839947122548,0,0)" xlink:href="#bl"/><use transform="matrix(0.09931839947122548,0,0,0.09931839947122548,25.723465463047397,0)" xlink:href="#ax"/><use transform="matrix(0.09931839947122548,0,0,0.09931839947122548,43.600777367867984,0)" xlink:href="#aw"/><use transform="matrix(0.09931839947122548,0,0,0.09931839947122548,53.53261731499053,0)" xlink:href="#aV"/><use transform="matrix(0.09931839947122548,0,0,0.09931839947122548,69.32424283091538,0)" xlink:href="#aB"/><use transform="matrix(0.09931839947122548,0,0,0.09931839947122548,87.20155473573597,0)" xlink:href="#aC"/><use transform="matrix(0.09931839947122548,0,0,0.09931839947122548,105.07886664055656,0)" xlink:href="#ar"/><use transform="matrix(0.09931839947122548,0,0,0.09931839947122548,120.8704921564814,0)" xlink:href="#aU"/><use transform="matrix(0.09931839947122548,0,0,0.09931839947122548,129.8091481088917,0)" xlink:href="#aq"/><use transform="matrix(0.09931839947122548,0,0,0.09931839947122548,155.5326135719391,0)" xlink:href="#ar"/><use transform="matrix(0.09931839947122548,0,0,0.09931839947122548,171.32423908786396,0)" xlink:href="#af"/><use transform="matrix(0.09931839947122548,0,0,0.09931839947122548,181.2560790349865,0)" xlink:href="#aZ"/><use transform="matrix(0.09931839947122548,0,0,0.09931839947122548,205.0924949080806,0)" xlink:href="#ba"/><use transform="matrix(0.09931839947122548,0,0,0.09931839947122548,222.9698068129012,0)" xlink:href="#af"/><use transform="matrix(0.09931839947122548,0,0,0.09931839947122548,232.90164676002374,0)" xlink:href="#ar"/><use transform="matrix(0.09931839947122548,0,0,0.09931839947122548,248.6932722759486,0)" xlink:href="#at"/></g><g id="N"><use transform="matrix(0.09931839947122548,0,0,0.09931839947122548,0,0)" xlink:href="#av"/><use transform="matrix(0.09931839947122548,0,0,0.09931839947122548,11.818889537075831,0)" xlink:href="#az"/><use transform="matrix(0.09931839947122548,0,0,0.09931839947122548,29.696201441896417,0)" xlink:href="#ag"/><use transform="matrix(0.09931839947122548,0,0,0.09931839947122548,45.48782695782127,0)" xlink:href="#at"/><use transform="matrix(0.09931839947122548,0,0,0.09931839947122548,59.39240288379283,0)" xlink:href="#at"/><use transform="matrix(0.09931839947122548,0,0,0.09931839947122548,73.29697880976441,0)" xlink:href="#aA"/><use transform="matrix(0.09931839947122548,0,0,0.09931839947122548,99.0204442728118,0)" xlink:href="#aB"/><use transform="matrix(0.09931839947122548,0,0,0.09931839947122548,116.89775617763239,0)" xlink:href="#ah"/><use transform="matrix(0.09931839947122548,0,0,0.09931839947122548,128.71664571470822,0)" xlink:href="#aC"/><use transform="matrix(0.09931839947122548,0,0,0.09931839947122548,146.5939576195288,0)" xlink:href="#aL"/><use transform="matrix(0.09931839947122548,0,0,0.09931839947122548,158.4128471566046,0)" xlink:href="#aL"/></g><path fill="#fff" d="M166-85c-4 54-31 89-85 89-48 0-69-34-69-82 0-100 58-183 168-153l-9 54h-16l-1-34c-51-29-84 31-91 81 37-24 108-15 103 45zm-47 4c2-39-29-48-59-33-2 37-10 95 25 100 28-4 32-34 34-67" id="bm"/><g id="O"><use transform="matrix(0.11054964712641414,0,0,0.11054964712641414,0,0)" xlink:href="#bm"/><path fill="#fff" d="M-2 2.45h23.9v3.8H-2z"/></g><use transform="matrix(0.11054964712641414,0,0,0.11054964712641414,0,0)" xlink:href="#ad" id="P"/><g id="Q"><use transform="matrix(0.11054964712641414,0,0,0.11054964712641414,0,0)" xlink:href="#ah"/><use transform="matrix(0.11054964712641414,0,0,0.11054964712641414,13.155408008043283,0)" xlink:href="#ar"/><use transform="matrix(0.11054964712641414,0,0,0.11054964712641414,30.732801901143134,0)" xlink:href="#af"/><use transform="matrix(0.11054964712641414,0,0,0.11054964712641414,41.78776661378455,0)" xlink:href="#aG"/><use transform="matrix(0.11054964712641414,0,0,0.11054964712641414,61.68670309653909,0)" xlink:href="#ah"/><use transform="matrix(0.11054964712641414,0,0,0.11054964712641414,74.84211110458237,0)" xlink:href="#ax"/></g><g id="R"><use transform="matrix(0.11054964712641414,0,0,0.11054964712641414,0,0)" xlink:href="#as"/><use transform="matrix(0.11054964712641414,0,0,0.11054964712641414,28.632358605741263,0)" xlink:href="#ag"/><use transform="matrix(0.11054964712641414,0,0,0.11054964712641414,46.20975249884111,0)" xlink:href="#at"/><use transform="matrix(0.11054964712641414,0,0,0.11054964712641414,61.68670309653909,0)" xlink:href="#au"/><use transform="matrix(0.11054964712641414,0,0,0.11054964712641414,81.58563957929364,0)" xlink:href="#ae"/><use transform="matrix(0.11054964712641414,0,0,0.11054964712641414,103.69556900457647,0)" xlink:href="#au"/><use transform="matrix(0.11054964712641414,0,0,0.11054964712641414,123.59450548733102,0)" xlink:href="#ag"/><use transform="matrix(0.11054964712641414,0,0,0.11054964712641414,141.17189938043086,0)" xlink:href="#aK"/></g><path fill="#fff" d="M169-68c0 44-28 66-70 71v24H85V4C60 2 34-2 15-9v-56h12c0 36 21 53 58 54v-99c-32-13-67-22-66-68 1-41 29-55 66-60v-23h14v23c17 0 41 3 54 7v49h-11c-1-27-16-41-43-42v84c36 12 70 25 70 72zM99-12c45 1 53-71 16-86-5-3-10-5-16-7v93zM85-223c-41 0-49 57-15 71 4 2 10 5 15 7v-78" id="bn"/><path fill="#fff" d="M90-236h35l-11 85h-13zm-68 0h35l-11 85H33" id="bo"/><path fill="#fff" d="M66-102c72 12-10 150 74 142v8C95 52 70 37 70-4c0-44 8-96-37-93v-8c76 4-3-150 83-145h24v8c-80-15-2 128-74 140" id="bp"/><path fill="#fff" d="M-3 46V28h186v18H-3" id="bq"/><path fill="#fff" d="M102-55c0 60 3 115-69 103v-8c79 12 4-128 74-142-40-5-34-57-34-102 0-27-11-41-40-38v-8c44-4 69 10 69 52 0 43-7 95 38 93v8c-26 1-38 15-38 42" id="br"/><g id="S"><use transform="matrix(0.11054964712641414,0,0,0.11054964712641414,0,0)" xlink:href="#av"/><use transform="matrix(0.11054964712641414,0,0,0.11054964712641414,13.155408008043283,0)" xlink:href="#bn"/><use transform="matrix(0.11054964712641414,0,0,0.11054964712641414,33.05434449079783,0)" xlink:href="#bo"/><use transform="matrix(0.11054964712641414,0,0,0.11054964712641414,49.194592971254295,0)" xlink:href="#bp"/><use transform="matrix(0.11054964712641414,0,0,0.11054964712641414,68.20913227699754,0)" xlink:href="#bq"/><use transform="matrix(0.11054964712641414,0,0,0.11054964712641414,88.10806875975209,0)" xlink:href="#at"/><use transform="matrix(0.11054964712641414,0,0,0.11054964712641414,103.58501935745007,0)" xlink:href="#ag"/><use transform="matrix(0.11054964712641414,0,0,0.11054964712641414,121.16241325054993,0)" xlink:href="#aE"/><use transform="matrix(0.11054964712641414,0,0,0.11054964712641414,132.21737796319132,0)" xlink:href="#af"/><use transform="matrix(0.11054964712641414,0,0,0.11054964712641414,143.27234267583273,0)" xlink:href="#br"/></g><path fill="#fff" d="M60-80l68-73c-7-3-20 0-17-12h58c3 13-13 9-20 12l-47 48 60 93c7 3 21-1 18 12h-68c-3-12 9-9 15-12L82-83 60-60v48c7 3 21-1 18 12H10v-8l21-4v-226l-24-4v-8h53v170" id="bs"/><path fill="#fff" d="M126-118c4-37-42-32-68-25v131l24 4v8H8C5-13 21-9 28-12v-141c-7-3-23 1-20-12h48l1 13c22-15 77-30 92 2 32-22 104-36 104 29v109c8 3 24-2 21 12h-75v-8l25-4v-106c3-39-45-31-72-24 7 37 1 88 3 130l25 4v8h-78v-8l24-4v-106" id="bt"/><g id="T"><use transform="matrix(0.11054964712641414,0,0,0.11054964712641414,0,0)" xlink:href="#bp"/><use transform="matrix(0.11054964712641414,0,0,0.11054964712641414,19.014539305743234,0)" xlink:href="#bb"/><use transform="matrix(0.11054964712641414,0,0,0.11054964712641414,47.6468979114845,0)" xlink:href="#aC"/><use transform="matrix(0.11054964712641414,0,0,0.11054964712641414,67.54583439423905,0)" xlink:href="#aE"/><use transform="matrix(0.11054964712641414,0,0,0.11054964712641414,78.60079910688046,0)" xlink:href="#ar"/><use transform="matrix(0.11054964712641414,0,0,0.11054964712641414,96.17819299998031,0)" xlink:href="#ah"/><use transform="matrix(0.11054964712641414,0,0,0.11054964712641414,109.33360100802359,0)" xlink:href="#aJ"/><use transform="matrix(0.11054964712641414,0,0,0.11054964712641414,129.23253749077813,0)" xlink:href="#aK"/><use transform="matrix(0.11054964712641414,0,0,0.11054964712641414,149.13147397353268,0)" xlink:href="#aW"/><use transform="matrix(0.11054964712641414,0,0,0.11054964712641414,175.66338928387208,0)" xlink:href="#au"/><use transform="matrix(0.11054964712641414,0,0,0.11054964712641414,195.56232576662663,0)" xlink:href="#ar"/><use transform="matrix(0.11054964712641414,0,0,0.11054964712641414,213.13971965972647,0)" xlink:href="#aV"/><use transform="matrix(0.11054964712641414,0,0,0.11054964712641414,230.7171135528263,0)" xlink:href="#bs"/><use transform="matrix(0.11054964712641414,0,0,0.11054964712641414,250.61605003558086,0)" xlink:href="#ae"/><use transform="matrix(0.11054964712641414,0,0,0.11054964712641414,272.7259794608637,0)" xlink:href="#aG"/><use transform="matrix(0.11054964712641414,0,0,0.11054964712641414,292.62491594361825,0)" xlink:href="#bt"/></g><g id="U"><use transform="matrix(0.11054964712641414,0,0,0.11054964712641414,0,0)" xlink:href="#av"/><use transform="matrix(0.11054964712641414,0,0,0.11054964712641414,13.155408008043283,0)" xlink:href="#az"/><use transform="matrix(0.11054964712641414,0,0,0.11054964712641414,33.05434449079783,0)" xlink:href="#ag"/><use transform="matrix(0.11054964712641414,0,0,0.11054964712641414,50.631738383897684,0)" xlink:href="#at"/><use transform="matrix(0.11054964712641414,0,0,0.11054964712641414,66.10868898159566,0)" xlink:href="#at"/><use transform="matrix(0.11054964712641414,0,0,0.11054964712641414,81.58563957929364,0)" xlink:href="#aA"/><use transform="matrix(0.11054964712641414,0,0,0.11054964712641414,110.2179981850349,0)" xlink:href="#aB"/><use transform="matrix(0.11054964712641414,0,0,0.11054964712641414,130.11693466778945,0)" xlink:href="#ah"/><use transform="matrix(0.11054964712641414,0,0,0.11054964712641414,143.27234267583273,0)" xlink:href="#aC"/><use transform="matrix(0.11054964712641414,0,0,0.11054964712641414,163.17127915858728,0)" xlink:href="#aL"/><use transform="matrix(0.11054964712641414,0,0,0.11054964712641414,176.32668716663056,0)" xlink:href="#br"/></g><g id="V"><use transform="matrix(0.11054964712641414,0,0,0.11054964712641414,0,0)" xlink:href="#bp"/><use transform="matrix(0.11054964712641414,0,0,0.11054964712641414,19.014539305743234,0)" xlink:href="#az"/><use transform="matrix(0.11054964712641414,0,0,0.11054964712641414,38.91347578849778,0)" xlink:href="#ag"/><use transform="matrix(0.11054964712641414,0,0,0.11054964712641414,56.49086968159763,0)" xlink:href="#at"/><use transform="matrix(0.11054964712641414,0,0,0.11054964712641414,71.96782027929561,0)" xlink:href="#at"/><use transform="matrix(0.11054964712641414,0,0,0.11054964712641414,87.44477087699359,0)" xlink:href="#aA"/><use transform="matrix(0.11054964712641414,0,0,0.11054964712641414,116.07712948273485,0)" xlink:href="#aB"/><use transform="matrix(0.11054964712641414,0,0,0.11054964712641414,135.9760659654894,0)" xlink:href="#ah"/><use transform="matrix(0.11054964712641414,0,0,0.11054964712641414,149.13147397353268,0)" xlink:href="#aC"/><use transform="matrix(0.11054964712641414,0,0,0.11054964712641414,169.03041045628723,0)" xlink:href="#br"/><use transform="matrix(0.11054964712641414,0,0,0.11054964712641414,188.04494976203046,0)" xlink:href="#bo"/><use transform="matrix(0.11054964712641414,0,0,0.11054964712641414,204.18519824248693,0)" xlink:href="#aL"/></g><path fill="#fff" d="M45-168H29l12-68h151l-3 14L61 0H15l136-200H58" id="bu"/><g id="W"><use transform="matrix(0.13580246913580238,0,0,0.13580246913580238,0,0)" xlink:href="#bu"/><path fill="#fff" d="M-2.44 3H26.9v4.66H-2.45z"/></g><g id="X"><use transform="matrix(0.13580246913580238,0,0,0.13580246913580238,0,0)" xlink:href="#bi"/><use transform="matrix(0.13580246913580238,0,0,0.13580246913580238,29.74074074074072,0)" xlink:href="#ax"/><use transform="matrix(0.13580246913580238,0,0,0.13580246913580238,54.18518518518515,0)" xlink:href="#aC"/></g><path fill="#fff" d="M136-48l-9 48H84l8-48H-6l5-27 134-162h36L142-81h27l-6 33h-27zM98-81l22-108L30-81h68" id="bv"/><g id="Y"><use transform="matrix(0.1323557059597669,0,0,0.1323557059597669,0,0)" xlink:href="#bv"/><path fill="#fff" d="M-2.38 2.93h28.6v4.54H-2.4z"/></g><use transform="matrix(0.1323557059597669,0,0,0.1323557059597669,0,0)" xlink:href="#ad" id="Z"/><g id="aa"><use transform="matrix(0.1323557059597669,0,0,0.1323557059597669,0,0)" xlink:href="#ah"/><use transform="matrix(0.1323557059597669,0,0,0.1323557059597669,15.75032900921226,0)" xlink:href="#ar"/><use transform="matrix(0.1323557059597669,0,0,0.1323557059597669,36.7948862568152,0)" xlink:href="#af"/><use transform="matrix(0.1323557059597669,0,0,0.1323557059597669,50.03045685279188,0)" xlink:href="#aG"/><use transform="matrix(0.1323557059597669,0,0,0.1323557059597669,73.85448392554991,0)" xlink:href="#ah"/><use transform="matrix(0.1323557059597669,0,0,0.1323557059597669,89.6048129347622,0)" xlink:href="#ax"/></g><g id="ab"><use transform="matrix(0.1323557059597669,0,0,0.1323557059597669,0,0)" xlink:href="#ax"/><use transform="matrix(0.1323557059597669,0,0,0.1323557059597669,23.82402707275804,0)" xlink:href="#aG"/><use transform="matrix(0.1323557059597669,0,0,0.1323557059597669,47.64805414551608,0)" xlink:href="#aE"/><use transform="matrix(0.1323557059597669,0,0,0.1323557059597669,60.88362474149277,0)" xlink:href="#aE"/></g></defs></g></svg>