<svg xmlns="http://www.w3.org/2000/svg" xmlns:xlink="http://www.w3.org/1999/xlink" xmlns:lucid="lucid" width="640" height="870.5"><g transform="translate(-547.4450716712397 1100)" lucid:page-tab-id="0_0"><path d="M0-1258.83h1870.87V64H0z" fill="#fff"/><path d="M942.1-960c26.67 0 48.28 20.26 48.28 45.25 0 25-21.6 45.25-48.27 45.25H797.3c-26.65 0-48.26-20.26-48.26-45.25 0-25 21.6-45.25 48.27-45.25z" stroke="#0c7cba" stroke-width="3" fill="#3aa6dd"/><use xlink:href="#a" transform="matrix(1,0,0,1,754.044736312016,-955) translate(36.943271604938325 49.236111111111086)"/><use xlink:href="#b" transform="matrix(1,0,0,1,754.044736312016,-955) translate(73.60993827160496 49.236111111111086)"/><use xlink:href="#c" transform="matrix(1,0,0,1,754.044736312016,-955) translate(101.99265432098767 49.236111111111086)"/><path d="M868.72-867V-808.6" stroke="#3aa6dd" stroke-width="2" fill="none"/><path d="M869.72-866.97h-2V-868h2z" fill="#3aa6dd"/><path d="M868.72-793.33l-4.63-14.27h9.26z" stroke="#3aa6dd" stroke-width="2" fill="#3aa6dd"/><path d="M750.38-1074c0-3.3 2.68-6 6-6h228c3.3 0 6 2.7 6 6v83.33c0 3.32-2.7 6-6 6h-228c-3.32 0-6-2.68-6-6z" stroke="#000" stroke-opacity="0" stroke-width="3" fill="#fff" fill-opacity="0"/><use xlink:href="#d" transform="matrix(1,0,0,1,755.3780696453496,-1075) translate(1.677777777777905 52.862499999999955)"/><path d="M567.45-782.6c0-3.3 2.68-6 6-6h588c3.3 0 6 2.7 6 6v356.5c0 3.3-2.7 6-6 6h-588c-3.32 0-6-2.7-6-6z" stroke="#3aa6dd" stroke-width="3" fill="#3aa6dd"/><use xlink:href="#e" transform="matrix(1,0,0,1,579.4450716712397,-776.5947863466122) translate(63.927136533878354 38.2757916241062)"/><use xlink:href="#f" transform="matrix(1,0,0,1,579.4450716712397,-776.5947863466122) translate(99.8106911814779 38.2757916241062)"/><use xlink:href="#g" transform="matrix(1,0,0,1,579.4450716712397,-776.5947863466122) translate(127.58722051980497 38.2757916241062)"/><use xlink:href="#h" transform="matrix(1,0,0,1,579.4450716712397,-776.5947863466122) translate(253.44546589490415 38.2757916241062)"/><use xlink:href="#i" transform="matrix(1,0,0,1,579.4450716712397,-776.5947863466122) translate(107.25320621949851 95.68947906026548)"/><use xlink:href="#j" transform="matrix(1,0,0,1,579.4450716712397,-776.5947863466122) translate(67.31613891726275 153.1031664964248)"/><use xlink:href="#k" transform="matrix(1,0,0,1,579.4450716712397,-776.5947863466122) translate(161.54369538077418 210.51685393258407)"/><use xlink:href="#l" transform="matrix(1,0,0,1,579.4450716712397,-776.5947863466122) translate(113.30024968789033 267.9305413687434)"/><use xlink:href="#m" transform="matrix(1,0,0,1,579.4450716712397,-776.5947863466122) translate(24.65457950289442 325.3442288049027)"/><path d="M933.07-340c26.65 0 48.26 20.26 48.26 45.25 0 25-21.6 45.25-48.26 45.25h-144.8c-26.66 0-48.27-20.26-48.27-45.25 0-25 21.6-45.25 48.27-45.25z" stroke="#0c7cba" stroke-width="3" fill="#3aa6dd"/><g><use xlink:href="#n" transform="matrix(1,0,0,1,745,-335) translate(43.66549382716054 49.236111111111086)"/><use xlink:href="#b" transform="matrix(1,0,0,1,745,-335) translate(80.33216049382719 49.236111111111086)"/><use xlink:href="#o" transform="matrix(1,0,0,1,745,-335) translate(108.71487654320988 49.236111111111086)"/></g><path d="M862.38-417.6V-360" stroke="#3aa6dd" stroke-width="2" fill="none"/><path d="M863.38-417.6h-2v-1h2z" fill="#3aa6dd"/><path d="M862.38-344.74L857.74-359H867z" stroke="#3aa6dd" stroke-width="2" fill="#3aa6dd"/><defs><path fill="#fff" d="M113-239c43 0 61 26 61 72C174-84 154 4 72 4 31 4 12-24 12-70c0-81 18-169 101-169zm-21 26C66-175 31-51 76-16c51-17 46-93 54-155 4-33-13-62-38-42" id="p"/><g id="a"><use transform="matrix(0.13580246913580238,0,0,0.13580246913580238,0,0)" xlink:href="#p"/><path fill="#fff" d="M-2.44 3H26.9v4.66H-2.45z"/></g><path fill="#fff" d="M13-71v-27h94v27H13" id="q"/><use transform="matrix(0.13580246913580238,0,0,0.13580246913580238,0,0)" xlink:href="#q" id="b"/><path fill="#fff" d="M178-68c0 79-95 82-154 59v-54h12c1 35 22 52 60 52 50 0 69-58 33-82-39-24-105-21-105-85 0-67 86-66 142-53v49h-12l-6-29c-31-27-121-7-89 42 28 43 119 24 119 101" id="r"/><path fill="#fff" d="M54-38c-1 25 24 26 44 20v12C71 10 25 9 25-35v-115H4c-2-14 14-10 21-15l18-38h11v38h38v15H54v112" id="s"/><path fill="#fff" d="M32-163c41-10 102-14 102 39v112c8 3 24-2 21 12h-45l-4-17C83 13 3 13 13-46c-2-50 45-50 92-51 4-36-5-70-42-56-6 2-12 4-16 6-4 7 0 23-15 20v-36zM42-47c0 41 41 33 63 22v-59c-34 1-63-1-63 37" id="t"/><path fill="#fff" d="M57-145c16-10 35-24 60-25v45c-19 1-8-30-40-17l-20 6v124l29 4v8H7v-8l21-4v-141c-8-3-24 2-21-12h48" id="u"/><g id="c"><use transform="matrix(0.13580246913580238,0,0,0.13580246913580238,0,0)" xlink:href="#r"/><use transform="matrix(0.13580246913580238,0,0,0.13580246913580238,27.160493827160476,0)" xlink:href="#s"/><use transform="matrix(0.13580246913580238,0,0,0.13580246913580238,40.74074074074071,0)" xlink:href="#t"/><use transform="matrix(0.13580246913580238,0,0,0.13580246913580238,62.333333333333286,0)" xlink:href="#u"/><use transform="matrix(0.13580246913580238,0,0,0.13580246913580238,78.49382716049377,0)" xlink:href="#s"/></g><path fill="#333" d="M10 0v-9l31-5v-208l-31-4v-10h95v10l-30 4v93h110v-93l-30-4v-10h94v10l-30 4v208l30 5v9h-94v-9l30-5v-99H75v99l30 5v9H10" id="v"/><path fill="#333" d="M32-163c41-10 102-14 102 39v112c8 3 24-2 21 12h-45l-4-17C83 13 3 13 13-46c-2-50 45-50 92-51 4-36-5-70-42-56-6 2-12 4-16 6-4 7 0 23-15 20v-36zM42-47c0 41 41 33 63 22v-59c-34 1-63-1-63 37" id="w"/><path fill="#333" d="M41-130c7 48 86 23 86 84 0 56-69 57-112 41v-40c20 0 9 29 31 31 35 19 77-26 41-50-27-18-72-13-72-59 0-50 58-52 100-41v36c-19 1-8-25-28-25-21-7-50-1-46 23" id="x"/><path fill="#333" d="M126-119c3-38-42-31-69-25v132l23 4v8H7v-8l21-4v-226l-24-4v-8h53l-1 98c31-22 99-31 99 31v109c7 3 23-1 20 12h-71v-8l22-4v-107" id="y"/><path fill="#333" d="M178-68c0 79-95 82-154 59v-54h12c1 35 22 52 60 52 50 0 69-58 33-82-39-24-105-21-105-85 0-67 86-66 142-53v49h-12l-6-29c-31-27-121-7-89 42 28 43 119 24 119 101" id="z"/><path fill="#333" d="M24-231c66-21 156 2 128 81C132-92 78-66 39-27h121V0H16v-26l59-54c26-25 47-47 47-97 0-48-47-57-81-37l-6 29H24v-46" id="A"/><g id="d"><use transform="matrix(0.1555555555555554,0,0,0.1555555555555554,0,0)" xlink:href="#v"/><use transform="matrix(0.1555555555555554,0,0,0.1555555555555554,40.28888888888885,0)" xlink:href="#w"/><use transform="matrix(0.1555555555555554,0,0,0.1555555555555554,65.02222222222215,0)" xlink:href="#x"/><use transform="matrix(0.1555555555555554,0,0,0.1555555555555554,86.79999999999991,0)" xlink:href="#y"/><use transform="matrix(0.1555555555555554,0,0,0.1555555555555554,114.79999999999988,0)" xlink:href="#z"/><use transform="matrix(0.1555555555555554,0,0,0.1555555555555554,145.91111111111096,0)" xlink:href="#y"/><use transform="matrix(0.1555555555555554,0,0,0.1555555555555554,173.91111111111093,0)" xlink:href="#w"/><use transform="matrix(0.1555555555555554,0,0,0.1555555555555554,198.64444444444425,0)" xlink:href="#A"/></g><path fill="#fff" d="M102-19l42 4-3 15H8l3-15 43-4 31-177-44 12 3-15 73-39h23" id="B"/><g id="e"><use transform="matrix(0.13290205425036872,0,0,0.13290205425036872,0,0)" xlink:href="#B"/><path fill="#fff" d="M-2.4 2.94h28.72V7.5h-28.7z"/></g><use transform="matrix(0.13290205425036872,0,0,0.13290205425036872,0,0)" xlink:href="#q" id="f"/><path fill="#fff" d="M84-170c49 0 66 33 63 87H46c-8 60 38 80 95 63v10C128-2 108 4 88 4 34 4 14-29 14-84c-1-54 22-86 70-86zm33 73c12-57-57-82-69-24-1 7-2 15-2 24h71" id="C"/><path fill="#fff" d="M124-13C89 8 26 15 26-45v-108c-8-3-24 2-21-12h50v118c-3 37 42 32 69 25v-131l-25-4v-8h54v153c8 3 24-2 21 12h-48" id="D"/><path fill="#fff" d="M125-118c4-37-41-34-68-26v132l23 4v8H8C5-13 21-9 28-12v-141c-7-3-23 1-20-12h47l2 13c31-23 98-29 98 31v109c7 3 23-1 20 12h-72v-8l22-4v-106" id="E"/><g id="g"><use transform="matrix(0.13290205425036872,0,0,0.13290205425036872,0,0)" xlink:href="#u"/><use transform="matrix(0.13290205425036872,0,0,0.13290205425036872,15.815344455793877,0)" xlink:href="#C"/><use transform="matrix(0.13290205425036872,0,0,0.13290205425036872,36.946771081602506,0)" xlink:href="#s"/><use transform="matrix(0.13290205425036872,0,0,0.13290205425036872,50.23697650663938,0)" xlink:href="#D"/><use transform="matrix(0.13290205425036872,0,0,0.13290205425036872,74.15934627170574,0)" xlink:href="#u"/><use transform="matrix(0.13290205425036872,0,0,0.13290205425036872,89.97469072749962,0)" xlink:href="#E"/></g><path fill="#fff" d="M75-131c50 2 93 3 93-48 0-46-48-41-93-41v89zm0 115c55 4 111 6 111-51 0-53-58-48-111-48v99zm148-52C223 24 102-3 10 0v-9l31-5v-208l-31-4v-10c77 6 193-24 194 56 0 33-20 48-48 54 36 5 67 20 67 58" id="F"/><path fill="#fff" d="M47-200c-23 0-25-39 0-38 13 0 18 7 20 19-1 11-8 19-20 19zM65-12l28 4v8H8v-8l28-4v-141l-24-4v-8h53v153" id="G"/><path fill="#fff" d="M52-115c0 93 80 130 150 87l7-35h11l-1 55c-23 7-52 12-83 12C60 4 19-37 15-115c-5-113 97-141 201-114l1 51h-12l-5-30c-15-9-39-16-62-16-66 0-86 41-86 109" id="H"/><path fill="#fff" d="M90-170c52 0 76 32 76 87 0 54-24 87-77 87-51 0-75-34-75-87 0-54 24-87 76-87zM89-10c39 0 46-35 46-73 0-39-7-73-46-73-39 1-44 34-44 73s6 72 44 73" id="I"/><path fill="#fff" d="M164-154L98 4H85L17-153c-7-3-20 0-17-12h77v8l-26 4L99-38l46-115-26-4v-8h61v8" id="J"/><path fill="#fff" d="M45-37c13 0 21 8 21 21C67-2 57 4 45 5 33 4 23-2 24-16c0-13 8-21 21-21" id="K"/><g id="h"><use transform="matrix(0.13290205425036872,0,0,0.13290205425036872,0,0)" xlink:href="#F"/><use transform="matrix(0.13290205425036872,0,0,0.13290205425036872,31.896493020088492,0)" xlink:href="#G"/><use transform="matrix(0.13290205425036872,0,0,0.13290205425036872,45.186698445125366,0)" xlink:href="#s"/><use transform="matrix(0.13290205425036872,0,0,0.13290205425036872,58.47690387016223,0)" xlink:href="#H"/><use transform="matrix(0.13290205425036872,0,0,0.13290205425036872,90.37339689025073,0)" xlink:href="#I"/><use transform="matrix(0.13290205425036872,0,0,0.13290205425036872,114.2957666553171,0)" xlink:href="#E"/><use transform="matrix(0.13290205425036872,0,0,0.13290205425036872,138.21813642038347,0)" xlink:href="#J"/><use transform="matrix(0.13290205425036872,0,0,0.13290205425036872,162.14050618544988,0)" xlink:href="#C"/><use transform="matrix(0.13290205425036872,0,0,0.13290205425036872,183.27193281125847,0)" xlink:href="#u"/><use transform="matrix(0.13290205425036872,0,0,0.13290205425036872,199.08727726705234,0)" xlink:href="#s"/><use transform="matrix(0.13290205425036872,0,0,0.13290205425036872,212.37748269208922,0)" xlink:href="#C"/><use transform="matrix(0.13290205425036872,0,0,0.13290205425036872,233.50890931789783,0)" xlink:href="#u"/><use transform="matrix(0.13290205425036872,0,0,0.13290205425036872,246.66621268868434,0)" xlink:href="#K"/></g><path fill="#fff" d="M55 0v-9l38-5v-207c-22 1-53 0-70 4l-5 37H7v-56h207v56h-12l-5-37-70-3v206l37 5v9H55" id="L"/><path fill="#fff" d="M141-152c28 39 5 97-54 97-9 0-20-2-27-3L49-35c29 22 130-14 124 52-4 45-38 57-88 61C21 83-8 26 45-2 33-6 22-15 21-31l28-31c-19-9-28-26-28-51-2-51 53-65 100-52l38-20 7 8zM85 64c35 0 61-11 61-42 0-35-57-17-89-21-9 8-16 19-17 34 0 25 19 29 45 29zM52-113c1 26 7 46 35 44 28-1 34-16 35-44 0-26-6-43-34-43s-36 17-36 43" id="M"/><path fill="#fff" d="M108-235c-52 28-62 95-58 178 3 56 21 97 58 119v15C7 49-17-153 67-223c12-10 25-19 41-27v15" id="N"/><path fill="#fff" d="M10 0v-9l31-5v-208l-31-4v-10h95v10l-30 4v93h110v-93l-30-4v-10h94v10l-30 4v208l30 5v9h-94v-9l30-5v-99H75v99l30 5v9H10" id="O"/><path fill="#fff" d="M81-9v9H4v-9l26-5 81-224h33l83 224 30 5v9h-99v-9l31-5-23-68H73L49-14zm38-203L78-98h82" id="P"/><path fill="#fff" d="M24-231c66-21 156 2 128 81C132-92 78-66 39-27h121V0H16v-26l59-54c26-25 47-47 47-97 0-48-47-57-81-37l-6 29H24v-46" id="Q"/><path fill="#fff" d="M134-68c4-52-44-63-88-51H29v-117h119v27H45v75c60-10 121-2 121 64C166 3 87 15 23-4l-2-50h12c1 28 14 43 47 43 39 0 51-20 54-57" id="R"/><path fill="#fff" d="M48-126c45-28 121-18 121 53 0 50-25 77-72 77-63 0-80-54-82-120-3-88 52-142 140-116v40h-12c2-42-66-39-79-8-8 20-16 43-16 74zm0 11c2 50 2 105 49 105 33 0 37-26 40-60 5-60-49-61-89-45" id="S"/><g id="i"><use transform="matrix(0.13290205425036872,0,0,0.13290205425036872,0,0)" xlink:href="#L"/><use transform="matrix(0.13290205425036872,0,0,0.13290205425036872,25.782998524571532,0)" xlink:href="#I"/><use transform="matrix(0.13290205425036872,0,0,0.13290205425036872,49.7053682896379,0)" xlink:href="#r"/><use transform="matrix(0.13290205425036872,0,0,0.13290205425036872,76.28577913971165,0)" xlink:href="#s"/><use transform="matrix(0.13290205425036872,0,0,0.13290205425036872,89.57598456474854,0)" xlink:href="#u"/><use transform="matrix(0.13290205425036872,0,0,0.13290205425036872,105.39132902054239,0)" xlink:href="#G"/><use transform="matrix(0.13290205425036872,0,0,0.13290205425036872,118.68153444557927,0)" xlink:href="#E"/><use transform="matrix(0.13290205425036872,0,0,0.13290205425036872,142.60390421064565,0)" xlink:href="#M"/><use transform="matrix(0.13290205425036872,0,0,0.13290205425036872,166.52627397571203,0)" xlink:href="#N"/><use transform="matrix(0.13290205425036872,0,0,0.13290205425036872,182.3416184315059,0)" xlink:href="#r"/><use transform="matrix(0.13290205425036872,0,0,0.13290205425036872,208.92202928157965,0)" xlink:href="#O"/><use transform="matrix(0.13290205425036872,0,0,0.13290205425036872,243.34366133242514,0)" xlink:href="#P"/><use transform="matrix(0.13290205425036872,0,0,0.13290205425036872,277.76529338327066,0)" xlink:href="#Q"/><use transform="matrix(0.13290205425036872,0,0,0.13290205425036872,301.68766314833704,0)" xlink:href="#R"/><use transform="matrix(0.13290205425036872,0,0,0.13290205425036872,325.6100329134034,0)" xlink:href="#S"/><use transform="matrix(0.13290205425036872,0,0,0.13290205425036872,349.5324026784698,0)" xlink:href="#K"/></g><path fill="#fff" d="M12-250C113-222 137-19 52 49 40 59 28 69 12 77V62C56 37 70-16 70-87c0-70-13-123-58-148v-15" id="T"/><path fill="#fff" d="M126-118c4-37-42-32-68-25v131l24 4v8H8C5-13 21-9 28-12v-141c-7-3-23 1-20-12h48l1 13c22-15 77-30 92 2 32-22 104-36 104 29v109c8 3 24-2 21 12h-75v-8l25-4v-106c3-39-45-31-72-24 7 37 1 88 3 130l25 4v8h-78v-8l24-4v-106" id="U"/><path fill="#fff" d="M166-85c3 67-44 102-111 85l1 64 29 4v9H6v-9l21-4v-217c-7-3-22 1-19-12h46l1 9c11-8 26-14 45-14 47 2 64 36 66 85zM56-13c53 14 83-14 78-72 7-53-33-79-78-60v132" id="V"/><path fill="#fff" d="M41-130c7 48 86 23 86 84 0 56-69 57-112 41v-40c20 0 9 29 31 31 35 19 77-26 41-50-27-18-72-13-72-59 0-50 58-52 100-41v36c-19 1-8-25-28-25-21-7-50-1-46 23" id="W"/><path fill="#fff" d="M126-119c3-38-42-31-69-25v132l23 4v8H7v-8l21-4v-226l-24-4v-8h53l-1 98c31-22 99-31 99 31v109c7 3 23-1 20 12h-71v-8l22-4v-107" id="X"/><g id="j"><use transform="matrix(0.13290205425036872,0,0,0.13290205425036872,0,0)" xlink:href="#H"/><use transform="matrix(0.13290205425036872,0,0,0.13290205425036872,31.896493020088492,0)" xlink:href="#u"/><use transform="matrix(0.13290205425036872,0,0,0.13290205425036872,47.71183747588237,0)" xlink:href="#C"/><use transform="matrix(0.13290205425036872,0,0,0.13290205425036872,68.84326410169099,0)" xlink:href="#t"/><use transform="matrix(0.13290205425036872,0,0,0.13290205425036872,89.97469072749962,0)" xlink:href="#s"/><use transform="matrix(0.13290205425036872,0,0,0.13290205425036872,103.2648961525365,0)" xlink:href="#C"/><use transform="matrix(0.13290205425036872,0,0,0.13290205425036872,124.39632277834512,0)" xlink:href="#N"/><use transform="matrix(0.13290205425036872,0,0,0.13290205425036872,140.211667234139,0)" xlink:href="#T"/><use transform="matrix(0.13290205425036872,0,0,0.13290205425036872,156.02701168993286,0)" xlink:href="#K"/><use transform="matrix(0.13290205425036872,0,0,0.13290205425036872,167.98819657246605,0)" xlink:href="#H"/><use transform="matrix(0.13290205425036872,0,0,0.13290205425036872,199.88468959255454,0)" xlink:href="#I"/><use transform="matrix(0.13290205425036872,0,0,0.13290205425036872,223.80705935762091,0)" xlink:href="#U"/><use transform="matrix(0.13290205425036872,0,0,0.13290205425036872,261.01963454772414,0)" xlink:href="#V"/><use transform="matrix(0.13290205425036872,0,0,0.13290205425036872,284.9420043127905,0)" xlink:href="#D"/><use transform="matrix(0.13290205425036872,0,0,0.13290205425036872,308.8643740778569,0)" xlink:href="#s"/><use transform="matrix(0.13290205425036872,0,0,0.13290205425036872,322.1545795028937,0)" xlink:href="#C"/><use transform="matrix(0.13290205425036872,0,0,0.13290205425036872,343.28600612870235,0)" xlink:href="#O"/><use transform="matrix(0.13290205425036872,0,0,0.13290205425036872,377.70763817954787,0)" xlink:href="#t"/><use transform="matrix(0.13290205425036872,0,0,0.13290205425036872,398.8390648053565,0)" xlink:href="#W"/><use transform="matrix(0.13290205425036872,0,0,0.13290205425036872,417.4453524004081,0)" xlink:href="#X"/></g><path fill="#fff" d="M75-17c87 13 134-18 134-103 0-78-51-106-134-100v203zm171-102C246 5 139 7 10 0v-9l31-5v-208l-31-4v-10h107c82 0 129 35 129 117" id="Y"/><path fill="#fff" d="M65-12l28 4v8H7v-8l28-4v-226l-28-4v-8h58v238" id="Z"/><path fill="#fff" d="M45-84c0 64 52 80 104 63 1 25-30 25-55 25-56 0-80-32-80-88 0-76 62-98 131-80v46h-10c-5-15-4-31-23-35-47-10-67 21-67 69" id="aa"/><g id="k"><use transform="matrix(0.13290205425036872,0,0,0.13290205425036872,0,0)" xlink:href="#N"/><use transform="matrix(0.13290205425036872,0,0,0.13290205425036872,15.815344455793877,0)" xlink:href="#W"/><use transform="matrix(0.13290205425036872,0,0,0.13290205425036872,34.421632050845496,0)" xlink:href="#Y"/><use transform="matrix(0.13290205425036872,0,0,0.13290205425036872,68.84326410169099,0)" xlink:href="#t"/><use transform="matrix(0.13290205425036872,0,0,0.13290205425036872,89.97469072749962,0)" xlink:href="#s"/><use transform="matrix(0.13290205425036872,0,0,0.13290205425036872,103.2648961525365,0)" xlink:href="#t"/><use transform="matrix(0.13290205425036872,0,0,0.13290205425036872,124.39632277834512,0)" xlink:href="#K"/><use transform="matrix(0.13290205425036872,0,0,0.13290205425036872,136.3575076608783,0)" xlink:href="#r"/><use transform="matrix(0.13290205425036872,0,0,0.13290205425036872,162.93791851095204,0)" xlink:href="#C"/><use transform="matrix(0.13290205425036872,0,0,0.13290205425036872,184.06934513676066,0)" xlink:href="#Z"/><use transform="matrix(0.13290205425036872,0,0,0.13290205425036872,197.35955056179753,0)" xlink:href="#C"/><use transform="matrix(0.13290205425036872,0,0,0.13290205425036872,218.49097718760615,0)" xlink:href="#aa"/><use transform="matrix(0.13290205425036872,0,0,0.13290205425036872,239.62240381341476,0)" xlink:href="#s"/></g><path fill="#fff" d="M161-154L85 37C75 66 49 86 8 75V39c18-2 6 24 29 21 30-4 38-32 47-58L21-153c-7-3-20 0-17-12h77v8l-26 4 45 116 43-116-26-4v-8h62v8" id="ab"/><g id="l"><use transform="matrix(0.13290205425036872,0,0,0.13290205425036872,0,0)" xlink:href="#N"/><use transform="matrix(0.13290205425036872,0,0,0.13290205425036872,15.815344455793877,0)" xlink:href="#H"/><use transform="matrix(0.13290205425036872,0,0,0.13290205425036872,47.71183747588237,0)" xlink:href="#I"/><use transform="matrix(0.13290205425036872,0,0,0.13290205425036872,71.63420724094874,0)" xlink:href="#E"/><use transform="matrix(0.13290205425036872,0,0,0.13290205425036872,95.55657700601512,0)" xlink:href="#J"/><use transform="matrix(0.13290205425036872,0,0,0.13290205425036872,119.4789467710815,0)" xlink:href="#C"/><use transform="matrix(0.13290205425036872,0,0,0.13290205425036872,140.6103733968901,0)" xlink:href="#u"/><use transform="matrix(0.13290205425036872,0,0,0.13290205425036872,156.425717852684,0)" xlink:href="#s"/><use transform="matrix(0.13290205425036872,0,0,0.13290205425036872,169.71592327772086,0)" xlink:href="#K"/><use transform="matrix(0.13290205425036872,0,0,0.13290205425036872,181.67710816025405,0)" xlink:href="#L"/><use transform="matrix(0.13290205425036872,0,0,0.13290205425036872,207.46010668482558,0)" xlink:href="#I"/><use transform="matrix(0.13290205425036872,0,0,0.13290205425036872,231.38247644989195,0)" xlink:href="#F"/><use transform="matrix(0.13290205425036872,0,0,0.13290205425036872,263.27896946998044,0)" xlink:href="#ab"/><use transform="matrix(0.13290205425036872,0,0,0.13290205425036872,287.2013392350468,0)" xlink:href="#s"/><use transform="matrix(0.13290205425036872,0,0,0.13290205425036872,300.49154466008366,0)" xlink:href="#C"/><use transform="matrix(0.13290205425036872,0,0,0.13290205425036872,321.6229712858923,0)" xlink:href="#T"/><use transform="matrix(0.13290205425036872,0,0,0.13290205425036872,337.43831574168615,0)" xlink:href="#K"/></g><path fill="#fff" d="M199-173c-1 36-21 56-49 65l64 94 26 5v9h-57l-66-103H75v89l35 5v9H13v-9l28-5v-208l-31-4v-10c80 4 190-20 189 63zM75-119c50 2 89-1 89-51 0-49-39-52-89-50v101" id="ac"/><path fill="#fff" d="M90-236h35l-11 85h-13zm-68 0h35l-11 85H33" id="ad"/><path fill="#fff" d="M42-37c43 0 23 74-4 81-7 4-14 8-24 11V42c17-5 29-14 31-30C42-2 20 1 21-18c0-12 9-19 21-19" id="ae"/><g id="m"><use transform="matrix(0.13290205425036872,0,0,0.13290205425036872,0,0)" xlink:href="#L"/><use transform="matrix(0.13290205425036872,0,0,0.13290205425036872,25.782998524571532,0)" xlink:href="#I"/><use transform="matrix(0.13290205425036872,0,0,0.13290205425036872,49.7053682896379,0)" xlink:href="#P"/><use transform="matrix(0.13290205425036872,0,0,0.13290205425036872,84.12700034048339,0)" xlink:href="#u"/><use transform="matrix(0.13290205425036872,0,0,0.13290205425036872,99.94234479627727,0)" xlink:href="#u"/><use transform="matrix(0.13290205425036872,0,0,0.13290205425036872,115.75768925207116,0)" xlink:href="#t"/><use transform="matrix(0.13290205425036872,0,0,0.13290205425036872,136.88911587787976,0)" xlink:href="#ab"/><use transform="matrix(0.13290205425036872,0,0,0.13290205425036872,160.81148564294614,0)" xlink:href="#N"/><use transform="matrix(0.13290205425036872,0,0,0.13290205425036872,176.62683009874002,0)" xlink:href="#T"/><use transform="matrix(0.13290205425036872,0,0,0.13290205425036872,192.4421745545339,0)" xlink:href="#T"/><use transform="matrix(0.13290205425036872,0,0,0.13290205425036872,208.25751901032777,0)" xlink:href="#T"/><use transform="matrix(0.13290205425036872,0,0,0.13290205425036872,224.07286346612165,0)" xlink:href="#K"/><use transform="matrix(0.13290205425036872,0,0,0.13290205425036872,236.03404834865484,0)" xlink:href="#ac"/><use transform="matrix(0.13290205425036872,0,0,0.13290205425036872,267.9305413687433,0)" xlink:href="#C"/><use transform="matrix(0.13290205425036872,0,0,0.13290205425036872,289.06196799455194,0)" xlink:href="#V"/><use transform="matrix(0.13290205425036872,0,0,0.13290205425036872,312.9843377596183,0)" xlink:href="#Z"/><use transform="matrix(0.13290205425036872,0,0,0.13290205425036872,326.27454318465516,0)" xlink:href="#t"/><use transform="matrix(0.13290205425036872,0,0,0.13290205425036872,347.4059698104638,0)" xlink:href="#aa"/><use transform="matrix(0.13290205425036872,0,0,0.13290205425036872,368.5373964362724,0)" xlink:href="#C"/><use transform="matrix(0.13290205425036872,0,0,0.13290205425036872,389.668823062081,0)" xlink:href="#N"/><use transform="matrix(0.13290205425036872,0,0,0.13290205425036872,405.4841675178749,0)" xlink:href="#ad"/><use transform="matrix(0.13290205425036872,0,0,0.13290205425036872,424.8878674384287,0)" xlink:href="#q"/><use transform="matrix(0.13290205425036872,0,0,0.13290205425036872,440.7032118942226,0)" xlink:href="#ad"/><use transform="matrix(0.13290205425036872,0,0,0.13290205425036872,460.1069118147764,0)" xlink:href="#ae"/><use transform="matrix(0.13290205425036872,0,0,0.13290205425036872,472.0680966973096,0)" xlink:href="#ad"/><use transform="matrix(0.13290205425036872,0,0,0.13290205425036872,491.47179661786345,0)" xlink:href="#ad"/><use transform="matrix(0.13290205425036872,0,0,0.13290205425036872,510.8754965384173,0)" xlink:href="#T"/></g><path fill="#fff" d="M172-188c0 86-82 110-138 152h118l-7 36H-4l5-33c49-43 111-74 122-151 5-36-37-45-60-27l-13 34H35l9-54c50-12 128-14 128 43" id="af"/><g id="n"><use transform="matrix(0.13580246913580238,0,0,0.13580246913580238,0,0)" xlink:href="#af"/><path fill="#fff" d="M-2.44 3H26.9v4.66H-2.45z"/></g><path fill="#fff" d="M10-9l31-5v-208l-31-4v-10h177v57h-11l-6-38c-28-4-63-3-95-3v92h63l6-28h11v73h-11l-6-29H75v96l105-3 10-43h12l-3 62H10v-9" id="ag"/><path fill="#fff" d="M13-81c0-71 46-101 114-85l-1-72-28-4v-8h57v238c8 3 24-2 21 12h-47l-2-12C80 23 13-1 13-81zm77-74c-37 1-44 33-45 74 0 38 9 66 45 66 14 0 27-3 36-7v-130c-10-1-24-3-36-3" id="ah"/><g id="o"><use transform="matrix(0.13580246913580238,0,0,0.13580246913580238,0,0)" xlink:href="#ag"/><use transform="matrix(0.13580246913580238,0,0,0.13580246913580238,29.74074074074072,0)" xlink:href="#E"/><use transform="matrix(0.13580246913580238,0,0,0.13580246913580238,54.18518518518515,0)" xlink:href="#ah"/></g></defs></g></svg>