<svg xmlns="http://www.w3.org/2000/svg" xmlns:xlink="http://www.w3.org/1999/xlink" xmlns:lucid="lucid" width="923.82" height="2138.5"><g transform="translate(-389.5925925925926 -80)" lucid:page-tab-id="0_0"><path d="M0 0h1870.87v2581.67H0z" fill="#fff"/><path d="M992.4 212.75c26.66 0 48.27 20.26 48.27 45.25 0 25-21.6 45.25-48.27 45.25H847.6c-26.66 0-48.27-20.26-48.27-45.25 0-25 21.6-45.25 48.27-45.25z" stroke="#0c7cba" stroke-width="3" fill="#3aa6dd"/><use xlink:href="#a" transform="matrix(1,0,0,1,804.3333333333334,217.75) translate(36.943271604938325 49.236111111111086)"/><use xlink:href="#b" transform="matrix(1,0,0,1,804.3333333333334,217.75) translate(73.60993827160496 49.236111111111086)"/><use xlink:href="#c" transform="matrix(1,0,0,1,804.3333333333334,217.75) translate(101.99265432098767 49.236111111111086)"/><path d="M919 305.75v33.47" stroke="#3aa6dd" stroke-width="2" fill="none"/><path d="M920 305.78h-2v-1.03h2z" fill="#3aa6dd"/><path d="M919 354.5l-4.62-14.28h9.27z" stroke="#3aa6dd" stroke-width="2" fill="#3aa6dd"/><path d="M800.67 106c0-3.3 2.68-6 6-6h228c3.3 0 6 2.7 6 6v83.33c0 3.32-2.7 6-6 6h-228c-3.32 0-6-2.68-6-6z" stroke="#000" stroke-opacity="0" stroke-width="3" fill="#fff" fill-opacity="0"/><use xlink:href="#d" transform="matrix(1,0,0,1,805.6666666666667,105) translate(65.71604938271612 59.5763888888888)"/><path d="M750.3 365.23c0-3.32 2.67-6 6-6h324c3.3 0 6 2.68 6 6v167.73c0 3.3-2.7 6-6 6h-324c-3.33 0-6-2.7-6-6z" stroke="#3aa6dd" stroke-width="3" fill="#3aa6dd"/><use xlink:href="#e" transform="matrix(1,0,0,1,762.2885970213176,371.225) translate(2.8259259259259863 58.50833333333332)"/><use xlink:href="#f" transform="matrix(1,0,0,1,762.2885970213176,371.225) translate(34.492592592592636 58.50833333333332)"/><use xlink:href="#g" transform="matrix(1,0,0,1,762.2885970213176,371.225) translate(59.00493827160497 58.50833333333332)"/><use xlink:href="#h" transform="matrix(1,0,0,1,762.2885970213176,371.225) translate(239.36666666666662 58.50833333333332)"/><use xlink:href="#i" transform="matrix(1,0,0,1,762.2885970213176,371.225) translate(7.045679012345772 109.70833333333329)"/><use xlink:href="#j" transform="matrix(1,0,0,1,762.2885970213176,371.225) translate(84.08271604938278 109.70833333333329)"/><path d="M914.23 596.57c3.2-.9 8.35-.9 11.54 0l228.46 64.73c3.2.9 3.2 2.37 0 3.27L925.77 729.3c-3.2.9-8.35.9-11.54 0l-228.46-64.73c-3.2-.9-3.2-2.37 0-3.27z" stroke="#005c8e" stroke-width="2" fill="#3aa6dd"/><use xlink:href="#k" transform="matrix(1,0,0,1,685,599.9333333333334) translate(59.696358024691484 69.25444444444443)"/><path d="M919.68 541.46v26.07c0 .1.07.16.16.16.1 0 .16.07.16.16v8.57" stroke="#3aa6dd" stroke-width="2" fill="none"/><path d="M920.68 541.48h-2v-1.02h2z" fill="#3aa6dd"/><path d="M920 591.7l-4.64-14.27h9.28z" stroke="#3aa6dd" stroke-width="2" fill="#3aa6dd"/><path d="M921 739.56h-2v-7.62h2z" fill="#3aa6dd"/><path d="M920.43 730.98l.57-.07v1.06h-2v-1.12zM920 795l-4.15-12.78h8.3z" fill="#3aa6dd"/><path d="M920 798.23l-5.2-16h2.1l3.1 9.53 3.1-9.54h2.1z" fill="#3aa6dd"/><use xlink:href="#l" transform="matrix(1,0,0,1,883.9012345679013,739.5555555555592) translate(0 28.444444444444436)"/><path d="M730 805.73c0-3.3 2.7-6 6-6h368c3.3 0 6 2.7 6 6v124.54c0 3.3-2.7 6-6 6H736c-3.3 0-6-2.7-6-6z" stroke="#3aa6dd" stroke-width="3" fill="#3aa6dd"/><use xlink:href="#m" transform="matrix(1,0,0,1,742,811.7333333333333) translate(0.2512345679013208 44.4444444444444)"/><use xlink:href="#n" transform="matrix(1,0,0,1,742,811.7333333333333) translate(28.584567901234617 44.4444444444444)"/><use xlink:href="#o" transform="matrix(1,0,0,1,742,811.7333333333333) translate(54.96111111111114 44.4444444444444)"/><use xlink:href="#p" transform="matrix(1,0,0,1,742,811.7333333333333) translate(28.827160493827222 97.24444444444437)"/><path d="M441 1725.6l.7 2.64 1.8 1.78 2.63.7H663.1v2H445.88l-3.42-.9-2.53-2.54-.92-3.4v-507.2h2zM680.6 663.93H446.14l-2.64.72-1.8 1.77-.7 2.65V1176h-2V668.8l.92-3.4 2.53-2.54 3.42-.93H680.6z" fill="#3aa6dd"/><path d="M681.6 662.93l1.47 1h-2.5v-2h2.5zM678.37 1731.73l-14.26 4.64v-9.27z" fill="#3aa6dd"/><path d="M681.6 1731.73l-18.5 6.02v-12.03zm-16.5 3.26l10.04-3.27-10.03-3.26z" fill="#3aa6dd"/><use xlink:href="#q" transform="matrix(1,0,0,1,400.5925925925926,1176.0000000000002) translate(0 28.444444444444436)"/><path d="M914.23 1006.7c3.2-.9 8.35-.9 11.54 0l228.46 64.73c3.2.9 3.2 2.37 0 3.27l-228.46 64.73c-3.2.9-8.35.9-11.54 0l-228.46-64.73c-3.2-.9-3.2-2.37 0-3.27z" stroke="#005c8e" stroke-width="2" fill="#3aa6dd"/><use xlink:href="#r" transform="matrix(1,0,0,1,685,1010.0666666666667) translate(75.91851851851854 71.08888888888889)"/><path d="M920 938.77v47.8" stroke="#3aa6dd" stroke-width="2" fill="none"/><path d="M921 938.8h-2v-1.03h2z" fill="#3aa6dd"/><path d="M920 1001.83l-4.64-14.27h9.28z" stroke="#3aa6dd" stroke-width="2" fill="#3aa6dd"/><path d="M921 1196.8h-2v-1.36h2zm0-44.03h-2v-10.7h2z" fill="#3aa6dd"/><path d="M920.43 1141.1l.57-.06v1.05h-2v-1.13zM920 1212.06l-4.64-14.26h9.28z" fill="#3aa6dd"/><path d="M920 1215.3l-6-18.5h12zm-3.26-16.5l3.26 10.03 3.26-10.03z" fill="#3aa6dd"/><use xlink:href="#l" transform="matrix(1,0,0,1,883.9012345679013,1152.7747985992885) translate(0 28.444444444444436)"/><path d="M730 1222.8c0-3.3 2.7-6 6-6h368c3.3 0 6 2.7 6 6v163.47c0 3.3-2.7 6-6 6H736c-3.3 0-6-2.7-6-6z" stroke="#3aa6dd" stroke-width="3" fill="#3aa6dd"/><use xlink:href="#s" transform="matrix(1,0,0,1,742,1228.8) translate(122.29567901234569 25.24444444444444)"/><use xlink:href="#t" transform="matrix(1,0,0,1,742,1228.8) translate(145.96234567901234 25.24444444444444)"/><use xlink:href="#u" transform="matrix(1,0,0,1,742,1228.8) translate(164.2820987654321 25.24444444444444)"/><use xlink:href="#v" transform="matrix(1,0,0,1,742,1228.8) translate(215.91049382716048 25.24444444444444)"/><use xlink:href="#w" transform="matrix(1,0,0,1,742,1228.8) translate(7.424691358024717 63.1111111111111)"/><use xlink:href="#x" transform="matrix(1,0,0,1,742,1228.8) translate(51.16419753086423 100.97777777777776)"/><use xlink:href="#y" transform="matrix(1,0,0,1,742,1228.8) translate(81.88703703703706 138.84444444444443)"/><path d="M920 1394.77V1448" stroke="#3aa6dd" stroke-width="2" fill="none"/><path d="M921 1394.8h-2v-1.03h2z" fill="#3aa6dd"/><path d="M920 1463.26l-4.64-14.26h9.28z" stroke="#3aa6dd" stroke-width="2" fill="#3aa6dd"/><path d="M730 1474c0-3.3 2.7-6 6-6h368c3.3 0 6 2.7 6 6v108c0 3.3-2.7 6-6 6H736c-3.3 0-6-2.7-6-6z" stroke="#3aa6dd" stroke-width="3" fill="#3aa6dd"/><use xlink:href="#z" transform="matrix(1,0,0,1,742,1480) translate(38.222222222222285 57.46666666666664)"/><use xlink:href="#A" transform="matrix(1,0,0,1,742,1480) translate(75.22222222222226 57.46666666666664)"/><use xlink:href="#B" transform="matrix(1,0,0,1,742,1480) translate(103.862962962963 57.46666666666664)"/><use xlink:href="#C" transform="matrix(1,0,0,1,742,1480) translate(209.2444444444444 57.46666666666664)"/><use xlink:href="#D" transform="matrix(1,0,0,1,742,1480) translate(249.39629629629624 57.46666666666664)"/><path d="M581 1521.87l.7 2.64 1.8 1.8 2.63.7H710v2H585.87l-3.42-.92-2.53-2.53-.92-3.42V1345.3h2zm99.6-447.8h-94.47l-2.64.7-1.8 1.8-.7 2.63v223.44h-2v-223.7l.92-3.42 2.53-2.53 3.42-.93h94.74z" fill="#3aa6dd"/><path d="M681.6 1073.07l1.47 1h-2.5v-2h2.5zM725.26 1528l-14.26 4.64v-9.28z" fill="#3aa6dd"/><path d="M728.5 1528l-18.5 6v-12zm-16.5 3.26l10.03-3.26-10.03-3.26z" fill="#3aa6dd"/><use xlink:href="#q" transform="matrix(1,0,0,1,540.5925925925926,1302.6448102785178) translate(0 28.444444444444436)"/><path d="M914.23 1665.37c3.2-.9 8.35-.9 11.54 0l228.46 64.73c3.2.9 3.2 2.37 0 3.27l-228.46 64.73c-3.2.9-8.35.9-11.54 0l-228.46-64.73c-3.2-.9-3.2-2.37 0-3.27z" stroke="#005c8e" stroke-width="2" fill="#3aa6dd"/><use xlink:href="#E" transform="matrix(1,0,0,1,685.0000000000002,1668.7333333333331) translate(90.35802469135817 71.97777777777777)"/><use xlink:href="#F" transform="matrix(1,0,0,1,685.0000000000002,1668.7333333333331) translate(320.6629629629629 71.97777777777777)"/><use xlink:href="#G" transform="matrix(1,0,0,1,685.0000000000002,1668.7333333333331) translate(357.19753086419746 71.97777777777777)"/><path d="M920 1590.5v54.73" stroke="#3aa6dd" stroke-width="2" fill="none"/><path d="M921 1590.53h-2v-1.03h2z" fill="#3aa6dd"/><path d="M920 1660.5l-4.64-14.27h9.28z" stroke="#3aa6dd" stroke-width="2" fill="#3aa6dd"/><path d="M921.67 1880h-2v-14.68h2zm-.67-57.34h-2v-21.92h2z" fill="#3aa6dd"/><path d="M920.43 1799.78l.57-.07v1.06h-2v-1.12zM920.67 1895.26l-4.64-14.26h9.27z" fill="#3aa6dd"/><path d="M920.67 1898.5l-6.02-18.5h12.03zm-3.26-16.5l3.27 10.03 3.26-10.03z" fill="#3aa6dd"/><g><use xlink:href="#l" transform="matrix(1,0,0,1,883.9012345679015,1822.6575601748943) translate(0 28.444444444444436)"/></g><path d="M730.67 1906c0-3.3 2.68-6 6-6h368c3.3 0 6 2.7 6 6v135.73c0 3.32-2.7 6-6 6h-368c-3.32 0-6-2.68-6-6z" stroke="#3aa6dd" stroke-width="3" fill="#3aa6dd"/><g><use xlink:href="#H" transform="matrix(1,0,0,1,742.6666666666667,1912) translate(8.34814814814834 39.466666666666626)"/><use xlink:href="#I" transform="matrix(1,0,0,1,742.6666666666667,1912) translate(45.3481481481483 39.466666666666626)"/><use xlink:href="#J" transform="matrix(1,0,0,1,742.6666666666667,1912) translate(73.98888888888901 39.466666666666626)"/><use xlink:href="#K" transform="matrix(1,0,0,1,742.6666666666667,1912) translate(37.53703703703724 98.66666666666657)"/><use xlink:href="#L" transform="matrix(1,0,0,1,742.6666666666667,1912) translate(77.68888888888904 98.66666666666657)"/></g><path d="M1264 2147.38l-.9 3.42-2.54 2.53-3.42.92h-198.18v-2h197.92l2.64-.7 1.77-1.8.7-2.63V2022.8h2zm-3.44-415.72l2.53 2.53.9 3.4v242.53h-2v-242.26l-.7-2.65-1.78-1.77-2.64-.72h-97.5v-2h97.76z" fill="#3aa6dd"/><path d="M1159.42 1732.73h-2.5l1.47-1-1.47-1h2.5zM1057.96 2157.9l-14.27-4.65 14.26-4.64z" fill="#3aa6dd"/><path d="M1058.96 2159.26l-18.5-6 18.5-6.02zm-12.03-6l10.03 3.25v-6.5z" fill="#3aa6dd"/><g><use xlink:href="#q" transform="matrix(1,0,0,1,1223.6018518518608,1980.1254851483093) translate(0 28.444444444444436)"/></g><path d="M990.7 2108c26.65 0 48.26 20.26 48.26 45.25 0 25-21.6 45.25-48.27 45.25H845.9c-26.67 0-48.28-20.26-48.28-45.25 0-25 21.6-45.25 48.27-45.25z" stroke="#0c7cba" stroke-width="3" fill="#3aa6dd"/><g><use xlink:href="#M" transform="matrix(1,0,0,1,802.621930354651,2113) translate(43.66549382716054 49.236111111111086)"/><use xlink:href="#b" transform="matrix(1,0,0,1,802.621930354651,2113) translate(80.33216049382719 49.236111111111086)"/><use xlink:href="#N" transform="matrix(1,0,0,1,802.621930354651,2113) translate(108.71487654320988 49.236111111111086)"/></g><path d="M920 2050.23V2088" stroke="#3aa6dd" stroke-width="2" fill="none"/><path d="M921 2050.26h-2v-1.03h2z" fill="#3aa6dd"/><path d="M920 2103.26l-4.64-14.26h9.28z" stroke="#3aa6dd" stroke-width="2" fill="#3aa6dd"/><defs><path fill="#fff" d="M113-239c43 0 61 26 61 72C174-84 154 4 72 4 31 4 12-24 12-70c0-81 18-169 101-169zm-21 26C66-175 31-51 76-16c51-17 46-93 54-155 4-33-13-62-38-42" id="O"/><g id="a"><use transform="matrix(0.13580246913580238,0,0,0.13580246913580238,0,0)" xlink:href="#O"/><path fill="#fff" d="M-2.44 3H26.9v4.66H-2.45z"/></g><path fill="#fff" d="M13-71v-27h94v27H13" id="P"/><use transform="matrix(0.13580246913580238,0,0,0.13580246913580238,0,0)" xlink:href="#P" id="b"/><path fill="#fff" d="M178-68c0 79-95 82-154 59v-54h12c1 35 22 52 60 52 50 0 69-58 33-82-39-24-105-21-105-85 0-67 86-66 142-53v49h-12l-6-29c-31-27-121-7-89 42 28 43 119 24 119 101" id="Q"/><path fill="#fff" d="M54-38c-1 25 24 26 44 20v12C71 10 25 9 25-35v-115H4c-2-14 14-10 21-15l18-38h11v38h38v15H54v112" id="R"/><path fill="#fff" d="M32-163c41-10 102-14 102 39v112c8 3 24-2 21 12h-45l-4-17C83 13 3 13 13-46c-2-50 45-50 92-51 4-36-5-70-42-56-6 2-12 4-16 6-4 7 0 23-15 20v-36zM42-47c0 41 41 33 63 22v-59c-34 1-63-1-63 37" id="S"/><path fill="#fff" d="M57-145c16-10 35-24 60-25v45c-19 1-8-30-40-17l-20 6v124l29 4v8H7v-8l21-4v-141c-8-3-24 2-21-12h48" id="T"/><g id="c"><use transform="matrix(0.13580246913580238,0,0,0.13580246913580238,0,0)" xlink:href="#Q"/><use transform="matrix(0.13580246913580238,0,0,0.13580246913580238,27.160493827160476,0)" xlink:href="#R"/><use transform="matrix(0.13580246913580238,0,0,0.13580246913580238,40.74074074074071,0)" xlink:href="#S"/><use transform="matrix(0.13580246913580238,0,0,0.13580246913580238,62.333333333333286,0)" xlink:href="#T"/><use transform="matrix(0.13580246913580238,0,0,0.13580246913580238,78.49382716049377,0)" xlink:href="#R"/></g><path fill="#333" d="M77-14l30 5v9H13v-9l30-5v-208l-30-4v-10h94v10l-30 4v208" id="U"/><path fill="#333" d="M125-118c4-37-41-34-68-26v132l23 4v8H8C5-13 21-9 28-12v-141c-7-3-23 1-20-12h47l2 13c31-23 98-29 98 31v109c7 3 23-1 20 12h-72v-8l22-4v-106" id="V"/><path fill="#333" d="M47-200c-23 0-25-39 0-38 13 0 18 7 20 19-1 11-8 19-20 19zM65-12l28 4v8H8v-8l28-4v-141l-24-4v-8h53v153" id="W"/><path fill="#333" d="M54-38c-1 25 24 26 44 20v12C71 10 25 9 25-35v-115H4c-2-14 14-10 21-15l18-38h11v38h38v15H54v112" id="X"/><g id="d"><use transform="matrix(0.19753086419753055,0,0,0.19753086419753055,0,0)" xlink:href="#U"/><use transform="matrix(0.19753086419753055,0,0,0.19753086419753055,23.506172839506135,0)" xlink:href="#V"/><use transform="matrix(0.19753086419753055,0,0,0.19753086419753055,59.061728395061635,0)" xlink:href="#W"/><use transform="matrix(0.19753086419753055,0,0,0.19753086419753055,78.8148148148147,0)" xlink:href="#X"/></g><path fill="#fff" d="M102-19l42 4-3 15H8l3-15 43-4 31-177-44 12 3-15 73-39h23" id="Y"/><g id="e"><use transform="matrix(0.11728395061728389,0,0,0.11728395061728389,0,0)" xlink:href="#Y"/><path fill="#fff" d="M-2.1 2.6H23.2v4.02H-2.1z"/></g><use transform="matrix(0.11728395061728389,0,0,0.11728395061728389,0,0)" xlink:href="#P" id="f"/><path fill="#fff" d="M77-14l30 5v9H13v-9l30-5v-208l-30-4v-10h94v10l-30 4v208" id="Z"/><path fill="#fff" d="M125-118c4-37-41-34-68-26v132l23 4v8H8C5-13 21-9 28-12v-141c-7-3-23 1-20-12h47l2 13c31-23 98-29 98 31v109c7 3 23-1 20 12h-72v-8l22-4v-106" id="aa"/><path fill="#fff" d="M47-200c-23 0-25-39 0-38 13 0 18 7 20 19-1 11-8 19-20 19zM65-12l28 4v8H8v-8l28-4v-141l-24-4v-8h53v153" id="ab"/><path fill="#fff" d="M108-235c-52 28-62 95-58 178 3 56 21 97 58 119v15C7 49-17-153 67-223c12-10 25-19 41-27v15" id="ac"/><path fill="#fff" d="M41-130c7 48 86 23 86 84 0 56-69 57-112 41v-40c20 0 9 29 31 31 35 19 77-26 41-50-27-18-72-13-72-59 0-50 58-52 100-41v36c-19 1-8-25-28-25-21-7-50-1-46 23" id="ad"/><path fill="#fff" d="M141-152c28 39 5 97-54 97-9 0-20-2-27-3L49-35c29 22 130-14 124 52-4 45-38 57-88 61C21 83-8 26 45-2 33-6 22-15 21-31l28-31c-19-9-28-26-28-51-2-51 53-65 100-52l38-20 7 8zM85 64c35 0 61-11 61-42 0-35-57-17-89-21-9 8-16 19-17 34 0 25 19 29 45 29zM52-113c1 26 7 46 35 44 28-1 34-16 35-44 0-26-6-43-34-43s-36 17-36 43" id="ae"/><g id="g"><use transform="matrix(0.11728395061728389,0,0,0.11728395061728389,0,0)" xlink:href="#Z"/><use transform="matrix(0.11728395061728389,0,0,0.11728395061728389,13.956790123456782,0)" xlink:href="#aa"/><use transform="matrix(0.11728395061728389,0,0,0.11728395061728389,35.067901234567884,0)" xlink:href="#ab"/><use transform="matrix(0.11728395061728389,0,0,0.11728395061728389,46.796296296296276,0)" xlink:href="#R"/><use transform="matrix(0.11851851851851847,0,0,0.11851851851851847,58.52469135802467,0)" xlink:href="#ac"/><use transform="matrix(0.11851851851851847,0,0,0.11851851851851847,72.62839506172837,0)" xlink:href="#ad"/><use transform="matrix(0.11851851851851847,0,0,0.11851851851851847,89.22098765432095,0)" xlink:href="#R"/><use transform="matrix(0.11851851851851847,0,0,0.11851851851851847,101.0728395061728,0)" xlink:href="#T"/><use transform="matrix(0.11851851851851847,0,0,0.11851851851851847,115.1765432098765,0)" xlink:href="#ab"/><use transform="matrix(0.11851851851851847,0,0,0.11851851851851847,127.02839506172836,0)" xlink:href="#aa"/><use transform="matrix(0.11851851851851847,0,0,0.11851851851851847,148.36172839506168,0)" xlink:href="#ae"/></g><path fill="#fff" d="M65-12l28 4v8H7v-8l28-4v-226l-28-4v-8h58v238" id="af"/><path fill="#fff" d="M42-37c43 0 23 74-4 81-7 4-14 8-24 11V42c17-5 29-14 31-30C42-2 20 1 21-18c0-12 9-19 21-19" id="ag"/><g id="h"><use transform="matrix(0.11851851851851847,0,0,0.11851851851851847,0,0)" xlink:href="#ad"/><use transform="matrix(0.11851851851851847,0,0,0.11851851851851847,16.592592592592585,0)" xlink:href="#S"/><use transform="matrix(0.11851851851851847,0,0,0.11851851851851847,35.43703703703702,0)" xlink:href="#af"/><use transform="matrix(0.11851851851851847,0,0,0.11851851851851847,47.28888888888887,0)" xlink:href="#R"/><use transform="matrix(0.11851851851851847,0,0,0.11851851851851847,59.14074074074072,0)" xlink:href="#ag"/></g><path fill="#fff" d="M124-13C89 8 26 15 26-45v-108c-8-3-24 2-21-12h50v118c-3 37 42 32 69 25v-131l-25-4v-8h54v153c8 3 24-2 21 12h-48" id="ah"/><g id="i"><use transform="matrix(0.11851851851851847,0,0,0.11851851851851847,0,0)" xlink:href="#ah"/><use transform="matrix(0.11851851851851847,0,0,0.11851851851851847,21.333333333333325,0)" xlink:href="#ab"/><use transform="matrix(0.11851851851851847,0,0,0.11851851851851847,33.185185185185176,0)" xlink:href="#aa"/><use transform="matrix(0.11851851851851847,0,0,0.11851851851851847,54.518518518518505,0)" xlink:href="#R"/></g><path fill="#fff" d="M13-81c0-71 46-101 114-85l-1-72-28-4v-8h57v238c8 3 24-2 21 12h-47l-2-12C80 23 13-1 13-81zm77-74c-37 1-44 33-45 74 0 38 9 66 45 66 14 0 27-3 36-7v-130c-10-1-24-3-36-3" id="ai"/><path fill="#fff" d="M84-170c49 0 66 33 63 87H46c-8 60 38 80 95 63v10C128-2 108 4 88 4 34 4 14-29 14-84c-1-54 22-86 70-86zm33 73c12-57-57-82-69-24-1 7-2 15-2 24h71" id="aj"/><path fill="#fff" d="M152 0h-7L59-203v189l32 5v9H10v-9l31-5v-208l-31-4v-10h72l76 180 84-180h68v10l-31 4v208l31 5v9h-96v-9l32-5v-189" id="ak"/><path fill="#fff" d="M90-170c52 0 76 32 76 87 0 54-24 87-77 87-51 0-75-34-75-87 0-54 24-87 76-87zM89-10c39 0 46-35 46-73 0-39-7-73-46-73-39 1-44 34-44 73s6 72 44 73" id="al"/><path fill="#fff" d="M104-123c39 3 61 21 62 59C167 7 83 12 19-4l-2-50h12c2 29 16 43 51 43 38 0 54-19 54-55 2-43-34-49-75-50v-14c37 0 64-7 64-48 0-47-47-56-81-36l-6 29H24v-46c51-13 135-13 131 51-2 34-20 52-51 57" id="am"/><path fill="#fff" d="M24-231c66-21 156 2 128 81C132-92 78-66 39-27h121V0H16v-26l59-54c26-25 47-47 47-97 0-48-47-57-81-37l-6 29H24v-46" id="an"/><path fill="#fff" d="M12-250C113-222 137-19 52 49 40 59 28 69 12 77V62C56 37 70-16 70-87c0-70-13-123-58-148v-15" id="ao"/><g id="j"><use transform="matrix(0.11851851851851847,0,0,0.11851851851851847,0,0)" xlink:href="#S"/><use transform="matrix(0.11851851851851847,0,0,0.11851851851851847,18.844444444444438,0)" xlink:href="#ai"/><use transform="matrix(0.11851851851851847,0,0,0.11851851851851847,40.17777777777776,0)" xlink:href="#af"/><use transform="matrix(0.11851851851851847,0,0,0.11851851851851847,52.02962962962961,0)" xlink:href="#aj"/><use transform="matrix(0.11851851851851847,0,0,0.11851851851851847,70.87407407407404,0)" xlink:href="#T"/><use transform="matrix(0.11851851851851847,0,0,0.11851851851851847,84.97777777777775,0)" xlink:href="#ak"/><use transform="matrix(0.11851851851851847,0,0,0.11851851851851847,122.90370370370366,0)" xlink:href="#al"/><use transform="matrix(0.11851851851851847,0,0,0.11851851851851847,144.23703703703697,0)" xlink:href="#ai"/><use transform="matrix(0.11851851851851847,0,0,0.11851851851851847,165.57037037037028,0)" xlink:href="#am"/><use transform="matrix(0.11851851851851847,0,0,0.11851851851851847,186.9037037037036,0)" xlink:href="#an"/><use transform="matrix(0.1061728395061728,0,0,0.1061728395061728,208.2370370370369,0)" xlink:href="#ao"/></g><path fill="#fff" d="M60-37c14 0 21 9 21 21S72 5 60 5C47 5 38-4 38-16s8-21 22-21zM41-236h38L68-68H52" id="ap"/><path fill="#fff" d="M45-37c13 0 21 8 21 21C67-2 57 4 45 5 33 4 23-2 24-16c0-13 8-21 21-21" id="aq"/><path fill="#fff" d="M203-222l-32-4v-10h81v10l-31 4V0h-17L59-212v198l32 5v9H10v-9l31-5v-208l-31-4v-10h72L203-61v-161" id="ar"/><path fill="#fff" d="M130-224c-62 0-78 43-78 106 0 64 16 108 78 108s78-45 78-108-16-106-78-106zm0 228C53 4 15-39 15-118c-1-80 37-120 115-120s115 42 115 120C245-39 207 4 130 4" id="as"/><path fill="#fff" d="M10-9l31-5v-208l-31-4v-10h177v57h-11l-6-38c-28-4-63-3-95-3v92h63l6-28h11v73h-11l-6-29H75v96l105-3 10-43h12l-3 62H10v-9" id="at"/><path fill="#fff" d="M126-118c4-37-42-32-68-25v131l24 4v8H8C5-13 21-9 28-12v-141c-7-3-23 1-20-12h48l1 13c22-15 77-30 92 2 32-22 104-36 104 29v109c8 3 24-2 21 12h-75v-8l25-4v-106c3-39-45-31-72-24 7 37 1 88 3 130l25 4v8h-78v-8l24-4v-106" id="au"/><path fill="#fff" d="M166-85c3 67-44 102-111 85l1 64 29 4v9H6v-9l21-4v-217c-7-3-22 1-19-12h46l1 9c11-8 26-14 45-14 47 2 64 36 66 85zM56-13c53 14 83-14 78-72 7-53-33-79-78-60v132" id="av"/><path fill="#fff" d="M161-154L85 37C75 66 49 86 8 75V39c18-2 6 24 29 21 30-4 38-32 47-58L21-153c-7-3-20 0-17-12h77v8l-26 4 45 116 43-116-26-4v-8h62v8" id="aw"/><g id="k"><use transform="matrix(0.08765432098765427,0,0,0.08765432098765427,0,0)" xlink:href="#ap"/><use transform="matrix(0.08765432098765427,0,0,0.08765432098765427,10.430864197530859,0)" xlink:href="#ad"/><use transform="matrix(0.08765432098765427,0,0,0.08765432098765427,22.702469135802456,0)" xlink:href="#R"/><use transform="matrix(0.08765432098765427,0,0,0.08765432098765427,31.467901234567883,0)" xlink:href="#T"/><use transform="matrix(0.08765432098765427,0,0,0.08765432098765427,41.89876543209874,0)" xlink:href="#ab"/><use transform="matrix(0.08765432098765427,0,0,0.08765432098765427,50.66419753086417,0)" xlink:href="#aa"/><use transform="matrix(0.08765432098765427,0,0,0.08765432098765427,66.44197530864194,0)" xlink:href="#ae"/><use transform="matrix(0.08765432098765427,0,0,0.08765432098765427,82.21975308641971,0)" xlink:href="#aq"/><use transform="matrix(0.08765432098765427,0,0,0.08765432098765427,90.10864197530859,0)" xlink:href="#Z"/><use transform="matrix(0.08765432098765427,0,0,0.08765432098765427,100.53950617283945,0)" xlink:href="#ad"/><use transform="matrix(0.08765432098765427,0,0,0.08765432098765427,112.81111111111105,0)" xlink:href="#ar"/><use transform="matrix(0.08765432098765427,0,0,0.08765432098765427,135.5135802469135,0)" xlink:href="#ah"/><use transform="matrix(0.08765432098765427,0,0,0.08765432098765427,151.29135802469128,0)" xlink:href="#af"/><use transform="matrix(0.08765432098765427,0,0,0.08765432098765427,160.0567901234567,0)" xlink:href="#af"/><use transform="matrix(0.08765432098765427,0,0,0.08765432098765427,168.8222222222221,0)" xlink:href="#as"/><use transform="matrix(0.08765432098765427,0,0,0.08765432098765427,191.5246913580246,0)" xlink:href="#T"/><use transform="matrix(0.08765432098765427,0,0,0.08765432098765427,201.95555555555543,0)" xlink:href="#at"/><use transform="matrix(0.08765432098765427,0,0,0.08765432098765427,221.15185185185172,0)" xlink:href="#au"/><use transform="matrix(0.08765432098765427,0,0,0.08765432098765427,245.69506172839493,0)" xlink:href="#av"/><use transform="matrix(0.08765432098765427,0,0,0.08765432098765427,261.47283950617265,0)" xlink:href="#R"/><use transform="matrix(0.08765432098765427,0,0,0.08765432098765427,270.23827160493806,0)" xlink:href="#aw"/><use transform="matrix(0.08765432098765427,0,0,0.08765432098765427,286.01604938271583,0)" xlink:href="#ac"/><use transform="matrix(0.08765432098765427,0,0,0.08765432098765427,296.4469135802467,0)" xlink:href="#ad"/><use transform="matrix(0.08765432098765427,0,0,0.08765432098765427,308.7185185185183,0)" xlink:href="#S"/><use transform="matrix(0.08765432098765427,0,0,0.08765432098765427,322.65555555555534,0)" xlink:href="#af"/><use transform="matrix(0.08765432098765427,0,0,0.08765432098765427,331.42098765432075,0)" xlink:href="#R"/><use transform="matrix(0.08765432098765427,0,0,0.08765432098765427,340.18641975308617,0)" xlink:href="#ao"/></g><path fill="#333" d="M54 0v-13l38-5v-199l-66 3-4 44H6v-66h229v66h-17l-4-44c-17-2-44-3-67-3v199l38 5V0H54" id="ax"/><path fill="#333" d="M132-132c-21 0-37 9-50 16v100l26 4V0H10v-12l21-4v-133l-21-5v-11h69l2 34c17-18 35-41 71-40v61c-17 3-14-14-20-22" id="ay"/><path fill="#333" d="M73-51c-3 31 27 38 51 25v-123l-16-5v-11h66v149l17 4V0h-65l-2-14C94 9 22 18 22-44v-105l-17-5v-11h68v114" id="az"/><path fill="#333" d="M12-83c0-55 22-85 75-86 52-1 66 33 63 88H64c-1 37 6 64 44 63 14 0 28-4 39-6 3 28-28 25-55 27-57 4-80-31-80-86zm90-17c2-26 0-63-27-48-10 9-11 28-11 48h38" id="aA"/><g id="l"><use transform="matrix(0.0987654320987654,0,0,0.0987654320987654,0,0)" xlink:href="#ax"/><use transform="matrix(0.0987654320987654,0,0,0.0987654320987654,21.03703703703703,0)" xlink:href="#ay"/><use transform="matrix(0.0987654320987654,0,0,0.0987654320987654,36.74074074074073,0)" xlink:href="#az"/><use transform="matrix(0.0987654320987654,0,0,0.0987654320987654,56.49382716049381,0)" xlink:href="#aA"/></g><path fill="#fff" d="M172-188c0 86-82 110-138 152h118l-7 36H-4l5-33c49-43 111-74 122-151 5-36-37-45-60-27l-13 34H35l9-54c50-12 128-14 128 43" id="aB"/><g id="m"><use transform="matrix(0.10493827160493814,0,0,0.10493827160493814,0,0)" xlink:href="#aB"/><path fill="#fff" d="M-1.9 2.32H20.8v3.6H-1.9z"/></g><use transform="matrix(0.10493827160493814,0,0,0.10493827160493814,0,0)" xlink:href="#P" id="n"/><path fill="#fff" d="M45-84c0 64 52 80 104 63 1 25-30 25-55 25-56 0-80-32-80-88 0-76 62-98 131-80v46h-10c-5-15-4-31-23-35-47-10-67 21-67 69" id="aC"/><path fill="#fff" d="M52-115c0 93 80 130 150 87l7-35h11l-1 55c-23 7-52 12-83 12C60 4 19-37 15-115c-5-113 97-141 201-114l1 51h-12l-5-30c-15-9-39-16-62-16-66 0-86 41-86 109" id="aD"/><path fill="#fff" d="M164-154L98 4H85L17-153c-7-3-20 0-17-12h77v8l-26 4L99-38l46-115-26-4v-8h61v8" id="aE"/><g id="o"><use transform="matrix(0.1061728395061728,0,0,0.1061728395061728,0,0)" xlink:href="#ad"/><use transform="matrix(0.1061728395061728,0,0,0.1061728395061728,14.864197530864192,0)" xlink:href="#S"/><use transform="matrix(0.1061728395061728,0,0,0.1061728395061728,31.74567901234567,0)" xlink:href="#af"/><use transform="matrix(0.1061728395061728,0,0,0.1061728395061728,42.362962962962946,0)" xlink:href="#R"/><use transform="matrix(0.1061728395061728,0,0,0.1061728395061728,52.980246913580224,0)" xlink:href="#aq"/><use transform="matrix(0.1061728395061728,0,0,0.1061728395061728,62.53580246913577,0)" xlink:href="#Q"/><use transform="matrix(0.1061728395061728,0,0,0.1061728395061728,83.77037037037033,0)" xlink:href="#aj"/><use transform="matrix(0.1061728395061728,0,0,0.1061728395061728,100.6518518518518,0)" xlink:href="#af"/><use transform="matrix(0.1061728395061728,0,0,0.1061728395061728,111.26913580246908,0)" xlink:href="#aj"/><use transform="matrix(0.1061728395061728,0,0,0.1061728395061728,128.15061728395057,0)" xlink:href="#aC"/><use transform="matrix(0.1061728395061728,0,0,0.1061728395061728,145.03209876543204,0)" xlink:href="#R"/><use transform="matrix(0.1061728395061728,0,0,0.1061728395061728,155.64938271604933,0)" xlink:href="#ac"/><use transform="matrix(0.1061728395061728,0,0,0.1061728395061728,168.2839506172839,0)" xlink:href="#aD"/><use transform="matrix(0.1061728395061728,0,0,0.1061728395061728,193.76543209876536,0)" xlink:href="#al"/><use transform="matrix(0.1061728395061728,0,0,0.1061728395061728,212.87654320987647,0)" xlink:href="#aa"/><use transform="matrix(0.1061728395061728,0,0,0.1061728395061728,231.9876543209876,0)" xlink:href="#aE"/><use transform="matrix(0.1061728395061728,0,0,0.1061728395061728,251.09876543209867,0)" xlink:href="#aj"/><use transform="matrix(0.1061728395061728,0,0,0.1061728395061728,267.9802469135802,0)" xlink:href="#T"/><use transform="matrix(0.1061728395061728,0,0,0.1061728395061728,280.61481481481474,0)" xlink:href="#R"/><use transform="matrix(0.1061728395061728,0,0,0.1061728395061728,291.232098765432,0)" xlink:href="#aq"/></g><path fill="#fff" d="M55 0v-9l38-5v-207c-22 1-53 0-70 4l-5 37H7v-56h207v56h-12l-5-37-70-3v206l37 5v9H55" id="aF"/><path fill="#fff" d="M75-131c50 2 93 3 93-48 0-46-48-41-93-41v89zm0 115c55 4 111 6 111-51 0-53-58-48-111-48v99zm148-52C223 24 102-3 10 0v-9l31-5v-208l-31-4v-10c77 6 193-24 194 56 0 33-20 48-48 54 36 5 67 20 67 58" id="aG"/><path fill="#fff" d="M81-9v9H4v-9l26-5 81-224h33l83 224 30 5v9h-99v-9l31-5-23-68H73L49-14zm38-203L78-98h82" id="aH"/><path fill="#fff" d="M50-169c12 0 21 9 21 21 0 13-9 22-21 22-13 0-22-9-22-22 0-12 9-21 22-21zM47-37c42 4 24 74-3 81-7 4-15 8-25 11V42c22-4 44-32 19-42-18-7-14-39 9-37" id="aI"/><g id="p"><use transform="matrix(0.1061728395061728,0,0,0.1061728395061728,0,0)" xlink:href="#aF"/><use transform="matrix(0.1061728395061728,0,0,0.1061728395061728,20.597530864197523,0)" xlink:href="#al"/><use transform="matrix(0.1061728395061728,0,0,0.1061728395061728,39.70864197530862,0)" xlink:href="#aG"/><use transform="matrix(0.1061728395061728,0,0,0.1061728395061728,65.1901234567901,0)" xlink:href="#aw"/><use transform="matrix(0.1061728395061728,0,0,0.1061728395061728,84.3012345679012,0)" xlink:href="#R"/><use transform="matrix(0.1061728395061728,0,0,0.1061728395061728,94.91851851851848,0)" xlink:href="#aj"/><use transform="matrix(0.1061728395061728,0,0,0.1061728395061728,111.79999999999997,0)" xlink:href="#ao"/><use transform="matrix(0.1061728395061728,0,0,0.1061728395061728,124.43456790123453,0)" xlink:href="#aq"/><use transform="matrix(0.1061728395061728,0,0,0.1061728395061728,133.99012345679006,0)" xlink:href="#aF"/><use transform="matrix(0.1061728395061728,0,0,0.1061728395061728,154.58765432098758,0)" xlink:href="#al"/><use transform="matrix(0.1061728395061728,0,0,0.1061728395061728,173.6987654320987,0)" xlink:href="#aH"/><use transform="matrix(0.1061728395061728,0,0,0.1061728395061728,201.19753086419746,0)" xlink:href="#T"/><use transform="matrix(0.1061728395061728,0,0,0.1061728395061728,213.83209876543202,0)" xlink:href="#T"/><use transform="matrix(0.1061728395061728,0,0,0.1061728395061728,226.46666666666658,0)" xlink:href="#S"/><use transform="matrix(0.1061728395061728,0,0,0.1061728395061728,243.34814814814806,0)" xlink:href="#aw"/><use transform="matrix(0.1061728395061728,0,0,0.1061728395061728,262.45925925925917,0)" xlink:href="#ac"/><use transform="matrix(0.1061728395061728,0,0,0.1061728395061728,275.09382716049373,0)" xlink:href="#ao"/><use transform="matrix(0.1061728395061728,0,0,0.1061728395061728,287.7283950617283,0)" xlink:href="#aI"/></g><path fill="#333" d="M92-101v83l39 5V0H8v-13l28-5v-200l-30-5v-13h197v64h-17l-5-42c-27-3-59-2-89-2v96h57l6-30h15v80h-15l-6-31H92" id="aJ"/><path fill="#333" d="M31-163c51-5 127-20 127 40v107l17 4V0h-61l-4-13C82 13 12 12 12-46c0-51 46-52 95-53 9-45-22-69-57-44l-7 20H31v-40zM62-47c0 30 26 34 45 23v-59c-28 0-45 6-45 36" id="aK"/><path fill="#333" d="M76-16l18 4V0H7v-12l18-4v-218l-17-4v-12h68v234" id="aL"/><path fill="#333" d="M102-142c-14-17-68-15-54 18 24 26 83 17 83 72 0 62-72 62-120 47v-45h12c4 23 16 37 43 37 35 0 39-37 9-46-31-9-65-19-64-61 0-52 59-55 108-45v43h-11" id="aM"/><g id="q"><use transform="matrix(0.0987654320987654,0,0,0.0987654320987654,0,0)" xlink:href="#aJ"/><use transform="matrix(0.0987654320987654,0,0,0.0987654320987654,21.629629629629623,0)" xlink:href="#aK"/><use transform="matrix(0.0987654320987654,0,0,0.0987654320987654,39.40740740740739,0)" xlink:href="#aL"/><use transform="matrix(0.0987654320987654,0,0,0.0987654320987654,49.28395061728393,0)" xlink:href="#aM"/><use transform="matrix(0.0987654320987654,0,0,0.0987654320987654,63.11111111111109,0)" xlink:href="#aA"/></g><path fill="#fff" d="M103-236c-39-15-35 32-34 71h44v15H69v136l35 6v8H15v-8l25-6v-136H11v-9l29-7c-6-59 23-100 80-84v36c-15 2-12-14-17-22" id="aN"/><path fill="#fff" d="M240-154L185 4h-14l-41-109L90 4H77L20-153c-7-3-23 1-20-12h79v8l-27 4L91-41l40-108h14l40 109 38-113-28-4v-8h63v8" id="aO"/><path fill="#fff" d="M156-12c7 3 23-1 20 12h-75v-8l22-4-38-58-45 58 23 4v8H3v-8l19-3 55-71-48-71c-7-3-23 1-20-12h75v8l-22 4 32 48 37-48-23-4v-8h59v8l-19 3-46 60" id="aP"/><g id="r"><use transform="matrix(0.11234567901234563,0,0,0.11234567901234563,0,0)" xlink:href="#as"/><use transform="matrix(0.11234567901234563,0,0,0.11234567901234563,29.097530864197516,0)" xlink:href="#aE"/><use transform="matrix(0.11234567901234563,0,0,0.11234567901234563,49.31975308641973,0)" xlink:href="#aj"/><use transform="matrix(0.11234567901234563,0,0,0.11234567901234563,67.18271604938269,0)" xlink:href="#T"/><use transform="matrix(0.11234567901234563,0,0,0.11234567901234563,80.55185185185182,0)" xlink:href="#aN"/><use transform="matrix(0.11234567901234563,0,0,0.11234567901234563,93.92098765432095,0)" xlink:href="#af"/><use transform="matrix(0.11234567901234563,0,0,0.11234567901234563,105.15555555555551,0)" xlink:href="#al"/><use transform="matrix(0.11234567901234563,0,0,0.11234567901234563,125.37777777777772,0)" xlink:href="#aO"/><use transform="matrix(0.11234567901234563,0,0,0.11234567901234563,154.47530864197523,0)" xlink:href="#at"/><use transform="matrix(0.11234567901234563,0,0,0.11234567901234563,179.07901234567893,0)" xlink:href="#aP"/><use transform="matrix(0.11234567901234563,0,0,0.11234567901234563,199.30123456790113,0)" xlink:href="#aC"/><use transform="matrix(0.11234567901234563,0,0,0.11234567901234563,217.1641975308641,0)" xlink:href="#aj"/><use transform="matrix(0.11234567901234563,0,0,0.11234567901234563,235.02716049382707,0)" xlink:href="#av"/><use transform="matrix(0.11234567901234563,0,0,0.11234567901234563,255.24938271604933,0)" xlink:href="#R"/><use transform="matrix(0.11234567901234563,0,0,0.11234567901234563,266.4839506172839,0)" xlink:href="#ab"/><use transform="matrix(0.11234567901234563,0,0,0.11234567901234563,277.71851851851847,0)" xlink:href="#al"/><use transform="matrix(0.11234567901234563,0,0,0.11234567901234563,297.9407407407407,0)" xlink:href="#aa"/></g><path fill="#fff" d="M159-70C162 6 60 13-3-4l8-57h16c0 27 2 50 38 47 45 5 65-51 43-85-8-12-27-13-46-13l4-22c39 1 61-12 61-51 0-35-38-44-59-26l-13 34H33l10-54c48-11 127-16 127 44 0 41-24 57-59 64 28 5 47 21 48 53" id="aQ"/><g id="s"><use transform="matrix(0.0876543209876543,0,0,0.0876543209876543,0,0)" xlink:href="#aQ"/><path fill="#fff" d="M-1.58 1.94h18.93v3H-1.58z"/></g><use transform="matrix(0.0876543209876543,0,0,0.0876543209876543,0,0)" xlink:href="#P" id="t"/><g id="u"><use transform="matrix(0.0876543209876543,0,0,0.0876543209876543,0,0)" xlink:href="#ad"/><use transform="matrix(0.0876543209876543,0,0,0.0876543209876543,12.271604938271603,0)" xlink:href="#S"/><use transform="matrix(0.0876543209876543,0,0,0.0876543209876543,26.208641975308634,0)" xlink:href="#af"/><use transform="matrix(0.0876543209876543,0,0,0.0876543209876543,34.97407407407407,0)" xlink:href="#R"/></g><path fill="#fff" d="M185-92v17H18v-17h167zm0-73v18H18v-18h167" id="aR"/><use transform="matrix(0.0876543209876543,0,0,0.0876543209876543,0,0)" xlink:href="#aR" id="v"/><path fill="#fff" d="M52-115c0 90 69 126 140 93v-67l-30-5v-9h87v9l-23 5v77c-27 8-56 16-90 16C59 2 15-37 15-115c-1-82 41-123 122-123 31 0 59 4 83 10v51h-12l-5-29c-15-12-38-18-65-18-66-1-86 42-86 109" id="aS"/><g id="w"><use transform="matrix(0.0876543209876543,0,0,0.0876543209876543,0,0)" xlink:href="#at"/><use transform="matrix(0.0876543209876543,0,0,0.0876543209876543,19.196296296296293,0)" xlink:href="#aa"/><use transform="matrix(0.0876543209876543,0,0,0.0876543209876543,34.97407407407407,0)" xlink:href="#aC"/><use transform="matrix(0.0876543209876543,0,0,0.0876543209876543,48.9111111111111,0)" xlink:href="#al"/><use transform="matrix(0.0876543209876543,0,0,0.0876543209876543,64.68888888888887,0)" xlink:href="#ai"/><use transform="matrix(0.0876543209876543,0,0,0.0876543209876543,80.46666666666664,0)" xlink:href="#ab"/><use transform="matrix(0.0876543209876543,0,0,0.0876543209876543,89.23209876543207,0)" xlink:href="#aa"/><use transform="matrix(0.0876543209876543,0,0,0.0876543209876543,105.00987654320986,0)" xlink:href="#ae"/><use transform="matrix(0.0876543209876543,0,0,0.0876543209876543,120.7876543209876,0)" xlink:href="#aq"/><use transform="matrix(0.0876543209876543,0,0,0.0876543209876543,128.6765432098765,0)" xlink:href="#aH"/><use transform="matrix(0.0876543209876543,0,0,0.0876543209876543,151.37901234567897,0)" xlink:href="#Q"/><use transform="matrix(0.0876543209876543,0,0,0.0876543209876543,168.90987654320983,0)" xlink:href="#aD"/><use transform="matrix(0.0876543209876543,0,0,0.0876543209876543,189.94691358024687,0)" xlink:href="#Z"/><use transform="matrix(0.0876543209876543,0,0,0.0876543209876543,200.37777777777774,0)" xlink:href="#Z"/><use transform="matrix(0.0876543209876543,0,0,0.0876543209876543,210.8086419753086,0)" xlink:href="#aq"/><use transform="matrix(0.0876543209876543,0,0,0.0876543209876543,218.6975308641975,0)" xlink:href="#aS"/><use transform="matrix(0.0876543209876543,0,0,0.0876543209876543,241.39999999999995,0)" xlink:href="#aj"/><use transform="matrix(0.0876543209876543,0,0,0.0876543209876543,255.33703703703696,0)" xlink:href="#R"/><use transform="matrix(0.0876543209876543,0,0,0.0876543209876543,264.10246913580244,0)" xlink:href="#Q"/><use transform="matrix(0.0876543209876543,0,0,0.0876543209876543,281.6333333333333,0)" xlink:href="#R"/><use transform="matrix(0.0876543209876543,0,0,0.0876543209876543,290.39876543209874,0)" xlink:href="#T"/><use transform="matrix(0.0876543209876543,0,0,0.0876543209876543,300.8296296296296,0)" xlink:href="#ab"/><use transform="matrix(0.0876543209876543,0,0,0.0876543209876543,309.595061728395,0)" xlink:href="#aa"/><use transform="matrix(0.0876543209876543,0,0,0.0876543209876543,325.3728395061728,0)" xlink:href="#ae"/></g><path fill="#fff" d="M134-16c44-1 70-21 70-64v-142l-32-4v-10h80v10l-30 4v141c0 57-33 84-91 85-58 0-93-26-93-82v-144l-30-4v-10h94v10l-30 4c7 82-31 209 62 206" id="aT"/><g id="x"><use transform="matrix(0.0876543209876543,0,0,0.0876543209876543,0,0)" xlink:href="#ac"/><use transform="matrix(0.0876543209876543,0,0,0.0876543209876543,10.430864197530862,0)" xlink:href="#at"/><use transform="matrix(0.0876543209876543,0,0,0.0876543209876543,29.62716049382715,0)" xlink:href="#aa"/><use transform="matrix(0.0876543209876543,0,0,0.0876543209876543,45.40493827160493,0)" xlink:href="#aC"/><use transform="matrix(0.0876543209876543,0,0,0.0876543209876543,59.34197530864196,0)" xlink:href="#al"/><use transform="matrix(0.0876543209876543,0,0,0.0876543209876543,75.11975308641973,0)" xlink:href="#ai"/><use transform="matrix(0.0876543209876543,0,0,0.0876543209876543,90.8975308641975,0)" xlink:href="#ab"/><use transform="matrix(0.0876543209876543,0,0,0.0876543209876543,99.66296296296294,0)" xlink:href="#aa"/><use transform="matrix(0.0876543209876543,0,0,0.0876543209876543,115.44074074074071,0)" xlink:href="#ae"/><use transform="matrix(0.0876543209876543,0,0,0.0876543209876543,131.2185185185185,0)" xlink:href="#aq"/><use transform="matrix(0.0876543209876543,0,0,0.0876543209876543,139.10740740740738,0)" xlink:href="#aT"/><use transform="matrix(0.0876543209876543,0,0,0.0876543209876543,161.80987654320984,0)" xlink:href="#aa"/><use transform="matrix(0.0876543209876543,0,0,0.0876543209876543,177.5876543209876,0)" xlink:href="#ab"/><use transform="matrix(0.0876543209876543,0,0,0.0876543209876543,186.35308641975305,0)" xlink:href="#aC"/><use transform="matrix(0.0876543209876543,0,0,0.0876543209876543,200.29012345679007,0)" xlink:href="#al"/><use transform="matrix(0.0876543209876543,0,0,0.0876543209876543,216.06790123456784,0)" xlink:href="#ai"/><use transform="matrix(0.0876543209876543,0,0,0.0876543209876543,231.8456790123456,0)" xlink:href="#aj"/><use transform="matrix(0.0876543209876543,0,0,0.0876543209876543,245.78271604938266,0)" xlink:href="#aq"/></g><g id="y"><use transform="matrix(0.0876543209876543,0,0,0.0876543209876543,0,0)" xlink:href="#aS"/><use transform="matrix(0.0876543209876543,0,0,0.0876543209876543,22.702469135802463,0)" xlink:href="#aj"/><use transform="matrix(0.0876543209876543,0,0,0.0876543209876543,36.639506172839496,0)" xlink:href="#R"/><use transform="matrix(0.0876543209876543,0,0,0.0876543209876543,45.40493827160493,0)" xlink:href="#aG"/><use transform="matrix(0.0876543209876543,0,0,0.0876543209876543,66.44197530864196,0)" xlink:href="#aw"/><use transform="matrix(0.0876543209876543,0,0,0.0876543209876543,82.21975308641973,0)" xlink:href="#R"/><use transform="matrix(0.0876543209876543,0,0,0.0876543209876543,90.98518518518516,0)" xlink:href="#aj"/><use transform="matrix(0.0876543209876543,0,0,0.0876543209876543,104.9222222222222,0)" xlink:href="#ad"/><use transform="matrix(0.0876543209876543,0,0,0.0876543209876543,117.1938271604938,0)" xlink:href="#ac"/><use transform="matrix(0.0876543209876543,0,0,0.0876543209876543,127.62469135802466,0)" xlink:href="#ad"/><use transform="matrix(0.0876543209876543,0,0,0.0876543209876543,139.89629629629627,0)" xlink:href="#S"/><use transform="matrix(0.0876543209876543,0,0,0.0876543209876543,153.83333333333331,0)" xlink:href="#af"/><use transform="matrix(0.0876543209876543,0,0,0.0876543209876543,162.59876543209873,0)" xlink:href="#R"/><use transform="matrix(0.0876543209876543,0,0,0.0876543209876543,171.36419753086415,0)" xlink:href="#ao"/><use transform="matrix(0.0876543209876543,0,0,0.0876543209876543,181.795061728395,0)" xlink:href="#ao"/></g><path fill="#fff" d="M136-48l-9 48H84l8-48H-6l5-27 134-162h36L142-81h27l-6 33h-27zM98-81l22-108L30-81h68" id="aU"/><g id="z"><use transform="matrix(0.13703703703703696,0,0,0.13703703703703696,0,0)" xlink:href="#aU"/><path fill="#fff" d="M-2.47 3.04h29.6v4.7h-29.6z"/></g><use transform="matrix(0.13703703703703696,0,0,0.13703703703703696,0,0)" xlink:href="#P" id="A"/><path fill="#fff" d="M-3 46V28h186v18H-3" id="aV"/><g id="B"><use transform="matrix(0.13703703703703696,0,0,0.13703703703703696,0,0)" xlink:href="#aV"/><use transform="matrix(0.13703703703703696,0,0,0.13703703703703696,24.666666666666654,0)" xlink:href="#ad"/><use transform="matrix(0.13703703703703696,0,0,0.13703703703703696,43.851851851851826,0)" xlink:href="#S"/><use transform="matrix(0.13703703703703696,0,0,0.13703703703703696,65.64074074074071,0)" xlink:href="#af"/><use transform="matrix(0.13703703703703696,0,0,0.13703703703703696,79.34444444444439,0)" xlink:href="#R"/></g><use transform="matrix(0.13703703703703696,0,0,0.13703703703703696,0,0)" xlink:href="#aR" id="C"/><g id="D"><use transform="matrix(0.13703703703703696,0,0,0.13703703703703696,0,0)" xlink:href="#ad"/><use transform="matrix(0.13703703703703696,0,0,0.13703703703703696,19.185185185185173,0)" xlink:href="#S"/><use transform="matrix(0.13703703703703696,0,0,0.13703703703703696,40.97407407407405,0)" xlink:href="#af"/><use transform="matrix(0.13703703703703696,0,0,0.13703703703703696,54.67777777777775,0)" xlink:href="#R"/></g><g id="E"><use transform="matrix(0.12469135802469125,0,0,0.12469135802469125,0,0)" xlink:href="#S"/><use transform="matrix(0.12469135802469125,0,0,0.12469135802469125,19.825925925925908,0)" xlink:href="#ai"/><use transform="matrix(0.12469135802469125,0,0,0.12469135802469125,42.27037037037033,0)" xlink:href="#af"/><use transform="matrix(0.12469135802469125,0,0,0.12469135802469125,54.739506172839455,0)" xlink:href="#aj"/><use transform="matrix(0.12469135802469125,0,0,0.12469135802469125,74.56543209876537,0)" xlink:href="#T"/><use transform="matrix(0.12469135802469125,0,0,0.12469135802469125,89.40370370370363,0)" xlink:href="#ak"/><use transform="matrix(0.12469135802469125,0,0,0.12469135802469125,129.30493827160484,0)" xlink:href="#al"/><use transform="matrix(0.12469135802469125,0,0,0.12469135802469125,151.74938271604927,0)" xlink:href="#ai"/><use transform="matrix(0.12469135802469125,0,0,0.12469135802469125,174.1938271604937,0)" xlink:href="#am"/><use transform="matrix(0.12469135802469125,0,0,0.12469135802469125,196.63827160493813,0)" xlink:href="#an"/></g><path fill="#fff" d="M18-33v-18l142-69-142-68v-18l168 82v9" id="aW"/><use transform="matrix(0.12469135802469125,0,0,0.12469135802469125,0,0)" xlink:href="#aW" id="F"/><path fill="#fff" d="M90-239c59 0 76 52 76 120S152 4 89 4C31 4 14-51 14-119c0-67 17-120 76-120zM89-10c45-6 45-58 45-109 0-50 0-101-45-106-45 4-43 57-43 106 0 50-2 104 43 109" id="aX"/><use transform="matrix(0.12469135802469125,0,0,0.12469135802469125,0,0)" xlink:href="#aX" id="G"/><path fill="#fff" d="M54-136c50-13 106 1 106 57C160 0 75 15 4-4l8-57h16c3 17-4 43 16 44 43 12 68-18 68-61s-34-50-68-36H28l21-122h122l-7 36H65" id="aY"/><g id="H"><use transform="matrix(0.13703703703703687,0,0,0.13703703703703687,0,0)" xlink:href="#aY"/><path fill="#fff" d="M-2.47 3.04h29.6v4.7h-29.6z"/></g><use transform="matrix(0.13703703703703687,0,0,0.13703703703703687,0,0)" xlink:href="#P" id="I"/><g id="J"><use transform="matrix(0.13703703703703687,0,0,0.13703703703703687,0,0)" xlink:href="#aV"/><use transform="matrix(0.13703703703703687,0,0,0.13703703703703687,24.666666666666636,0)" xlink:href="#au"/><use transform="matrix(0.13703703703703687,0,0,0.13703703703703687,63.03703703703696,0)" xlink:href="#al"/><use transform="matrix(0.13703703703703687,0,0,0.13703703703703687,87.7037037037036,0)" xlink:href="#ai"/><use transform="matrix(0.13703703703703687,0,0,0.13703703703703687,112.37037037037024,0)" xlink:href="#aH"/><use transform="matrix(0.13703703703703687,0,0,0.13703703703703687,147.8629629629628,0)" xlink:href="#ai"/><use transform="matrix(0.13703703703703687,0,0,0.13703703703703687,172.52962962962943,0)" xlink:href="#af"/><use transform="matrix(0.13703703703703687,0,0,0.13703703703703687,186.23333333333312,0)" xlink:href="#aj"/><use transform="matrix(0.13703703703703687,0,0,0.13703703703703687,208.02222222222198,0)" xlink:href="#T"/><use transform="matrix(0.13703703703703687,0,0,0.13703703703703687,224.32962962962938,0)" xlink:href="#am"/><use transform="matrix(0.13703703703703687,0,0,0.13703703703703687,248.996296296296,0)" xlink:href="#an"/></g><use transform="matrix(0.13703703703703687,0,0,0.13703703703703687,0,0)" xlink:href="#aR" id="K"/><g id="L"><use transform="matrix(0.13703703703703687,0,0,0.13703703703703687,0,0)" xlink:href="#S"/><use transform="matrix(0.13703703703703687,0,0,0.13703703703703687,21.788888888888863,0)" xlink:href="#ai"/><use transform="matrix(0.13703703703703687,0,0,0.13703703703703687,46.4555555555555,0)" xlink:href="#af"/><use transform="matrix(0.13703703703703687,0,0,0.13703703703703687,60.15925925925919,0)" xlink:href="#aj"/><use transform="matrix(0.13703703703703687,0,0,0.13703703703703687,81.94814814814805,0)" xlink:href="#T"/><use transform="matrix(0.13703703703703687,0,0,0.13703703703703687,98.25555555555543,0)" xlink:href="#ak"/><use transform="matrix(0.13703703703703687,0,0,0.13703703703703687,142.10740740740724,0)" xlink:href="#al"/><use transform="matrix(0.13703703703703687,0,0,0.13703703703703687,166.77407407407387,0)" xlink:href="#ai"/><use transform="matrix(0.13703703703703687,0,0,0.13703703703703687,191.4407407407405,0)" xlink:href="#am"/><use transform="matrix(0.13703703703703687,0,0,0.13703703703703687,216.10740740740712,0)" xlink:href="#an"/></g><path fill="#fff" d="M166-85c-4 54-31 89-85 89-48 0-69-34-69-82 0-100 58-183 168-153l-9 54h-16l-1-34c-51-29-84 31-91 81 37-24 108-15 103 45zm-47 4c2-39-29-48-59-33-2 37-10 95 25 100 28-4 32-34 34-67" id="aZ"/><g id="M"><use transform="matrix(0.13580246913580238,0,0,0.13580246913580238,0,0)" xlink:href="#aZ"/><path fill="#fff" d="M-2.44 3H26.9v4.66H-2.45z"/></g><g id="N"><use transform="matrix(0.13580246913580238,0,0,0.13580246913580238,0,0)" xlink:href="#at"/><use transform="matrix(0.13580246913580238,0,0,0.13580246913580238,29.74074074074072,0)" xlink:href="#aa"/><use transform="matrix(0.13580246913580238,0,0,0.13580246913580238,54.18518518518515,0)" xlink:href="#ai"/></g></defs></g></svg>